<svg xmlns="http://www.w3.org/2000/svg" xmlns:xlink="http://www.w3.org/1999/xlink" width="771" zoomAndPan="magnify" viewBox="0 0 578.25 926.249994" height="1235" preserveAspectRatio="xMidYMid meet" version="1.0"><defs><clipPath id="49111e5a34"><path d="M 0 0.539062 L 577.5 0.539062 L 577.5 503.984375 L 0 503.984375 Z M 0 0.539062 " clip-rule="nonzero"/></clipPath><clipPath id="474a48a2a5"><path d="M 0 524.566406 L 577.5 524.566406 L 577.5 925.277344 L 0 925.277344 Z M 0 524.566406 " clip-rule="nonzero"/></clipPath></defs><g clip-path="url(#49111e5a34)"><path fill="#ffffff" d="M 547.605469 193.113281 C 541.613281 189.566406 511.507812 213.566406 506.53125 219.011719 C 506.5 219.042969 506.472656 219.070312 506.445312 219.101562 C 504.414062 221.265625 500.882812 218.898438 502.074219 216.179688 C 508.636719 201.191406 540.792969 147.824219 537.761719 138.511719 C 530.023438 138.230469 513.523438 165.058594 504.398438 177.003906 C 496.59375 187.214844 496.773438 190.988281 494.078125 190.757812 C 492.351562 190.609375 491.222656 188.859375 491.617188 187.167969 C 492.191406 184.667969 494.222656 179.933594 499.128906 166.023438 C 510.894531 132.636719 499.03125 162.003906 517.378906 117.292969 C 520 110.90625 523.859375 99.828125 518.234375 95.839844 C 507.507812 97.671875 477.972656 159.425781 471.71875 168.953125 C 469.191406 172.804688 467.601562 175.300781 466.4375 176.859375 C 464.707031 179.160156 461.070312 177.445312 461.726562 174.640625 C 465.488281 158.507812 488.601562 104.109375 483.160156 94.183594 C 477.617188 95.984375 464.476562 112.40625 457.203125 127.765625 C 441.71875 160.460938 451.613281 137.21875 427.597656 182.535156 C 427.105469 183.460938 426.191406 184.132812 425.148438 184.175781 C 423.308594 184.253906 423.289062 182.265625 424.273438 179.296875 C 432.832031 153.410156 423.648438 175.558594 443.429688 122.824219 C 457.640625 84.9375 427.636719 119.105469 392.730469 198.351562 C 357.769531 277.738281 364.269531 327.925781 348.230469 343.878906 C 343.636719 348.441406 332.226562 347.351562 332.777344 318.890625 C 332.996094 307.28125 326.285156 343.957031 309.226562 359.867188 C 303.523438 365.183594 298.277344 363.121094 297.160156 358.253906 C 294.179688 345.300781 306.335938 310.613281 305.910156 309.636719 C 303.730469 311.320312 285.027344 356.753906 265.210938 372.671875 C 262.0625 375.203125 257.15625 375.578125 255.589844 370.726562 C 249.636719 352.246094 288.570312 266.492188 278.410156 283.808594 C 267.960938 301.613281 233.453125 351.421875 230.859375 331.882812 C 228.6875 315.53125 259.667969 258.113281 265.898438 245.363281 C 269.585938 237.816406 256.582031 260.171875 239.691406 270.605469 C 234.804688 273.625 227.882812 272.929688 228.691406 266.664062 C 231.019531 248.613281 241.730469 228.730469 250.554688 212.8125 C 306.035156 112.730469 356.335938 38.609375 429.054688 9.394531 C 487.890625 -14.238281 543.320312 11.648438 567.21875 60.9375 C 585.109375 97.832031 576.929688 152.179688 563.371094 174.785156 C 561.921875 177.207031 559.667969 176.40625 561.132812 173.839844 C 570.394531 157.613281 573.699219 127.96875 573.886719 116.972656 C 574.96875 55 525.421875 -0.675781 464.980469 4.941406 C 420.574219 9.066406 373.847656 44.464844 345.175781 79.542969 C 318.261719 112.46875 245.585938 219.34375 235.738281 259.855469 C 234.6875 264.179688 233.582031 268.683594 234.429688 269.789062 C 235.964844 270.371094 245.933594 263.511719 253.96875 253.566406 C 267.070312 237.355469 271.128906 229.824219 274.085938 227.566406 C 276.078125 226.039062 278.808594 228.125 277.839844 230.441406 C 269.527344 250.386719 208.171875 368.429688 247.722656 321.464844 C 276.046875 287.824219 283.128906 265.125 288.371094 257.9375 C 289.980469 255.71875 293.480469 257.464844 292.699219 260.09375 C 286.945312 279.453125 254.8125 359.007812 260.976562 372.207031 C 277.890625 366.027344 309.328125 292.539062 316.257812 277.128906 C 316.523438 276.535156 317.050781 276.113281 317.679688 275.972656 C 317.761719 275.953125 317.84375 275.941406 317.921875 275.925781 C 319.328125 275.6875 320.492188 277.015625 320.210938 278.410156 C 317.355469 292.621094 291.480469 372.265625 305.675781 358.699219 C 322.582031 342.539062 328.496094 308.746094 338.027344 288.734375 C 338.035156 288.710938 338.050781 288.6875 338.058594 288.664062 C 339.210938 286.292969 342.832031 287.488281 342.402344 290.09375 C 340.59375 301.097656 334.976562 337.613281 343.96875 343.769531 C 351.976562 337.253906 358.175781 302.855469 359.710938 291.136719 C 366.546875 238.980469 405 151.414062 430.53125 116.652344 C 439.734375 104.121094 453.765625 99.109375 450.75 113.507812 C 449.421875 119.832031 428.726562 173.488281 435.222656 162.074219 C 448.058594 139.519531 466.070312 94.625 482.777344 91.816406 C 505.417969 88.007812 462.800781 176.199219 471.402344 163.726562 C 481.558594 149.007812 479.292969 142.015625 503.976562 104.710938 C 516.199219 86.234375 529.351562 92.886719 526.117188 108.046875 C 523.925781 118.320312 522.8125 117.054688 509.460938 153.835938 C 497.097656 187.886719 500.160156 177.085938 523.242188 146.316406 C 533.683594 132.398438 543.144531 134.628906 543.507812 139.710938 C 544.300781 150.570312 516.683594 198.382812 511.722656 208.085938 C 508.714844 213.972656 520.792969 200.628906 538.179688 192.386719 C 578.792969 173.132812 523.835938 247.148438 491.917969 281.484375 C 459.996094 315.824219 430.5625 379.21875 298.46875 487.726562 C 281.5 501.664062 261.910156 509.558594 242.367188 499.347656 C 157.089844 454.804688 -5.300781 290.183594 0.128906 142.070312 C 0.992188 118.597656 8.445312 91.503906 22.902344 73.222656 C 40.753906 50.632812 71.277344 46.453125 100.121094 48.070312 C 140.742188 50.355469 210.667969 92.136719 241.714844 161.054688 C 232.921875 167.089844 230.257812 140.019531 191.230469 103.855469 C 30.015625 -45.550781 -76.085938 148.839844 102.535156 365.707031 C 142.054688 413.695312 203.601562 472.808594 250.320312 496.933594 C 270.75 507.496094 295.082031 484.765625 318.472656 463.28125 C 410.457031 378.808594 401.441406 386.214844 465.101562 305.871094 C 484.839844 280.960938 552.820312 206.007812 547.605469 193.113281 " fill-opacity="1" fill-rule="nonzero"/></g><g clip-path="url(#474a48a2a5)"><path fill="#ffffff" d="M 547.605469 835.4375 C 541.613281 838.984375 511.507812 814.984375 506.53125 809.535156 C 506.5 809.503906 506.472656 809.476562 506.445312 809.445312 C 504.414062 807.285156 500.882812 809.648438 502.074219 812.371094 C 508.636719 827.359375 540.792969 880.722656 537.761719 890.035156 C 530.023438 890.320312 513.523438 863.492188 504.398438 851.546875 C 496.59375 841.335938 496.773438 837.5625 494.078125 837.792969 C 492.351562 837.941406 491.222656 839.6875 491.617188 841.382812 C 492.191406 843.882812 494.222656 848.617188 499.128906 862.523438 C 510.894531 895.914062 499.03125 866.546875 517.378906 911.257812 C 520 917.644531 523.859375 928.71875 518.234375 932.710938 C 507.507812 930.878906 477.972656 869.125 471.71875 859.59375 C 469.191406 855.746094 467.601562 853.25 466.4375 851.691406 C 464.707031 849.390625 461.070312 851.105469 461.726562 853.90625 C 465.488281 870.039062 488.601562 924.441406 483.160156 934.367188 C 477.617188 932.566406 464.476562 916.144531 457.203125 900.785156 C 441.71875 868.089844 451.613281 891.332031 427.597656 846.011719 C 427.105469 845.089844 426.191406 844.414062 425.148438 844.375 C 423.308594 844.296875 423.289062 846.285156 424.273438 849.253906 C 432.832031 875.140625 423.648438 852.992188 443.429688 905.726562 C 457.640625 943.609375 427.636719 909.445312 392.730469 830.195312 C 357.769531 750.8125 364.269531 700.621094 348.230469 684.671875 C 343.636719 680.109375 332.226562 681.199219 332.777344 709.660156 C 332.996094 721.269531 326.285156 684.59375 309.226562 668.683594 C 303.523438 663.367188 298.277344 665.429688 297.160156 670.292969 C 294.179688 683.25 306.335938 717.9375 305.910156 718.914062 C 303.730469 717.230469 285.027344 671.796875 265.210938 655.878906 C 262.0625 653.34375 257.15625 652.96875 255.589844 657.824219 C 249.636719 676.300781 288.570312 762.054688 278.410156 744.742188 C 267.960938 726.9375 233.453125 677.128906 230.859375 696.667969 C 228.6875 713.019531 259.667969 770.4375 265.898438 783.183594 C 269.585938 790.734375 256.582031 768.378906 239.691406 757.945312 C 234.804688 754.925781 227.882812 755.621094 228.691406 761.882812 C 231.019531 779.933594 241.730469 799.820312 250.554688 815.738281 C 306.035156 915.820312 356.335938 989.941406 429.054688 1019.15625 C 487.890625 1042.789062 543.320312 1016.902344 567.21875 967.609375 C 585.109375 930.71875 576.929688 876.367188 563.371094 853.761719 C 561.921875 851.34375 559.667969 852.144531 561.132812 854.710938 C 570.394531 870.9375 573.699219 900.582031 573.886719 911.578125 C 574.96875 973.550781 525.421875 1029.226562 464.980469 1023.609375 C 420.574219 1019.484375 373.847656 984.085938 345.175781 949.003906 C 318.261719 916.082031 245.585938 809.207031 235.738281 768.695312 C 234.6875 764.371094 233.582031 759.867188 234.429688 758.761719 C 235.964844 758.179688 245.933594 765.039062 253.96875 774.984375 C 267.070312 791.191406 271.128906 798.726562 274.085938 800.984375 C 276.078125 802.507812 278.808594 800.421875 277.839844 798.109375 C 269.527344 778.160156 208.171875 660.121094 247.722656 707.085938 C 276.046875 740.722656 283.128906 763.425781 288.371094 770.613281 C 289.980469 772.832031 293.480469 771.082031 292.699219 768.457031 C 286.945312 749.097656 254.8125 669.539062 260.976562 656.34375 C 277.890625 662.523438 309.328125 736.011719 316.257812 751.421875 C 316.523438 752.011719 317.050781 752.4375 317.679688 752.578125 C 317.761719 752.59375 317.84375 752.609375 317.921875 752.621094 C 319.328125 752.863281 320.492188 751.535156 320.210938 750.140625 C 317.355469 735.929688 291.480469 656.285156 305.675781 669.851562 C 322.582031 686.011719 328.496094 719.800781 338.027344 739.816406 C 338.035156 739.839844 338.050781 739.863281 338.058594 739.882812 C 339.210938 742.257812 342.832031 741.0625 342.402344 738.457031 C 340.59375 727.453125 334.976562 690.9375 343.96875 684.78125 C 351.976562 691.296875 358.175781 725.691406 359.710938 737.414062 C 366.546875 789.566406 405 877.136719 430.53125 911.898438 C 439.734375 924.425781 453.765625 929.441406 450.75 915.042969 C 449.421875 908.71875 428.726562 855.0625 435.222656 866.472656 C 448.058594 889.03125 466.070312 933.925781 482.777344 936.730469 C 505.417969 940.542969 462.800781 852.351562 471.402344 864.824219 C 481.558594 879.542969 479.292969 886.535156 503.976562 923.839844 C 516.199219 942.316406 529.351562 935.664062 526.117188 920.503906 C 523.925781 910.230469 522.8125 911.496094 509.460938 874.710938 C 497.097656 840.664062 500.160156 851.464844 523.242188 882.230469 C 533.683594 896.152344 543.144531 893.921875 543.507812 888.839844 C 544.300781 877.980469 516.683594 830.164062 511.722656 820.464844 C 508.714844 814.578125 520.792969 827.921875 538.179688 836.164062 C 578.792969 855.414062 523.835938 781.402344 491.917969 747.066406 C 459.996094 712.722656 430.5625 649.332031 298.46875 540.824219 C 281.5 526.886719 261.910156 518.992188 242.367188 529.203125 C 157.089844 573.742188 -5.300781 738.367188 0.128906 886.480469 C 0.992188 909.953125 8.445312 937.046875 22.902344 955.328125 C 40.753906 977.917969 71.277344 982.097656 100.121094 980.480469 C 140.742188 978.195312 210.667969 936.410156 241.714844 867.496094 C 232.921875 861.460938 230.257812 888.527344 191.230469 924.695312 C 30.015625 1074.101562 -76.085938 879.707031 102.535156 662.84375 C 142.054688 614.855469 203.601562 555.742188 250.320312 531.617188 C 270.75 521.054688 295.082031 543.785156 318.472656 565.265625 C 410.457031 649.742188 401.441406 642.335938 465.101562 722.675781 C 484.839844 747.589844 552.820312 822.542969 547.605469 835.4375 " fill-opacity="1" fill-rule="nonzero"/></g></svg>