<svg xmlns="http://www.w3.org/2000/svg" width="211.441" height="125.952" viewBox="0 0 211.441 125.952">
  <g id="Group_11280" data-name="Group 11280" transform="translate(6077.398 -2569.995)">
    <g id="Group_10974" data-name="Group 10974" transform="translate(-6064.676 2582.937)">
      <g id="Group_9733" data-name="Group 9733">
        <path id="Path_6582" data-name="Path 6582" d="M742.335,735.612l-.491-.148a31.875,31.875,0,0,1-22.479-34.437l.062-.508.491.148A31.874,31.874,0,0,1,742.4,735.1Zm-22.172-33.967A31.013,31.013,0,0,0,741.6,734.485,31.013,31.013,0,0,0,720.163,701.645Z" transform="translate(-719.127 -700.518)" fill="#fff"/>
      </g>
      <g id="Group_9734" data-name="Group 9734" transform="translate(27.51 12.954)">
        <path id="Path_6583" data-name="Path 6583" d="M755.594,738.912a32.3,32.3,0,0,1-4.069-.258l-.508-.065.15-.49a31.875,31.875,0,0,1,34.55-22.307l.509.065-.151.49A31.87,31.87,0,0,1,755.594,738.912Zm-3.446-1.053a31,31,0,0,0,32.947-21.271A31,31,0,0,0,752.148,737.859Z" transform="translate(-751.017 -715.535)" fill="#fff"/>
      </g>
    </g>
    <g id="Group_10975" data-name="Group 10975" transform="translate(-6014.681 2658.277) rotate(180)">
      <g id="Group_9733-2" data-name="Group 9733">
        <path id="Path_6582-2" data-name="Path 6582" d="M742.335,735.612l-.491-.148a31.875,31.875,0,0,1-22.479-34.437l.062-.508.491.148A31.874,31.874,0,0,1,742.4,735.1Zm-22.172-33.967A31.013,31.013,0,0,0,741.6,734.485,31.013,31.013,0,0,0,720.163,701.645Z" transform="translate(-719.127 -700.518)" fill="#fff"/>
      </g>
      <g id="Group_9734-2" data-name="Group 9734" transform="translate(27.51 12.954)">
        <path id="Path_6583-2" data-name="Path 6583" d="M755.594,738.912a32.3,32.3,0,0,1-4.069-.258l-.508-.065.15-.49a31.875,31.875,0,0,1,34.55-22.307l.509.065-.151.49A31.87,31.87,0,0,1,755.594,738.912Zm-3.446-1.053a31,31,0,0,0,32.947-21.271A31,31,0,0,0,752.148,737.859Z" transform="translate(-751.017 -715.535)" fill="#fff"/>
      </g>
    </g>
    <g id="Group_10976" data-name="Group 10976" transform="translate(-6016.676 2620.607)">
      <g id="Group_9733-3" data-name="Group 9733">
        <path id="Path_6582-3" data-name="Path 6582" d="M742.335,735.612l-.491-.148a31.875,31.875,0,0,1-22.479-34.437l.062-.508.491.148A31.874,31.874,0,0,1,742.4,735.1Zm-22.172-33.967A31.013,31.013,0,0,0,741.6,734.485,31.013,31.013,0,0,0,720.163,701.645Z" transform="translate(-719.127 -700.518)" fill="#fff"/>
      </g>
      <g id="Group_9734-3" data-name="Group 9734" transform="translate(27.51 12.954)">
        <path id="Path_6583-3" data-name="Path 6583" d="M755.594,738.912a32.3,32.3,0,0,1-4.069-.258l-.508-.065.15-.49a31.875,31.875,0,0,1,34.55-22.307l.509.065-.151.49A31.87,31.87,0,0,1,755.594,738.912Zm-3.446-1.053a31,31,0,0,0,32.947-21.271A31,31,0,0,0,752.148,737.859Z" transform="translate(-751.017 -715.535)" fill="#fff"/>
      </g>
    </g>
    <g id="Group_10977" data-name="Group 10977" transform="translate(-5966.681 2695.947) rotate(180)">
      <g id="Group_9733-4" data-name="Group 9733">
        <path id="Path_6582-4" data-name="Path 6582" d="M742.335,735.612l-.491-.148a31.875,31.875,0,0,1-22.479-34.437l.062-.508.491.148A31.874,31.874,0,0,1,742.4,735.1Zm-22.172-33.967A31.013,31.013,0,0,0,741.6,734.485,31.013,31.013,0,0,0,720.163,701.645Z" transform="translate(-719.127 -700.518)" fill="#fff"/>
      </g>
      <g id="Group_9734-4" data-name="Group 9734" transform="translate(27.51 12.954)">
        <path id="Path_6583-4" data-name="Path 6583" d="M755.594,738.912a32.3,32.3,0,0,1-4.069-.258l-.508-.065.15-.49a31.875,31.875,0,0,1,34.55-22.307l.509.065-.151.49A31.87,31.87,0,0,1,755.594,738.912Zm-3.446-1.053a31,31,0,0,0,32.947-21.271A31,31,0,0,0,752.148,737.859Z" transform="translate(-751.017 -715.535)" fill="#fff"/>
      </g>
    </g>
    <g id="Group_10978" data-name="Group 10978" transform="translate(-5976.676 2569.995)">
      <g id="Group_9733-5" data-name="Group 9733">
        <path id="Path_6582-5" data-name="Path 6582" d="M742.335,735.612l-.491-.148a31.875,31.875,0,0,1-22.479-34.437l.062-.508.491.148A31.874,31.874,0,0,1,742.4,735.1Zm-22.172-33.967A31.013,31.013,0,0,0,741.6,734.485,31.013,31.013,0,0,0,720.163,701.645Z" transform="translate(-719.127 -700.518)" fill="#fff"/>
      </g>
      <g id="Group_9734-5" data-name="Group 9734" transform="translate(27.51 12.954)">
        <path id="Path_6583-5" data-name="Path 6583" d="M755.594,738.912a32.3,32.3,0,0,1-4.069-.258l-.508-.065.15-.49a31.875,31.875,0,0,1,34.55-22.307l.509.065-.151.49A31.87,31.87,0,0,1,755.594,738.912Zm-3.446-1.053a31,31,0,0,0,32.947-21.271A31,31,0,0,0,752.148,737.859Z" transform="translate(-751.017 -715.535)" fill="#fff"/>
      </g>
    </g>
    <g id="Group_10979" data-name="Group 10979" transform="translate(-5926.681 2645.335) rotate(180)">
      <g id="Group_9733-6" data-name="Group 9733">
        <path id="Path_6582-6" data-name="Path 6582" d="M742.335,735.612l-.491-.148a31.875,31.875,0,0,1-22.479-34.437l.062-.508.491.148A31.874,31.874,0,0,1,742.4,735.1Zm-22.172-33.967A31.013,31.013,0,0,0,741.6,734.485,31.013,31.013,0,0,0,720.163,701.645Z" transform="translate(-719.127 -700.518)" fill="#fff"/>
      </g>
      <g id="Group_9734-6" data-name="Group 9734" transform="translate(27.51 12.954)">
        <path id="Path_6583-6" data-name="Path 6583" d="M755.594,738.912a32.3,32.3,0,0,1-4.069-.258l-.508-.065.15-.49a31.875,31.875,0,0,1,34.55-22.307l.509.065-.151.49A31.87,31.87,0,0,1,755.594,738.912Zm-3.446-1.053a31,31,0,0,0,32.947-21.271A31,31,0,0,0,752.148,737.859Z" transform="translate(-751.017 -715.535)" fill="#fff"/>
      </g>
    </g>
    <g id="Group_10980" data-name="Group 10980" transform="translate(-5928.676 2607.665)">
      <g id="Group_9733-7" data-name="Group 9733">
        <path id="Path_6582-7" data-name="Path 6582" d="M742.335,735.612l-.491-.148a31.875,31.875,0,0,1-22.479-34.437l.062-.508.491.148A31.874,31.874,0,0,1,742.4,735.1Zm-22.172-33.967A31.013,31.013,0,0,0,741.6,734.485,31.013,31.013,0,0,0,720.163,701.645Z" transform="translate(-719.127 -700.518)" fill="#fff"/>
      </g>
      <g id="Group_9734-7" data-name="Group 9734" transform="translate(27.51 12.954)">
        <path id="Path_6583-7" data-name="Path 6583" d="M755.594,738.912a32.3,32.3,0,0,1-4.069-.258l-.508-.065.15-.49a31.875,31.875,0,0,1,34.55-22.307l.509.065-.151.49A31.87,31.87,0,0,1,755.594,738.912Zm-3.446-1.053a31,31,0,0,0,32.947-21.271A31,31,0,0,0,752.148,737.859Z" transform="translate(-751.017 -715.535)" fill="#fff"/>
      </g>
    </g>
    <g id="Group_10981" data-name="Group 10981" transform="translate(-5878.681 2683.005) rotate(180)">
      <g id="Group_9733-8" data-name="Group 9733">
        <path id="Path_6582-8" data-name="Path 6582" d="M742.335,735.612l-.491-.148a31.875,31.875,0,0,1-22.479-34.437l.062-.508.491.148A31.874,31.874,0,0,1,742.4,735.1Zm-22.172-33.967A31.013,31.013,0,0,0,741.6,734.485,31.013,31.013,0,0,0,720.163,701.645Z" transform="translate(-719.127 -700.518)" fill="#fff"/>
      </g>
      <g id="Group_9734-8" data-name="Group 9734" transform="translate(27.51 12.954)">
        <path id="Path_6583-8" data-name="Path 6583" d="M755.594,738.912a32.3,32.3,0,0,1-4.069-.258l-.508-.065.15-.49a31.875,31.875,0,0,1,34.55-22.307l.509.065-.151.49A31.87,31.87,0,0,1,755.594,738.912Zm-3.446-1.053a31,31,0,0,0,32.947-21.271A31,31,0,0,0,752.148,737.859Z" transform="translate(-751.017 -715.535)" fill="#fff"/>
      </g>
    </g>
  </g>
</svg>
