<svg xmlns="http://www.w3.org/2000/svg" xmlns:xlink="http://www.w3.org/1999/xlink" width="211.78" height="61.286" viewBox="0 0 211.78 61.286"><defs><style>.a{fill:#fff;}.b{clip-path:url(#a);}.c{fill:rgba(30,61,97,0.1);}</style><clipPath id="a"><path class="a" d="M0,0H211.78a0,0,0,0,1,0,0V52.286a9,9,0,0,1-9,9H16a16,16,0,0,1-16-16V0A0,0,0,0,1,0,0Z" transform="translate(211.78 61.286) rotate(180)"/></clipPath></defs><g class="b" transform="translate(0)"><g transform="translate(-15.167 -178.656)"><path class="c" d="M-923.448-798.03c-6.314,57.557-63.407,103.367-134.97,108.186C-1052.1-747.4-995.011-793.211-923.448-798.03Z" transform="translate(1153.789 926.426)"/><path class="a" d="M-923.449-506.826c-71.562-4.82-128.655-50.628-134.969-108.185C-986.857-610.193-929.761-564.383-923.449-506.826Z" transform="translate(1153.789 615.011)"/><path class="c" d="M-937.559-798.03c-5.654,51.539-56.778,92.56-120.858,96.875C-1052.763-752.694-1001.64-793.715-937.559-798.03Z" transform="translate(1058.418 925.369)"/><path class="a" d="M-937.56-518.137c-64.08-4.316-115.2-45.335-120.858-96.874C-994.339-610.7-943.213-569.676-937.56-518.137Z" transform="translate(1058.417 627.379)"/></g></g></svg>