<svg xmlns="http://www.w3.org/2000/svg" width="690.963" height="437.137" viewBox="0 0 690.963 437.137">
  <g id="Group_16234" data-name="Group 16234" transform="translate(-21.712 -18.33)">
    <g id="Group_16232" data-name="Group 16232" transform="translate(0 31)">
      <g id="Group_13975" data-name="Group 13975" transform="translate(6.925 -256.834)">
        <g id="Component_400_6" data-name="Component 400 – 6" transform="translate(14.787 340.164)">
          <g id="Group_13856" data-name="Group 13856" transform="translate(0 340.623) rotate(-90)">
            <path id="Path_16765" data-name="Path 16765" d="M100.116,99.472A109.831,109.831,0,0,0,.038,0,109.83,109.83,0,0,0,100.116,99.567m18.519,0A109.831,109.831,0,0,0,218.714,0,109.831,109.831,0,0,0,118.6,99.472M0,217.654a109.831,109.831,0,0,0,100.078-99.567A109.831,109.831,0,0,0,0,217.654m218.677,0A109.831,109.831,0,0,0,118.6,118.087a109.831,109.831,0,0,0,100.079,99.567" transform="translate(0 127.579)" fill="none" stroke="#f6f5f5" stroke-miterlimit="10" stroke-width="1"/>
            <g id="Group_13855" data-name="Group 13855" transform="translate(122.401 0)">
              <path id="Path_16783" data-name="Path 16783" d="M99.87,99.378A109.6,109.6,0,0,0,0,0,109.6,109.6,0,0,0,99.87,99.378" transform="translate(118.352 117.916)" fill="#f6f5f5"/>
              <path id="Path_16785" data-name="Path 16785" d="M0,99.359A109.585,109.585,0,0,0,99.87,0,109.566,109.566,0,0,0,0,99.378" transform="translate(118.352)" fill="#f6f5f5"/>
              <path id="Path_16786" data-name="Path 16786" d="M99.87,99.359A109.6,109.6,0,0,0,0,0,109.584,109.584,0,0,0,99.87,99.378" transform="translate(0)" fill="#f6f5f5"/>
            </g>
          </g>
        </g>
      </g>
    </g>
    <g id="Group_16233" data-name="Group 16233" transform="translate(345.232 -65)">
      <g id="Group_13975-2" data-name="Group 13975" transform="translate(6.925 -256.834)">
        <g id="Component_400_7" data-name="Component 400 – 7" transform="translate(14.787 340.164)">
          <g id="Group_13856-2" data-name="Group 13856" transform="translate(0 340.623) rotate(-90)">
            <path id="Path_16765-2" data-name="Path 16765" d="M100.116,99.472A109.831,109.831,0,0,0,.038,0,109.83,109.83,0,0,0,100.116,99.567m18.519,0A109.831,109.831,0,0,0,218.714,0,109.831,109.831,0,0,0,118.6,99.472M0,217.654a109.831,109.831,0,0,0,100.078-99.567A109.831,109.831,0,0,0,0,217.654m218.677,0A109.831,109.831,0,0,0,118.6,118.087a109.831,109.831,0,0,0,100.079,99.567" transform="translate(0 127.579)" fill="none" stroke="#f6f5f5" stroke-miterlimit="10" stroke-width="1"/>
            <g id="Group_13855-2" data-name="Group 13855" transform="translate(122.401 0)">
              <path id="Path_16783-2" data-name="Path 16783" d="M99.87,99.378A109.6,109.6,0,0,0,0,0,109.6,109.6,0,0,0,99.87,99.378" transform="translate(118.352 117.916)" fill="#f6f5f5"/>
              <path id="Path_16785-2" data-name="Path 16785" d="M0,99.359A109.585,109.585,0,0,0,99.87,0,109.566,109.566,0,0,0,0,99.378" transform="translate(118.352)" fill="#f6f5f5"/>
              <path id="Path_16786-2" data-name="Path 16786" d="M99.87,99.359A109.6,109.6,0,0,0,0,0,109.584,109.584,0,0,0,99.87,99.378" transform="translate(0)" fill="#f6f5f5"/>
            </g>
          </g>
        </g>
      </g>
    </g>
  </g>
</svg>
