<svg xmlns="http://www.w3.org/2000/svg" width="87.007" height="87.549" viewBox="0 0 87.007 87.549">
  <g id="Group_13894" data-name="Group 13894" transform="translate(-83.008 45)">
    <g id="Group_13857" data-name="Group 13857" transform="translate(170.015 8.638) rotate(180)">
      <path id="Path_16798" data-name="Path 16798" d="M0,0A27.053,27.053,0,0,1,24.65,24.529,27.043,27.043,0,0,1,0,0" transform="translate(0 0)" fill="#fff"/>
      <path id="Path_16799" data-name="Path 16799" d="M0,0A27.053,27.053,0,0,1,24.65,24.529,27.039,27.039,0,0,1,0,0" transform="translate(29.212 29.109)" fill="#fff"/>
      <path id="Path_16800" data-name="Path 16800" d="M24.65,0A27.053,27.053,0,0,1,0,24.529,27.048,27.048,0,0,1,24.65,0" transform="translate(0 29.109)" fill="#fff"/>
    </g>
    <path id="Path_16801" data-name="Path 16801" d="M24.707,29.194A27.109,27.109,0,0,1,0,53.746,27.109,27.109,0,0,1,24.707,29.17m4.571,0a27.109,27.109,0,0,1,24.7,24.576,27.109,27.109,0,0,1-24.7-24.576M0,0A27.109,27.109,0,0,1,24.707,24.576,27.109,27.109,0,0,1,0,0M53.979,0a27.109,27.109,0,0,1-24.7,24.576A27.109,27.109,0,0,1,53.979,0" transform="translate(83.506 41.997) rotate(-90)" fill="none" stroke="#fff" stroke-width="1"/>
  </g>
</svg>
