<svg xmlns="http://www.w3.org/2000/svg" width="262.101" height="1112.171" viewBox="0 0 262.101 1112.171"><defs><style>.a{opacity:0.215;}.b,.d{isolation:isolate;}.c{fill:none;stroke:#1e3d61;stroke-miterlimit:10;}.d{opacity:0.584;}</style></defs><g class="a" transform="translate(1058.967 1170.664)"><g class="b" transform="translate(-914.33 -313.402)"><path class="c" d="M-750.476-34.3A128.254,128.254,0,0,0-867.389,82.015,128.252,128.252,0,0,0-750.476-34.3Z" transform="translate(867.389 34.301)"/><path class="c" d="M-750.476,265.033A128.252,128.252,0,0,0-867.387,148.717,128.252,128.252,0,0,0-750.476,265.033Z" transform="translate(867.388 -10.672)"/></g><g class="b" transform="translate(-1058.417 -313.402)"><path class="c" d="M-941.5,82.015A128.253,128.253,0,0,0-1058.417-34.3,128.253,128.253,0,0,0-941.5,82.015Z" transform="translate(1058.417 34.301)"/><path class="c" d="M-941.5,148.717a128.253,128.253,0,0,0-116.912,116.316A128.253,128.253,0,0,0-941.5,148.717Z" transform="translate(1058.417 -10.672)"/></g><g class="b" transform="translate(-914.33 -594.057)"><path class="c" d="M-750.476-406.388A128.255,128.255,0,0,0-867.389-290.072,128.251,128.251,0,0,0-750.476-406.388Z" transform="translate(867.389 406.388)"/><path class="c" d="M-750.476-107.053A128.252,128.252,0,0,0-867.387-223.369,128.253,128.253,0,0,0-750.476-107.053Z" transform="translate(867.388 361.415)"/></g><g class="b" transform="translate(-1058.417 -594.057)"><path class="c" d="M-941.5-290.072a128.254,128.254,0,0,0-116.913-116.316A128.252,128.252,0,0,0-941.5-290.072Z" transform="translate(1058.417 406.388)"/><path class="c" d="M-941.5-223.369a128.252,128.252,0,0,0-116.912,116.316A128.253,128.253,0,0,0-941.5-223.369Z" transform="translate(1058.417 361.415)"/></g><g class="b" transform="translate(-914.33 -889.462)"><path class="c" d="M-750.476-798.03A128.254,128.254,0,0,0-867.389-681.714,128.252,128.252,0,0,0-750.476-798.03Z" transform="translate(867.389 798.03)"/><path class="c" d="M-750.476-498.7A128.252,128.252,0,0,0-867.387-615.011,128.251,128.251,0,0,0-750.476-498.7Z" transform="translate(867.388 753.057)"/></g><g class="b" transform="translate(-1058.417 -889.462)"><path class="c" d="M-941.5-681.714A128.253,128.253,0,0,0-1058.417-798.03,128.253,128.253,0,0,0-941.5-681.714Z" transform="translate(1058.417 798.03)"/><path class="c" d="M-941.5-615.011A128.252,128.252,0,0,0-1058.417-498.7,128.252,128.252,0,0,0-941.5-615.011Z" transform="translate(1058.417 753.057)"/></g><g class="d" transform="translate(-914.33 -1170.116)"><path class="c" d="M-750.476-1170.116A128.254,128.254,0,0,0-867.389-1053.8,128.252,128.252,0,0,0-750.476-1170.116Z" transform="translate(867.389 1170.116)"/><path class="c" d="M-750.476-870.782A128.252,128.252,0,0,0-867.387-987.1,128.252,128.252,0,0,0-750.476-870.782Z" transform="translate(867.388 1125.143)"/></g><g class="b" transform="translate(-1058.417 -1170.116)"><path class="c" d="M-941.5-1053.8a128.253,128.253,0,0,0-116.913-116.316A128.252,128.252,0,0,0-941.5-1053.8Z" transform="translate(1058.417 1170.116)"/><path class="c" d="M-941.5-987.1a128.252,128.252,0,0,0-116.912,116.316A128.253,128.253,0,0,0-941.5-987.1Z" transform="translate(1058.417 1125.143)"/></g></g></svg>