<svg xmlns="http://www.w3.org/2000/svg" width="108.202" height="105.348" viewBox="0 0 108.202 105.348"><defs><style>.a,.b{fill:#214570;}.a{opacity:0.473;}.b{opacity:0.184;}</style></defs><g transform="translate(108.202) rotate(90)"><path class="a" d="M61.729,0C58.841,26.324,32.729,47.275,0,49.479,2.888,23.156,29,2.2,61.729,0Z" transform="translate(43.619 58.722)"/><path class="a" d="M61.729,49.479C29,47.275,2.888,26.324,0,0,32.728,2.2,58.841,23.155,61.729,49.479Z" transform="translate(43.619)"/><path class="b" d="M55.275,0C52.689,23.572,29.307,42.333,0,44.306,2.586,20.735,25.967,1.974,55.275,0Z" transform="translate(0 58.239)"/><path class="b" d="M55.275,44.306C25.967,42.332,2.586,23.571,0,0,29.307,1.973,52.689,20.734,55.275,44.306Z" transform="translate(0 5.657)"/></g></svg>