<svg xmlns="http://www.w3.org/2000/svg" xmlns:xlink="http://www.w3.org/1999/xlink" width="167.102" height="170.975" viewBox="0 0 167.102 170.975">
  <defs>
    <clipPath id="clip-path">
      <circle id="Ellipse_237" data-name="Ellipse 237" cx="83.551" cy="83.551" r="83.551" fill="none"/>
    </clipPath>
  </defs>
  <g id="Group_18152" data-name="Group 18152" transform="translate(-604.095 -392.8)">
    <g id="Group_9699" data-name="Group 9699" transform="translate(604.095 396.672)">
      <circle id="Ellipse_236" data-name="Ellipse 236" cx="83.551" cy="83.551" r="83.551" fill="#0d8f75"/>
    </g>
    <g id="Group_9702" data-name="Group 9702" transform="translate(604.095 396.672)">
      <g id="Group_9701" data-name="Group 9701" clip-path="url(#clip-path)">
        <g id="Group_9700" data-name="Group 9700" transform="translate(-15.649 18.498)">
          <rect id="Rectangle_1915" data-name="Rectangle 1915" width="186.133" height="77.517" transform="translate(0 65.851) rotate(-20.719)" fill="#00735d"/>
        </g>
      </g>
    </g>
    <g id="Group_9736" data-name="Group 9736" transform="translate(611.275 401.906)">
      <g id="Group_9705" data-name="Group 9705" transform="translate(81.628 128.597)">
        <g id="Group_9703" data-name="Group 9703" transform="translate(0 11.405)">
          <path id="Path_6562" data-name="Path 6562" d="M810.991,724.743a17.149,17.149,0,0,1-15.45-9.716l-.12-.248.265-.076a17.151,17.151,0,0,1,20.194,9.048L816,724l-.265.076A17.253,17.253,0,0,1,810.991,724.743Zm-14.909-9.669a16.691,16.691,0,0,0,19.257,8.629A16.691,16.691,0,0,0,796.082,715.074Z" transform="translate(-795.421 -714.035)" fill="#fff"/>
        </g>
        <g id="Group_9704" data-name="Group 9704" transform="translate(22.074)">
          <path id="Path_6563" data-name="Path 6563" d="M843.694,710l-.075-.265a17.151,17.151,0,0,1,9.15-20.148l.249-.119.074.266a17.152,17.152,0,0,1-9.15,20.148Zm9.025-19.873a16.686,16.686,0,0,0-8.725,19.214A16.687,16.687,0,0,0,852.719,690.124Z" transform="translate(-842.976 -689.464)" fill="#fff"/>
        </g>
      </g>
      <g id="Group_9708" data-name="Group 9708" transform="translate(115.077 100.006)">
        <g id="Group_9706" data-name="Group 9706" transform="translate(0 21.53)">
          <path id="Path_6564" data-name="Path 6564" d="M876.7,682.991a17.149,17.149,0,0,1-8.98-2.541l-.235-.144.182-.207a17.152,17.152,0,0,1,21.881-3.305l.235.144-.182.207A17.153,17.153,0,0,1,876.7,682.991Zm-8.5-2.793a16.688,16.688,0,0,0,20.865-3.152A16.687,16.687,0,0,0,868.2,680.2Z" transform="translate(-867.483 -674.254)" fill="#fff"/>
        </g>
        <g id="Group_9707" data-name="Group 9707" transform="translate(17.72)">
          <path id="Path_6565" data-name="Path 6565" d="M911.645,650.184l-.206-.183a17.151,17.151,0,0,1-3.2-21.9l.145-.234.206.183a17.152,17.152,0,0,1,3.2,21.9Zm-3.152-21.6a16.685,16.685,0,0,0,3.047,20.88A16.687,16.687,0,0,0,908.494,628.586Z" transform="translate(-905.658 -627.869)" fill="#fff"/>
        </g>
      </g>
      <g id="Group_9711" data-name="Group 9711" transform="translate(136.105 64.178)">
        <g id="Group_9709" data-name="Group 9709" transform="translate(0 19.372)">
          <path id="Path_6566" data-name="Path 6566" d="M912.783,607.3l.042-.273a17.15,17.15,0,0,1,16.62-14.609l.276-.006-.041.273a17.151,17.151,0,0,1-16.62,14.61Zm16.393-14.41a16.686,16.686,0,0,0-15.849,13.932A16.687,16.687,0,0,0,929.176,592.894Z" transform="translate(-912.783 -592.416)" fill="#fff"/>
        </g>
        <g id="Group_9710" data-name="Group 9710" transform="translate(2.292)">
          <path id="Path_6567" data-name="Path 6567" d="M932.524,567.693l-.272-.043a17.151,17.151,0,0,1-14.527-16.693l0-.276.272.042a17.152,17.152,0,0,1,14.526,16.693ZM918.2,551.227a16.685,16.685,0,0,0,13.852,15.918A16.686,16.686,0,0,0,918.2,551.227Z" transform="translate(-917.721 -550.681)" fill="#fff"/>
        </g>
      </g>
      <g id="Group_9714" data-name="Group 9714" transform="translate(121.439 30.9)">
        <g id="Group_9712" data-name="Group 9712" transform="translate(14.973 9.965)">
          <path id="Path_6568" data-name="Path 6568" d="M915.066,522.139l-.113-.252a17.151,17.151,0,0,1,6.083-21.276l.229-.154.113.252a17.152,17.152,0,0,1-6.083,21.276Zm6-20.986a16.686,16.686,0,0,0-5.8,20.289A16.687,16.687,0,0,0,921.066,501.153Z" transform="translate(-913.444 -500.457)" fill="#fff"/>
        </g>
        <g id="Group_9713" data-name="Group 9713">
          <path id="Path_6569" data-name="Path 6569" d="M895.628,488.468A17.15,17.15,0,0,1,881.34,480.8l-.153-.229.252-.111a17.152,17.152,0,0,1,21.246,6.19l.153.229-.252.111A17.186,17.186,0,0,1,895.628,488.468Zm-13.745-7.692a16.686,16.686,0,0,0,20.259,5.9A16.687,16.687,0,0,0,881.883,480.776Z" transform="translate(-881.187 -478.988)" fill="#fff"/>
        </g>
      </g>
      <g id="Group_9717" data-name="Group 9717" transform="translate(90.039 7.039)">
        <g id="Group_9715" data-name="Group 9715" transform="translate(22.185 2.68)">
          <path id="Path_6570" data-name="Path 6570" d="M869.363,454.947l-.231-.151a17.152,17.152,0,0,1-6.386-21.188l.109-.253.231.151a17.151,17.151,0,0,1,6.385,21.187Zm-6.3-20.9a16.686,16.686,0,0,0,6.089,20.2A16.687,16.687,0,0,0,863.065,434.049Z" transform="translate(-861.336 -433.355)" fill="#fff"/>
        </g>
        <g id="Group_9716" data-name="Group 9716">
          <path id="Path_6571" data-name="Path 6571" d="M820.686,437.092a17.2,17.2,0,0,1-6.893-1.445l-.253-.111.152-.23a17.151,17.151,0,0,1,21.219-6.279l.253.11-.152.23A17.147,17.147,0,0,1,820.686,437.092Zm-6.451-1.762a16.686,16.686,0,0,0,20.235-5.988A16.688,16.688,0,0,0,814.235,435.331Z" transform="translate(-813.541 -427.582)" fill="#fff"/>
        </g>
      </g>
      <g id="Group_9720" data-name="Group 9720" transform="translate(54.167)">
        <g id="Group_9718" data-name="Group 9718" transform="translate(17.091)">
          <path id="Path_6572" data-name="Path 6572" d="M790.226,427.064l-.276,0a17.151,17.151,0,0,1-16.826-14.372l-.045-.272.276,0a17.151,17.151,0,0,1,16.826,14.372Zm-16.6-14.175a16.687,16.687,0,0,0,16.046,13.7A16.687,16.687,0,0,0,773.63,412.889Z" transform="translate(-773.079 -412.418)" fill="#fff"/>
        </g>
        <g id="Group_9719" data-name="Group 9719" transform="translate(0 0.18)">
          <path id="Path_6573" data-name="Path 6573" d="M736.258,429.879l0-.276a17.152,17.152,0,0,1,14.456-16.754l.273-.044,0,.276a17.151,17.151,0,0,1-14.456,16.754Zm14.258-16.525a16.687,16.687,0,0,0-13.785,15.976A16.686,16.686,0,0,0,750.516,413.354Z" transform="translate(-736.258 -412.805)" fill="#fff"/>
        </g>
      </g>
      <g id="Group_9723" data-name="Group 9723" transform="translate(22.44 11.977)">
        <g id="Group_9721" data-name="Group 9721" transform="translate(7.82)">
          <path id="Path_6574" data-name="Path 6574" d="M697.678,446.906a17.145,17.145,0,0,1-12.736-5.663l-.185-.2.233-.148a17.151,17.151,0,0,1,21.925,2.993l.185.2-.233.148A17.161,17.161,0,0,1,697.678,446.906Zm-12.2-5.77a16.687,16.687,0,0,0,20.908,2.854A16.688,16.688,0,0,0,685.474,441.136Z" transform="translate(-684.756 -438.221)" fill="#fff"/>
        </g>
        <g id="Group_9722" data-name="Group 9722" transform="translate(0 4.244)">
          <path id="Path_6575" data-name="Path 6575" d="M670.678,469.692l-.146-.234a17.151,17.151,0,0,1,3.1-21.91l.205-.184.146.234a17.15,17.15,0,0,1-3.1,21.91Zm3.061-21.611a16.687,16.687,0,0,0-2.96,20.893A16.687,16.687,0,0,0,673.74,448.081Z" transform="translate(-667.908 -447.364)" fill="#fff"/>
        </g>
      </g>
      <g id="Group_9726" data-name="Group 9726" transform="translate(2.257 39.217)">
        <g id="Group_9724" data-name="Group 9724" transform="translate(1.514)">
          <path id="Path_6576" data-name="Path 6576" d="M632.462,507.767a17.269,17.269,0,0,1-4.51-.6l-.266-.072.116-.25a17.15,17.15,0,0,1,20.063-9.336l.266.072-.117.25A17.151,17.151,0,0,1,632.462,507.767Zm-4.119-.979a16.686,16.686,0,0,0,19.132-8.9A16.687,16.687,0,0,0,628.343,506.788Z" transform="translate(-627.686 -496.906)" fill="#fff"/>
        </g>
        <g id="Group_9725" data-name="Group 9725" transform="translate(0 12.408)">
          <path id="Path_6577" data-name="Path 6577" d="M634.533,544.131l-.25-.118a17.151,17.151,0,0,1-9.235-20.109l.073-.266.25.118a17.151,17.151,0,0,1,9.235,20.109ZM625.424,524.3a16.686,16.686,0,0,0,8.806,19.176A16.686,16.686,0,0,0,625.424,524.3Z" transform="translate(-624.425 -523.638)" fill="#fff"/>
        </g>
      </g>
      <g id="Group_9729" data-name="Group 9729" transform="translate(0 73.785)">
        <g id="Group_9727" data-name="Group 9727">
          <path id="Path_6578" data-name="Path 6578" d="M619.76,590.437l-.038-.273a17.151,17.151,0,0,1,11.831-18.7l.263-.084.038.273a17.152,17.152,0,0,1-11.831,18.7Zm11.669-18.445a16.686,16.686,0,0,0-11.282,17.833A16.685,16.685,0,0,0,631.429,571.991Z" transform="translate(-619.563 -571.379)" fill="#fff"/>
        </g>
        <g id="Group_9728" data-name="Group 9728" transform="translate(0.711 21.182)">
          <path id="Path_6579" data-name="Path 6579" d="M637.554,629.534a17.147,17.147,0,0,1-16.377-12.073l-.082-.263.273-.036a17.15,17.15,0,0,1,18.641,11.924l.082.263-.274.036A17.371,17.371,0,0,1,637.554,629.534ZM621.7,617.588a16.684,16.684,0,0,0,17.776,11.371A16.684,16.684,0,0,0,621.7,617.588Z" transform="translate(-621.094 -617.013)" fill="#fff"/>
        </g>
      </g>
      <g id="Group_9732" data-name="Group 9732" transform="translate(16.371 108.766)">
        <g id="Group_9730" data-name="Group 9730">
          <path id="Path_6580" data-name="Path 6580" d="M659.136,669.291l-.179-.21a17.151,17.151,0,0,1-.157-22.128l.176-.212.179.21a17.151,17.151,0,0,1,.157,22.128Zm-.156-21.825a16.687,16.687,0,0,0,.15,21.1A16.687,16.687,0,0,0,658.981,647.466Z" transform="translate(-654.832 -646.741)" fill="#fff"/>
        </g>
        <g id="Group_9731" data-name="Group 9731" transform="translate(5.985 19.968)">
          <path id="Path_6581" data-name="Path 6581" d="M678.975,698.207a17.152,17.152,0,0,1-11.038-4.023l-.211-.177.211-.178a17.151,17.151,0,0,1,22.129-.046l.211.177-.211.178A17.144,17.144,0,0,1,678.975,698.207Zm-10.524-4.2a16.686,16.686,0,0,0,21.1-.044A16.686,16.686,0,0,0,668.451,694.005Z" transform="translate(-667.726 -689.76)" fill="#fff"/>
        </g>
      </g>
      <g id="Group_9735" data-name="Group 9735" transform="translate(46.215 133.728)">
        <g id="Group_9733" data-name="Group 9733">
          <path id="Path_6582" data-name="Path 6582" d="M731.615,719.4l-.264-.08a17.151,17.151,0,0,1-12.1-18.53l.033-.273.264.079a17.151,17.151,0,0,1,12.1,18.53Zm-11.931-18.277A16.687,16.687,0,0,0,731.219,718.8,16.688,16.688,0,0,0,719.685,701.124Z" transform="translate(-719.127 -700.518)" fill="#fff"/>
        </g>
        <g id="Group_9734" data-name="Group 9734" transform="translate(14.802 6.97)">
          <path id="Path_6583" data-name="Path 6583" d="M753.48,728.114a17.372,17.372,0,0,1-2.189-.139l-.273-.035.081-.264a17.151,17.151,0,0,1,18.591-12l.274.035-.081.264A17.149,17.149,0,0,1,753.48,728.114Zm-1.854-.567A16.679,16.679,0,0,0,769.354,716.1,16.68,16.68,0,0,0,751.626,727.547Z" transform="translate(-751.017 -715.535)" fill="#fff"/>
        </g>
      </g>
    </g>
    <g id="Group_9741" data-name="Group 9741" transform="translate(645.68 446.915)">
      <g id="Group_9739" data-name="Group 9739" transform="translate(0)">
        <g id="Group_9737" data-name="Group 9737">
          <path id="Path_6584" data-name="Path 6584" d="M706.229,569.946l1.449,3.637-.286.39a3.478,3.478,0,0,1-3.416-.21,4.052,4.052,0,0,1-2.394,2.772,5.893,5.893,0,0,1-4.533-.315c-.12,1.012-.159,1.331-.036,1.64l3.637,9.4-2.9,1.156-3.8-9.257c-.436-1.094-.277-2.149.053-3.877l.661-4.01c.508-2.874,1.047-4.218,2.9-4.957,1.9-.758,3.4-.114,5.812,2.836.869,1,1.353,1.114,2.376.707Zm-4.588,1.69a2.234,2.234,0,0,0-.261-.31c-1.039-1.294-1.708-1.66-2.611-1.3-.761.3-1.109,1.02-1.282,2.521l-.043.237a3.654,3.654,0,0,0,2.946.2A2.084,2.084,0,0,0,701.64,571.636Z" transform="translate(-693.685 -539.734)" fill="#fff"/>
          <path id="Path_6585" data-name="Path 6585" d="M727.866,552.528l1.449,3.637-.285.389c-2,.8-3.532,1.022-5.075.4-.705,1.273-2.08,2.454-4.885,3.572l-.475-.086-1.449-3.637.286-.389a14.326,14.326,0,0,0,3.314-1.707l-4.576-3.6-.69-2.975a79.573,79.573,0,0,1,6.663-7.2l1.93,3.115c-1.86,1.76-3.4,3.364-4.906,5.039l4.186,3.318c1.173.938,1.948.877,4.04.044Z" transform="translate(-705.363 -526.285)" fill="#fff"/>
          <path id="Path_6586" data-name="Path 6586" d="M734.494,540.022l.889-.6a1.935,1.935,0,0,1-1.276-1.2,2.1,2.1,0,0,1,1.116-2.731,2.043,2.043,0,0,1,2.247.592l-.562.8a1.164,1.164,0,0,0-.993-.072c-.546.218-.761.578-.6.982q.34.856,2.151.217l.866-.593.754,1.27-3.871,2.451Zm8.213,6.094c1.354,3.4.073,5.922-3.778,7.456l-.475-.087L737,549.848l.286-.389c1.735-.691,2.753-1.593,2.545-2.116a11.309,11.309,0,0,0-3.037-3.611l2.365-2.568A14.193,14.193,0,0,1,742.706,546.116Z" transform="translate(-715.261 -523.302)" fill="#fff"/>
          <path id="Path_6587" data-name="Path 6587" d="M753.326,543.973l-5.139-12.414,3.3-1.317,4.105,10.65c.44,1.174,1.039,1.156,2.394.616l.475.086,1.449,3.637-.285.389C756.658,546.805,754.283,546.236,753.326,543.973Z" transform="translate(-722.889 -520.56)" fill="#fff"/>
          <path id="Path_6588" data-name="Path 6588" d="M770.142,556l-1.449-3.637.286-.39,5.515-2.2.475.086,1.449,3.637-.285.389-5.515,2.2Z" transform="translate(-733.876 -531.029)" fill="#fff"/>
          <path id="Path_6589" data-name="Path 6589" d="M791.621,528.385l1.449,3.637-.285.389a4.244,4.244,0,0,1-3.526,0,11.741,11.741,0,0,1-5.08,3.429l-5.4,2.151-.475-.087-1.449-3.637.285-.389,1.783-.71-5.287-11.749,3.3-1.316,3.11,8.567c.574-2.433,1.726-4.1,3.176-4.681,2.52-1,5.417.6,6.647,3.687a5.128,5.128,0,0,1,.27.884,3.825,3.825,0,0,0,1-.259Zm-4.838.027a1.658,1.658,0,0,0-2.175-.759c-1.26.5-2.17,2.021-2.591,4.283l1-.4C785.988,530.354,787.162,529.363,786.784,528.412Z" transform="translate(-736.527 -515.127)" fill="#fff"/>
          <path id="Path_6590" data-name="Path 6590" d="M823.631,521.9l1.449,3.637-.285.39a10.23,10.23,0,0,1-6.668.618,11.2,11.2,0,0,1-5.575,4.26l-.476-.086-1.449-3.637.286-.389a33.157,33.157,0,0,0,3.49-1.611,16.826,16.826,0,0,0-3.267-1.15l-.6-2.9a9.163,9.163,0,0,1,4.181-3.263c3-1.193,5.29-.758,6.067,1.192.417,1.046.22,2.281-.538,3.905.813-.241,1.7-.568,2.914-1.051Zm-7.7-1.065a3.857,3.857,0,0,0-1.76,1.252,21.672,21.672,0,0,1,2.992,1.149,5.117,5.117,0,0,0,.892-2.394C817.888,520.419,816.932,520.442,815.934,520.84Z" transform="translate(-756.294 -513.525)" fill="#fff"/>
          <path id="Path_6591" data-name="Path 6591" d="M838.324,521.705l-1.449-3.637.286-.389c1.735-.691,2.753-1.594,2.545-2.117a11.309,11.309,0,0,0-3.037-3.61l2.365-2.568a14.176,14.176,0,0,1,3.543,4.952c1.354,3.4.073,5.921-3.778,7.455Zm3.018,3.288,1.3-2.969,2.982,1.264-1.286,2.992Z" transform="translate(-770.3 -509.384)" fill="#fff"/>
        </g>
        <path id="Path_18507" data-name="Path 18507" d="M7.559,11.859l-.231-.144a1.086,1.086,0,0,1-.671-.173,1.141,1.141,0,0,1-.339-.649A9.777,9.777,0,0,0,5.7,8.973a2.5,2.5,0,0,0-.75-.988,1.7,1.7,0,0,0-1.01-.3,1.76,1.76,0,0,0-.894.216,2.233,2.233,0,0,0-.671.613,10.646,10.646,0,0,0-.7,1.118L.231,12.2a1.917,1.917,0,0,0-.18.411,1.469,1.469,0,0,0-.05.4l.087,5.655h1L1.1,13.027a.519.519,0,0,1,.058-.26l.491-.938a3.5,3.5,0,0,0,1.1.959,2.567,2.567,0,0,0,1.241.339,2.083,2.083,0,0,0,1-.252,2.22,2.22,0,0,0,.8-.757,1.76,1.76,0,0,0,.628.678,1.782,1.782,0,0,0,.916.216l.231-.144Zm-2.741-.231a1.414,1.414,0,0,1-.75.2,2.059,2.059,0,0,1-1.01-.281,2.556,2.556,0,0,1-.851-.772l.346-.664a2.738,2.738,0,0,1,.628-.873,1.079,1.079,0,0,1,.7-.252,1.017,1.017,0,0,1,.613.173,1.41,1.41,0,0,1,.418.563,7.628,7.628,0,0,1,.382,1.125l.043.173A1.35,1.35,0,0,1,4.818,11.628Zm7.5.231-.231-.144q-1.717,0-1.717-.894,0-.231.188-1.731l-.981-.115q-.1.88-.289,1.8a.977.977,0,0,1-.563.714,3.352,3.352,0,0,1-1.4.224l-.231.144v1.01l.231.144a4.36,4.36,0,0,0,1.565-.252,1.845,1.845,0,0,0,.945-.714,2.384,2.384,0,0,0,2.251.967l.231-.144Zm-1.789,4.155.981-1-.981-1-.822.837-.822-.837-.981,1,.981,1,.822-.837Zm6.55-4.155-.231-.144q-1.717,0-1.717-.894,0-.231.188-1.731l-.981-.115q-.1.88-.289,1.8a.977.977,0,0,1-.563.714,3.352,3.352,0,0,1-1.4.224l-.231.144v1.01l.231.144a4.36,4.36,0,0,0,1.565-.252,1.845,1.845,0,0,0,.945-.714,2.384,2.384,0,0,0,2.251.967l.231-.144ZM15.71,7.906l.981-1-.981-1-.822.837-.822-.837-.981,1,.981,1,.822-.837Zm.909,4.963.231.144a4.213,4.213,0,0,0,2.481-.591,2.12,2.12,0,0,0,.808-1.832,6.738,6.738,0,0,0-.252-1.637,7.448,7.448,0,0,0-.6-1.623l-1.039.577a8.43,8.43,0,0,1,.628,1.558,5.143,5.143,0,0,1,.252,1.4q0,.346-.649.6a4.535,4.535,0,0,1-1.63.252l-.231.144Zm2.64,3.145.981-1-.981-1-.822.837-.822-.837-.981,1,.981,1,.822-.837Zm17.153-4.155-.231-.144q-1.717,0-1.717-.894,0-.231.188-1.731l-.981-.115q-.159,1.111-.26,1.659a1.186,1.186,0,0,1-.382.75A2.118,2.118,0,0,1,32,11.671q-.75.072-2.568.072a11.1,11.1,0,0,1-2.265-.18,2.171,2.171,0,0,1-1.183-.584,1.608,1.608,0,0,1-.361-1.111,5.76,5.76,0,0,1,.332-1.8l-.793-.231a9.1,9.1,0,0,0-.483,1.4,5.106,5.106,0,0,0-.18,1.241,2.119,2.119,0,0,0,1.161,2.02,8.476,8.476,0,0,0,3.773.62,15.18,15.18,0,0,0,3.181-.238,1.868,1.868,0,0,0,1.32-.844,2.35,2.35,0,0,0,2.251.981l.231-.144ZM28.449,15l.981,1,.981-1-.981-1ZM40.87,11.859l-.231-.144a3.623,3.623,0,0,1-1.132-.144,1.034,1.034,0,0,1-.6-.447l.058-7.848h-1.14l.043,7.7q0,.346-.447.541a3.187,3.187,0,0,1-1.241.195l-.231.144v1.01l.231.144a3.212,3.212,0,0,0,1.313-.274,1.99,1.99,0,0,0,.894-.692,2.4,2.4,0,0,0,2.251.967l.231-.144Zm4.155-4.826A1.868,1.868,0,0,0,43.236,5.8a1.712,1.712,0,0,0-1.06.368,2.521,2.521,0,0,0-.765.988A3.21,3.21,0,0,0,41.13,8.5a2.015,2.015,0,0,0,.527,1.457,1.916,1.916,0,0,0,1.45.548,2.706,2.706,0,0,0,.786-.115,2.138,2.138,0,0,0,.656-.317v1.024a.436.436,0,0,1-.267.418,3.038,3.038,0,0,1-1.031.166q-.765.036-2.611.036l-.231.144v1.01l.231.144a26.53,26.53,0,0,0,3.26-.137,1.938,1.938,0,0,0,1.327-.613,2.744,2.744,0,0,0,.361-1.616A9.041,9.041,0,0,0,45.025,7.033Zm-1.1,2.222a3.22,3.22,0,0,1-.721.079q-1.1,0-1.1-.938a1.43,1.43,0,0,1,.3-.916.936.936,0,0,1,.765-.382q1.082,0,1.313,1.933A1.7,1.7,0,0,1,43.929,9.255Zm.144-4.321.981-1-.981-1-.822.837-.822-.837-.981,1,.981,1,.822-.837Zm13.373,6.925-.231-.144a1.086,1.086,0,0,1-.671-.173,1.141,1.141,0,0,1-.339-.649,9.777,9.777,0,0,0-.62-1.919,2.5,2.5,0,0,0-.75-.988,1.7,1.7,0,0,0-1.01-.3,1.76,1.76,0,0,0-.894.216,2.233,2.233,0,0,0-.671.613,10.647,10.647,0,0,0-.7,1.118L50.118,12.2a1.916,1.916,0,0,0-.18.411,1.468,1.468,0,0,0-.05.4l.087,5.655h1l.014-5.641a.519.519,0,0,1,.058-.26l.491-.938a3.5,3.5,0,0,0,1.1.959,2.567,2.567,0,0,0,1.241.339,2.083,2.083,0,0,0,1-.252,2.22,2.22,0,0,0,.8-.757,1.76,1.76,0,0,0,.628.678,1.782,1.782,0,0,0,.916.216l.231-.144Zm-2.741-.231a1.414,1.414,0,0,1-.75.2,2.059,2.059,0,0,1-1.01-.281,2.556,2.556,0,0,1-.851-.772l.346-.664a2.738,2.738,0,0,1,.628-.873,1.079,1.079,0,0,1,.7-.252,1.017,1.017,0,0,1,.613.173,1.41,1.41,0,0,1,.418.563,7.627,7.627,0,0,1,.382,1.125l.043.173A1.35,1.35,0,0,1,54.705,11.628Zm2.279,1.241.231.144a4.213,4.213,0,0,0,2.481-.591,2.12,2.12,0,0,0,.808-1.832,6.738,6.738,0,0,0-.252-1.637,7.449,7.449,0,0,0-.6-1.623l-1.039.577a8.43,8.43,0,0,1,.628,1.558,5.143,5.143,0,0,1,.252,1.4q0,.346-.649.6a4.535,4.535,0,0,1-1.63.252l-.231.144Zm2.943-6.694.981-1-.981-1-.822.837-.822-.837-.981,1,.981,1,.822-.837ZM68.9,11.859l-.231-.144a1.872,1.872,0,0,1-.916-.173,1.31,1.31,0,0,1-.5-.649q-.736-1.76-1.486-3.852l-1.082.519q.62,1.673.945,2.5a14.163,14.163,0,0,0,.613,1.371,3.3,3.3,0,0,1-.959.289,8.06,8.06,0,0,1-1.334.1,9.666,9.666,0,0,1-1.673-.144l.144,1.342q.289.043.729.072t.8.029a7.854,7.854,0,0,0,1.875-.18,2.045,2.045,0,0,0,1.053-.57,2.24,2.24,0,0,0,.772.491,2.915,2.915,0,0,0,1.017.159l.231-.144Zm7.2,0-.231-.144q-.75,0-1.3-.05a6.32,6.32,0,0,1-1.039-.18q1.558-1.241,1.558-2.251a1.372,1.372,0,0,0-.75-1.2,3.58,3.58,0,0,0-1.9-.462,4.407,4.407,0,0,0-1.443.238,3.8,3.8,0,0,0-1.212.671l-.188,1.154a12.871,12.871,0,0,1,1.818,1.76,10.221,10.221,0,0,1-2.741.317l-.231.144v1.01l.231.144a8.152,8.152,0,0,0,3.708-.736,4.412,4.412,0,0,0,1.457.57,10.37,10.37,0,0,0,2.034.166l.231-.144Zm-3.592-.837a19.628,19.628,0,0,0-1.832-1.789,2.772,2.772,0,0,1,.779-.325,3.808,3.808,0,0,1,.981-.123,3.651,3.651,0,0,1,1.183.173q.5.173.5.418a3.978,3.978,0,0,1-.649.83A4.432,4.432,0,0,1,72.508,11.022ZM85.2,8.923a6.812,6.812,0,0,0-.6-1.594l-1.053.491a8.474,8.474,0,0,1,.635,1.594,5.41,5.41,0,0,1,.26,1.45.736.736,0,0,1-.382.606,1.591,1.591,0,0,1-.916.26,1.205,1.205,0,0,1-.8-.26.813.813,0,0,1-.31-.649q0-.231.188-1.731l-.981-.115a16.549,16.549,0,0,1-.289,1.8,1.218,1.218,0,0,1-.418.721,1.352,1.352,0,0,1-.837.231,1.368,1.368,0,0,1-1.226-.649,12.012,12.012,0,0,0,.289-1.226l-.938-.188a5.875,5.875,0,0,1-.418,1.356,1.088,1.088,0,0,1-.541.548,3,3,0,0,1-.988.144l-.231.144v1.01l.231.144a4.165,4.165,0,0,0,1.327-.195A1.664,1.664,0,0,0,78,12.176a1.637,1.637,0,0,0,.671.62,2.119,2.119,0,0,0,.974.216,2.347,2.347,0,0,0,.981-.216,1.978,1.978,0,0,0,.75-.563,2.014,2.014,0,0,0,.729.563,2.113,2.113,0,0,0,.916.216,2.282,2.282,0,0,0,2.424-2.424A6.811,6.811,0,0,0,85.2,8.923Zm1.839-5.648.072,9.738h1l.072-9.738Zm1.659-1.053-.115-.649-.447.1a1.943,1.943,0,0,1-.844-.166.467.467,0,0,1-.281-.426.358.358,0,0,1,.151-.31.668.668,0,0,1,.4-.108.621.621,0,0,1,.267.065.663.663,0,0,1,.224.166l.361-.231A.97.97,0,0,0,86.761.325a1.093,1.093,0,0,0-.3.772.962.962,0,0,0,.13.5.859.859,0,0,0,.361.332l-.62.144.115.548Z" transform="matrix(0.927, -0.375, 0.375, 0.927, 0.832, 49.209)" fill="#fff"/>
      </g>
      <g id="Group_9740" data-name="Group 9740" transform="translate(33.356 51.326)">
        <path id="Path_6608" data-name="Path 6608" d="M772.13,648.71l.3.76-4.146,1.652-2.742-6.884,4.022-1.6.3.761-3.147,1.254.905,2.272,2.957-1.178.3.761-2.957,1.178.928,2.329Z" transform="translate(-765.545 -632.11)" fill="#fff"/>
        <path id="Path_6609" data-name="Path 6609" d="M782.826,646.392l-1.269-3.186c-.269-.675-.664-.947-1.33-.681a2.655,2.655,0,0,0-1.191,1.158l1.451,3.641-.865.345-2.86-7.178.855-.341,1.133,2.842a2.98,2.98,0,0,1,1.459-1.341c1.037-.413,1.72-.024,2.16,1.079l1.321,3.318Z" transform="translate(-771.555 -630.777)" fill="#fff"/>
        <path id="Path_6610" data-name="Path 6610" d="M794.785,639.952l-.711.481c-.338-.515-.665-.782-1.377-.5s-.816.688-.669,1.059c.2.5.657.487,1.4.358.97-.167,1.888-.323,2.324.771.371.932-.132,1.771-1.321,2.244a1.8,1.8,0,0,1-2.513-.64l.687-.516a1.148,1.148,0,0,0,1.592.456c.589-.235.946-.586.737-1.108-.216-.542-.653-.478-1.372-.346-.862.156-1.891.367-2.345-.773-.394-.989.23-1.8,1.219-2.194A1.687,1.687,0,0,1,794.785,639.952Z" transform="translate(-779.235 -630.185)" fill="#fff"/>
        <path id="Path_6611" data-name="Path 6611" d="M806.47,638.757a1.056,1.056,0,0,0,.272-.174l.254.527a1.69,1.69,0,0,1-.614.421.724.724,0,0,1-.982-.281,2.267,2.267,0,0,1-1.331,1.224,1.355,1.355,0,0,1-1.968-.736c-.519-1.3.487-2.122,1.866-2.672.152-.06.3-.107.435-.151l-.189-.475c-.246-.618-.569-.93-1.367-.612a.951.951,0,0,0-.714,1.221l-.817.16c-.212-.973.207-1.637,1.339-2.087,1.207-.481,1.935-.231,2.42.986l.95,2.386C806.13,638.76,806.224,638.855,806.47,638.757Zm-2.313-1.05c-.675.269-1.552.7-1.218,1.532a.748.748,0,0,0,1.128.454,1.951,1.951,0,0,0,1.035-1.051l-.439-1.1A4.027,4.027,0,0,0,804.157,637.706Z" transform="translate(-784.683 -627.96)" fill="#fff"/>
        <path id="Path_6612" data-name="Path 6612" d="M816.729,634.852l-1.269-3.186c-.269-.675-.663-.947-1.329-.681a2.653,2.653,0,0,0-1.191,1.158l1.451,3.641-.865.344-1.947-4.887.761-.3.279.561a3.082,3.082,0,0,1,1.487-1.386c1.045-.417,1.729-.028,2.168,1.075l1.322,3.319Z" transform="translate(-790.211 -625.312)" fill="#fff"/>
        <path id="Path_6613" data-name="Path 6613" d="M827.328,636.942a.686.686,0,1,1,.393-.895A.614.614,0,0,1,827.328,636.942Z" transform="translate(-798.131 -628.338)" fill="#fff"/>
        <path id="Path_6614" data-name="Path 6614" d="M832.263,625.019l-.711.482c-.337-.516-.664-.782-1.377-.5s-.816.689-.668,1.059c.2.5.657.488,1.4.358.97-.166,1.887-.323,2.324.771.37.932-.132,1.771-1.32,2.244a1.8,1.8,0,0,1-2.513-.64l.686-.516a1.15,1.15,0,0,0,1.593.456c.589-.235.945-.586.737-1.109-.216-.542-.653-.479-1.372-.346-.863.156-1.891.368-2.346-.773-.394-.988.23-1.8,1.219-2.193A1.687,1.687,0,0,1,832.263,625.019Z" transform="translate(-799.317 -622.184)" fill="#fff"/>
        <path id="Path_6615" data-name="Path 6615" d="M843.949,623.824a1.058,1.058,0,0,0,.272-.174l.254.527a1.691,1.691,0,0,1-.615.421.724.724,0,0,1-.982-.281,2.264,2.264,0,0,1-1.331,1.224,1.355,1.355,0,0,1-1.968-.736c-.519-1.3.487-2.122,1.866-2.671.152-.061.3-.108.435-.152l-.189-.475c-.246-.618-.569-.93-1.367-.611a.95.95,0,0,0-.714,1.22l-.818.16c-.212-.973.208-1.636,1.339-2.087,1.208-.481,1.935-.231,2.42.986l.951,2.387C843.609,623.827,843.7,623.922,843.949,623.824Zm-2.312-1.05c-.675.269-1.552.7-1.219,1.532a.748.748,0,0,0,1.127.454,1.954,1.954,0,0,0,1.036-1.052l-.439-1.1A4.035,4.035,0,0,0,841.636,622.773Z" transform="translate(-804.765 -619.959)" fill="#fff"/>
      </g>
    </g>
    <g id="Group_9742" data-name="Group 9742" transform="translate(626.984 543.927)">
      <path id="Path_6616" data-name="Path 6616" d="M684.994,737.845a.224.224,0,0,1-.077-.013,87.94,87.94,0,0,1-31.438-19.046.232.232,0,0,1,.318-.338,87.49,87.49,0,0,0,31.274,18.946.232.232,0,0,1-.077.451Z" transform="translate(-653.406 -718.385)" fill="#0d8f75"/>
    </g>
    <g id="Group_9743" data-name="Group 9743" transform="translate(700.725 392.8)">
      <path id="Path_6617" data-name="Path 6617" d="M857.727,414.594a.231.231,0,0,1-.154-.059,87.879,87.879,0,0,0-45.1-21.274.232.232,0,0,1,.071-.459,88.342,88.342,0,0,1,45.341,21.387.232.232,0,0,1-.155.405Z" transform="translate(-812.272 -392.8)" fill="#0d8f75"/>
    </g>
  </g>
</svg>
