<?xml version="1.0" encoding="UTF-8"?>
<svg xmlns="http://www.w3.org/2000/svg" xmlns:xlink="http://www.w3.org/1999/xlink" width="40px" height="40px" viewBox="0 0 40 40" version="1.1">
<g id="surface1">
<path style="fill-rule:nonzero;fill:rgb(79.215686%,61.960784%,40%);fill-opacity:1;stroke-width:1;stroke-linecap:butt;stroke-linejoin:miter;stroke:rgb(79.215686%,61.960784%,40%);stroke-opacity:1;stroke-miterlimit:4;" d="M 389.2 428.85 C 386.45 428.85 384.2 431.05 384.2 433.85 C 384.2 436.6 386.45 438.85 389.2 438.85 C 392 438.85 394.2 436.6 394.2 433.85 C 394.2 431.05 392 428.85 389.2 428.85 Z M 389.2 428.85 " transform="matrix(0.078125,0,0,0.078125,0,0)"/>
<path style="fill-rule:nonzero;fill:rgb(79.215686%,61.960784%,40%);fill-opacity:1;stroke-width:1;stroke-linecap:butt;stroke-linejoin:miter;stroke:rgb(79.215686%,61.960784%,40%);stroke-opacity:1;stroke-miterlimit:4;" d="M 255 340.4 C 252.25 340.4 250 342.65 250 345.4 C 250 348.2 252.25 350.4 255 350.4 C 257.75 350.4 260 348.2 260 345.4 C 260 342.65 257.75 340.4 255 340.4 Z M 255 340.4 " transform="matrix(0.078125,0,0,0.078125,0,0)"/>
<path style="fill-rule:nonzero;fill:rgb(79.215686%,61.960784%,40%);fill-opacity:1;stroke-width:1;stroke-linecap:butt;stroke-linejoin:miter;stroke:rgb(79.215686%,61.960784%,40%);stroke-opacity:1;stroke-miterlimit:4;" d="M 255 262 C 252.25 262 250 264.25 250 267 C 250 269.75 252.25 272 255 272 C 257.75 272 260 269.75 260 267 C 260 264.25 257.75 262 255 262 Z M 255 262 " transform="matrix(0.078125,0,0,0.078125,0,0)"/>
<path style="fill-rule:nonzero;fill:rgb(79.215686%,61.960784%,40%);fill-opacity:1;stroke-width:1;stroke-linecap:butt;stroke-linejoin:miter;stroke:rgb(79.215686%,61.960784%,40%);stroke-opacity:1;stroke-miterlimit:4;" d="M 122.8 438.85 C 125.55 438.85 127.8 436.6 127.8 433.85 C 127.8 431.05 125.55 428.85 122.8 428.85 C 120 428.85 117.8 431.05 117.8 433.85 C 117.8 436.6 120 438.85 122.8 438.85 Z M 122.8 438.85 " transform="matrix(0.078125,0,0,0.078125,0,0)"/>
<path style="fill-rule:nonzero;fill:rgb(79.215686%,61.960784%,40%);fill-opacity:1;stroke-width:1;stroke-linecap:butt;stroke-linejoin:miter;stroke:rgb(79.215686%,61.960784%,40%);stroke-opacity:1;stroke-miterlimit:4;" d="M 260 423.85 C 260 426.6 257.75 428.85 255 428.85 C 252.25 428.85 250 426.6 250 423.85 C 250 421.05 252.25 418.85 255 418.85 C 257.75 418.85 260 421.05 260 423.85 Z M 260 423.85 " transform="matrix(0.078125,0,0,0.078125,0,0)"/>
<path style="fill-rule:nonzero;fill:rgb(79.215686%,61.960784%,40%);fill-opacity:1;stroke-width:1;stroke-linecap:butt;stroke-linejoin:miter;stroke:rgb(79.215686%,61.960784%,40%);stroke-opacity:1;stroke-miterlimit:4;" d="M 249.75 188.55 C 249.75 191.35 252 193.6 254.75 193.6 C 257.5 193.6 259.75 191.35 259.75 188.55 C 259.75 185.8 257.5 183.55 254.75 183.55 C 252 183.55 249.75 185.8 249.75 188.55 Z M 249.75 188.55 " transform="matrix(0.078125,0,0,0.078125,0,0)"/>
<path style="fill-rule:nonzero;fill:rgb(79.215686%,61.960784%,40%);fill-opacity:1;stroke-width:1;stroke-linecap:butt;stroke-linejoin:miter;stroke:rgb(79.215686%,61.960784%,40%);stroke-opacity:1;stroke-miterlimit:4;" d="M 121.9 151.95 C 122.2 152 122.45 152.05 122.7 152.05 C 124.25 152.05 125.7 150.95 126.05 149.35 L 126.35 148 C 126.8 146.15 125.65 144.3 123.8 143.9 C 121.95 143.45 120.05 144.6 119.65 146.45 L 119.35 147.8 C 118.9 149.7 120.05 151.55 121.9 151.95 Z M 121.9 151.95 " transform="matrix(0.078125,0,0,0.078125,0,0)"/>
<path style="fill-rule:nonzero;fill:rgb(79.215686%,61.960784%,40%);fill-opacity:1;stroke-width:1;stroke-linecap:butt;stroke-linejoin:miter;stroke:rgb(79.215686%,61.960784%,40%);stroke-opacity:1;stroke-miterlimit:4;" d="M 431.2 417.6 C 416.85 216.05 379.1 95.35 378.7 94.15 C 378.65 94 378.6 93.85 378.55 93.7 C 366.2 67.8 322.5 50.65 316.55 48.4 L 310.15 42.9 L 290.15 25.7 C 290.1 25.65 290.05 25.65 290.05 25.6 C 289.85 25.5 289.7 25.35 289.5 25.25 C 289.45 25.25 289.4 25.2 289.3 25.15 C 289.05 25.05 288.8 24.95 288.55 24.9 C 288.5 24.9 288.45 24.9 288.4 24.9 C 288.25 24.9 288.05 24.85 287.9 24.85 L 224.1 24.85 C 223.95 24.85 223.75 24.9 223.6 24.9 C 223.55 24.9 223.5 24.9 223.45 24.9 C 223.2 24.95 222.95 25.05 222.7 25.15 C 222.6 25.2 222.55 25.25 222.5 25.25 C 222.3 25.35 222.15 25.5 222 25.6 C 221.95 25.65 221.9 25.65 221.85 25.7 L 201.85 42.9 L 195.45 48.4 C 189.5 50.65 145.8 67.8 133.45 93.7 C 133.4 93.85 133.35 94 133.3 94.15 C 133.25 94.25 129.7 105.55 124.4 126.55 C 123.95 128.4 125.1 130.3 126.95 130.75 C 127.2 130.8 127.5 130.85 127.75 130.85 C 129.3 130.85 130.7 129.8 131.1 128.25 C 135.9 109.1 139.25 98.15 139.8 96.45 C 151.7 71.9 197.95 54.85 198.4 54.7 C 198.55 54.6 198.7 54.55 198.85 54.45 C 194.6 83.15 200.45 112.65 200.7 114 C 200.95 115.25 201.85 116.25 203.05 116.6 C 203.4 116.7 203.75 116.8 204.1 116.8 C 204.95 116.8 205.8 116.45 206.45 115.9 C 209.05 113.5 211.95 111.3 215.15 109.25 C 215.85 110.4 216.45 111.4 216.75 111.95 C 232.4 138.3 240.65 168.8 240.65 200.15 L 240.65 479.9 C 175.1 476.95 151.2 455.4 147.8 451.95 C 145.9 444.6 144.3 421.2 146.8 352.75 L 159.8 129.9 L 159.8 129.6 C 159.95 127.7 158.5 126.05 156.6 125.95 C 154.7 125.85 153.05 127.25 152.95 129.15 L 152.9 129.45 C 152.9 129.45 152.9 129.5 152.9 129.5 C 152.7 132.6 143.45 257.75 139.9 352.4 L 136.3 414.4 L 87.95 414.4 C 95.95 305.1 110.7 220.7 121.7 168.95 C 122.1 167.1 120.9 165.25 119.05 164.85 C 117.2 164.45 115.35 165.65 114.95 167.55 C 103.75 220.05 88.75 306.1 80.8 417.6 C 80.05 428.4 79.35 439.35 78.75 450.15 C 78.7 451.1 79 452 79.65 452.7 C 80.3 453.4 81.2 453.8 82.1 453.8 L 125.6 454.45 C 125.7 454.45 125.75 454.45 125.85 454.45 C 131.9 454.45 137.15 451.1 139.85 446.05 C 140.3 449.8 140.8 452.7 141.4 454.7 C 141.55 455.15 141.75 455.55 142.05 455.9 C 143 457.05 166.6 484.35 243.95 486.95 C 244 486.95 244 486.95 244 486.95 C 244.05 486.95 244.1 486.95 244.1 486.95 L 244.2 486.95 C 245 487 245.75 487 246.55 487 C 247 487.05 247.45 487.05 247.9 487.05 L 247.95 487.05 C 247.95 487.05 248 487.05 248 487.05 C 249.4 487.1 250.85 487.1 252.25 487.15 C 252.3 487.15 252.3 487.15 252.3 487.15 C 252.85 487.15 253.45 487.15 254 487.15 C 254.65 487.15 255.35 487.15 256 487.15 C 257 487.15 257.95 487.15 258.95 487.15 C 258.95 487.15 259 487.15 259 487.15 L 261.1 487.1 C 262.8 487.1 264.45 487.05 266.1 487 L 268.15 486.95 C 282.75 486.45 296.5 485 308.95 482.7 C 310.85 482.35 312.1 480.55 311.75 478.65 C 311.4 476.8 309.6 475.55 307.7 475.9 C 296.6 478 284.4 479.3 271.45 479.9 L 271.45 200.15 C 271.45 168.8 279.75 138.3 295.4 111.9 C 295.7 111.4 296.3 110.45 296.95 109.3 C 300.1 111.3 302.95 113.5 305.55 115.9 C 306.2 116.45 307.05 116.8 307.9 116.8 C 308.25 116.8 308.6 116.7 308.95 116.6 C 310.15 116.25 311.05 115.25 311.3 114 C 311.55 112.65 317.45 83.15 313.15 54.45 C 313.3 54.55 313.45 54.6 313.6 54.7 C 314.05 54.85 360.3 71.9 372.2 96.45 C 374.05 102.4 409.85 220 424.05 414.4 L 375.7 414.4 L 372.1 352.4 C 368.55 257.25 359.2 131.2 359.1 129.45 C 359.05 129.2 359.05 129.05 359.05 129.05 C 358.85 127.15 357.2 125.8 355.3 125.95 C 353.45 126.15 352.05 127.8 352.2 129.7 L 365.2 352.75 C 367.7 421.25 366.1 444.6 364.2 451.95 C 362.75 453.45 357.7 458.1 347.6 463.2 C 345.9 464.05 345.2 466.15 346.05 467.85 C 346.65 469.05 347.9 469.75 349.15 469.75 C 349.65 469.75 350.2 469.6 350.7 469.35 C 364.35 462.5 369.75 456.15 369.95 455.9 C 370.25 455.55 370.45 455.15 370.6 454.7 C 371.2 452.7 371.7 449.8 372.15 446.05 C 374.85 451.1 380.1 454.45 386.15 454.45 C 386.25 454.45 386.35 454.45 386.4 454.45 L 429.9 453.8 C 430.8 453.8 431.7 453.4 432.35 452.7 C 433 452 433.3 451.1 433.25 450.15 C 432.65 439.35 431.95 428.4 431.2 417.6 Z M 134.85 439 C 134.6 443.85 130.65 447.55 125.85 447.55 C 125.8 447.55 125.75 447.55 125.7 447.55 L 85.85 446.95 C 86.3 438.4 86.9 429.8 87.45 421.3 L 135.9 421.3 Z M 283.8 31.75 L 280.2 52.25 L 231.8 52.25 L 228.2 31.75 Z M 279 59.15 L 272.75 95.2 C 271.45 97.2 270.2 99.25 269.35 100.7 C 264.2 109.05 259.75 117.85 256.05 126.9 C 252.35 117.8 247.95 109.05 242.8 100.65 C 242.25 99.8 241.6 98.8 240.9 97.65 C 240.4 96.75 239.8 95.85 239.25 94.9 L 233 59.15 Z M 214.55 101.5 C 211.7 103.15 209 104.95 206.5 106.85 C 204.8 95.6 202.05 69.9 207.2 47.4 L 221.75 34.9 L 225.5 56.35 C 225.5 56.4 225.5 56.4 225.5 56.4 L 232.05 93.95 C 231.9 94 231.8 94 231.65 94.05 C 231.6 94.05 231.6 94.1 231.55 94.1 C 231.45 94.1 231.35 94.15 231.2 94.2 C 229.4 94.75 227.4 95.45 225.3 96.3 C 224.95 96.45 224.6 96.55 224.2 96.75 C 220.85 98.15 217.6 99.75 214.55 101.5 Z M 262.55 480.2 C 262.05 480.2 261.55 480.2 261 480.2 L 258.9 480.25 C 257.95 480.25 257 480.25 256.05 480.25 C 255.4 480.25 254.7 480.25 254 480.25 C 253.45 480.25 252.9 480.25 252.35 480.25 C 250.95 480.2 249.55 480.2 248.15 480.15 L 248.05 480.15 C 247.9 480.15 247.75 480.15 247.55 480.15 L 247.55 200.15 C 247.55 167.55 238.95 135.85 222.7 108.4 C 222.4 107.9 221.8 106.95 221.1 105.8 C 222.95 104.85 224.9 103.95 226.95 103.1 C 227.25 102.95 227.55 102.8 227.85 102.7 C 230.3 101.75 232.15 101.1 233.3 100.75 L 233.7 100.65 C 234 100.55 234.25 100.5 234.5 100.4 C 234.7 100.7 234.9 101 235.05 101.3 C 235.75 102.4 236.4 103.5 236.95 104.3 C 243.4 114.8 248.75 126.05 252.8 137.7 C 252.8 137.75 252.8 137.75 252.8 137.75 C 259.3 156.25 262.55 175.65 262.55 195.35 Z M 289.45 108.4 C 278.6 126.7 271.15 146.9 267.4 168 C 265.8 157.35 263.2 146.85 259.75 136.65 C 263.7 125.4 268.9 114.55 275.2 104.3 C 275.85 103.25 276.7 101.85 277.6 100.45 C 279.45 100.95 281.3 101.6 283.05 102.3 L 283.1 102.3 L 283.85 102.6 C 283.95 102.6 284.05 102.65 284.15 102.7 C 284.3 102.8 284.5 102.85 284.7 102.95 C 285.1 103.1 285.5 103.3 285.9 103.45 C 285.95 103.45 286 103.45 286.05 103.5 L 286.9 103.85 C 287.15 104 287.45 104.1 287.7 104.25 L 289.5 105.1 C 289.8 105.25 290.1 105.4 290.35 105.5 C 290.55 105.65 290.8 105.75 291 105.85 C 290.3 107 289.75 107.9 289.45 108.4 Z M 305.5 106.85 C 303 104.95 300.35 103.2 297.6 101.6 C 297.6 101.6 297.55 101.6 297.55 101.55 L 296.55 101 C 296.2 100.8 295.8 100.6 295.5 100.45 C 295.5 100.45 295.5 100.4 295.5 100.4 C 295.5 100.4 295.5 100.4 295.45 100.4 C 294.8 100.05 294.15 99.7 293.5 99.4 C 293.15 99.2 292.8 99.05 292.5 98.9 L 291.55 98.45 C 291.35 98.3 291.1 98.2 290.85 98.1 L 290.6 98 C 290.3 97.85 289.95 97.7 289.65 97.55 L 288.75 97.15 C 288.25 96.95 287.8 96.75 287.3 96.55 C 287.25 96.5 287.2 96.5 287.2 96.5 C 287.05 96.45 286.95 96.4 286.7 96.3 C 286.45 96.2 286.15 96.05 285.85 95.95 L 285.65 95.9 L 285.55 95.85 C 283.7 95.15 281.85 94.5 279.95 93.95 L 290.25 34.9 L 304.8 47.4 C 309.95 69.85 307.15 95.6 305.5 106.85 Z M 386.3 447.55 C 381.45 447.6 377.4 443.9 377.15 439.05 L 376.1 421.3 L 424.55 421.3 C 425.1 429.8 425.7 438.4 426.15 446.95 Z M 386.3 447.55 " transform="matrix(0.078125,0,0,0.078125,0,0)"/>
<path style="fill-rule:nonzero;fill:rgb(79.215686%,61.960784%,40%);fill-opacity:1;stroke-width:1;stroke-linecap:butt;stroke-linejoin:miter;stroke:rgb(79.215686%,61.960784%,40%);stroke-opacity:1;stroke-miterlimit:4;" d="M 328 470.95 L 327.15 471.2 C 325.3 471.75 324.25 473.7 324.8 475.5 C 325.25 477 326.65 477.95 328.1 477.95 C 328.45 477.95 328.8 477.9 329.1 477.8 L 330.05 477.55 C 331.85 476.95 332.9 475.05 332.35 473.2 C 331.75 471.4 329.85 470.4 328 470.95 Z M 328 470.95 " transform="matrix(0.078125,0,0,0.078125,0,0)"/>
</g>
</svg>
