<?xml version="1.0" encoding="UTF-8"?>
<svg xmlns="http://www.w3.org/2000/svg" xmlns:xlink="http://www.w3.org/1999/xlink" width="40px" height="40px" viewBox="0 0 40 40" version="1.1">
<g id="surface1">
<path style=" stroke:none;fill-rule:nonzero;fill:rgb(81.568627%,81.176471%,80.784314%);fill-opacity:1;" d="M 15.234375 11.898438 C 15.234375 11.898438 15.929688 13.132812 17.179688 13.996094 C 18.429688 14.859375 22.917969 15.417969 22.917969 15.417969 L 28.035156 14.140625 C 28.035156 14.140625 31.40625 14.941406 32.199219 15.859375 C 32.992188 16.773438 36.617188 19.652344 32.199219 24.363281 L 32.332031 28.007812 L 32.046875 34.054688 C 32.046875 34.054688 31.480469 34.730469 31.253906 34.730469 C 31.027344 34.730469 29.6875 34.054688 29.6875 34.054688 L 29.863281 30.832031 L 29.632812 29.027344 L 28.152344 26.109375 L 26.902344 25.132812 C 26.902344 25.132812 24.863281 25.894531 24.492188 25.878906 C 24.125 25.867188 20.046875 26.109375 20.046875 26.109375 C 20.046875 26.109375 18.246094 26.066406 17.667969 25.625 L 16.101562 33.398438 L 15.15625 33.925781 L 13.761719 33.328125 L 14.167969 26.574219 L 13.761719 25.132812 C 12.140625 25.140625 11.117188 24.203125 10.464844 22.683594 L 8.609375 18.761719 L 8.011719 15.871094 L 4.585938 14.878906 L 3.664062 12.824219 L 6.164062 11.238281 L 7.074219 10.246094 L 8.847656 8.695312 C 8.847656 8.695312 10.539062 6.390625 12.261719 7.429688 C 13.984375 8.472656 15.132812 9.730469 15.132812 9.730469 Z M 15.234375 11.898438 "/>
<path style=" stroke:none;fill-rule:nonzero;fill:rgb(64.705882%,47.45098%,22.352941%);fill-opacity:1;" d="M 8.382812 9.429688 C 8.382812 9.429688 8.351562 10.972656 10.746094 10.660156 L 11.785156 10.066406 L 12.421875 10.386719 L 12.421875 11.457031 L 11.6875 12.386719 L 10.1875 12.015625 L 8.921875 12 L 8.730469 12.660156 L 9.195312 13.609375 L 10.046875 14.617188 L 11.578125 14.617188 L 13.535156 14.171875 L 14.984375 12.488281 L 15.328125 10.9375 L 15.046875 9.203125 L 13.902344 7.984375 L 12.03125 7.351562 L 10.242188 7.535156 Z M 8.382812 9.429688 "/>
<path style=" stroke:none;fill-rule:nonzero;fill:rgb(100%,100%,100%);fill-opacity:1;" d="M 13.035156 14.617188 C 13.035156 14.617188 12.519531 17.214844 8.609375 17.910156 L 9.980469 21.492188 C 9.980469 21.492188 10.65625 24.300781 11.160156 24.363281 C 11.664062 24.425781 13.878906 25.375 13.878906 25.375 C 13.878906 25.375 15.984375 23.980469 17.945312 24.976562 L 17.683594 23.027344 C 17.683594 23.027344 23.152344 20.765625 26.703125 24.027344 C 26.703125 24.027344 30.613281 22.273438 32.207031 26.449219 L 32.371094 24.027344 L 34.234375 21.804688 L 34.234375 19.234375 L 32.992188 16.773438 L 30.835938 14.914062 L 28.53125 13.996094 L 25.609375 14.859375 L 22.464844 15.160156 L 19.894531 14.914062 L 16.980469 13.472656 L 15.328125 12.382812 C 15.328125 12.382812 13.941406 14.742188 13.035156 14.617188 Z M 13.035156 14.617188 "/>
<path style="fill:none;stroke-width:2;stroke-linecap:round;stroke-linejoin:round;stroke:rgb(79.215686%,61.960784%,40%);stroke-opacity:1;stroke-miterlimit:10;" d="M 30.564844 25.192969 L 31.085156 25.453125 C 31.085156 25.453125 39.4875 29.025 48.0375 26.2125 C 48.0375 26.2125 56.144531 23.7375 60.307031 31.710937 C 63.014062 36.892969 60.982031 40.246875 59.224219 41.9625 C 58.141406 43.024219 57.564844 44.49375 57.761719 45.991406 L 58.225781 49.584375 L 57.846094 60.58125 C 57.810937 61.657031 56.925 62.514844 55.849219 62.514844 L 55.265625 62.514844 C 54.070312 62.514844 53.142187 61.467187 53.282812 60.278906 L 53.514844 54.871875 C 53.585156 53.163281 53.121094 51.482812 52.192969 50.055469 L 48.705469 44.704687 C 48.705469 44.704687 45.878906 39.550781 48.185156 35.901562 " transform="matrix(0.555556,0,0,0.555556,0,0)"/>
<path style="fill:none;stroke-width:2;stroke-linecap:round;stroke-linejoin:round;stroke:rgb(79.215686%,61.960784%,40%);stroke-opacity:1;stroke-miterlimit:10;" d="M 36.084375 46.125 C 39.614062 46.582031 45.309375 47.039062 47.742187 45.667969 " transform="matrix(0.555556,0,0,0.555556,0,0)"/>
<path style="fill:none;stroke-width:2;stroke-linecap:round;stroke-linejoin:round;stroke:rgb(79.215686%,61.960784%,40%);stroke-opacity:1;stroke-miterlimit:10;" d="M 63.035156 28.961719 C 63.035156 28.961719 66.234375 29.095312 66.382031 33.771094 " transform="matrix(0.555556,0,0,0.555556,0,0)"/>
<path style="fill:none;stroke-width:2;stroke-linecap:round;stroke-linejoin:round;stroke:rgb(79.215686%,61.960784%,40%);stroke-opacity:1;stroke-miterlimit:10;" d="M 19.560937 18.225 C 19.560937 18.225 22.310156 16.832812 22.605469 19.610156 C 22.753125 20.995312 21.930469 21.6 21.255469 22.155469 C 20.271094 22.971094 17.880469 22.176562 16.509375 21.614062 C 16.010156 21.410156 15.475781 21.853125 15.595312 22.373437 C 15.946875 23.927344 17.163281 26.085937 19.814062 26.500781 C 26.247656 27.499219 30.860156 18.717187 24.686719 14.589844 C 17.971875 10.096875 14.948437 17.26875 14.948437 17.26875 L 12.213281 18.717187 L 11.095312 20.228906 C 11.095312 20.228906 4.999219 21.860156 7.003125 25.164844 L 8.746875 27.414844 L 12.944531 27.808594 C 14.083594 27.921094 14.9625 28.85625 14.990625 29.995312 L 16.017187 34.5375 L 19.666406 42.307031 C 20.165625 43.382812 21.072656 44.2125 22.183594 44.627344 L 24.982031 45.675 C 25.439062 46.849219 25.727344 47.798437 25.727344 47.798437 L 24.553125 58.858594 C 24.426562 60.039844 25.354687 61.066406 26.542969 61.066406 L 27.28125 61.066406 C 28.244531 61.066406 29.067187 60.384375 29.25 59.442187 L 32.020312 44.978906 C 32.090625 44.613281 32.104687 44.240625 32.069531 43.867969 L 31.528125 38.376562 " transform="matrix(0.555556,0,0,0.555556,0,0)"/>
</g>
</svg>
