<svg xmlns="http://www.w3.org/2000/svg" xmlns:xlink="http://www.w3.org/1999/xlink" width="200" zoomAndPan="magnify" viewBox="0 0 150 149.999998" height="200" preserveAspectRatio="xMidYMid meet" version="1.0"><defs><clipPath id="83965ce9ae"><path d="M 7.203125 7.203125 L 142.796875 7.203125 L 142.796875 142.796875 L 7.203125 142.796875 Z M 7.203125 7.203125 " clip-rule="nonzero"/></clipPath><clipPath id="366da914de"><path d="M 75 7.203125 C 37.558594 7.203125 7.203125 37.558594 7.203125 75 C 7.203125 112.441406 37.558594 142.796875 75 142.796875 C 112.441406 142.796875 142.796875 112.441406 142.796875 75 C 142.796875 37.558594 112.441406 7.203125 75 7.203125 Z M 75 7.203125 " clip-rule="nonzero"/></clipPath><clipPath id="33b073b748"><path d="M 21.835938 39.113281 L 128 39.113281 L 128 110 L 21.835938 110 Z M 21.835938 39.113281 " clip-rule="nonzero"/></clipPath></defs><g clip-path="url(#83965ce9ae)"><g clip-path="url(#366da914de)"><path fill="#ffffff" d="M 7.203125 7.203125 L 142.796875 7.203125 L 142.796875 142.796875 L 7.203125 142.796875 Z M 7.203125 7.203125 " fill-opacity="1" fill-rule="nonzero"/></g></g><g clip-path="url(#33b073b748)"><path fill="#df9d69" d="M 121.222656 39.09375 C 121.125 39.09375 121.023438 39.105469 120.929688 39.125 L 108.855469 42.316406 C 108.261719 42.46875 107.914062 43.074219 108.070312 43.664062 L 108.726562 46.066406 L 105.640625 46.894531 C 98.097656 46.882812 90.554688 46.855469 83.003906 46.851562 C 82.988281 46.84375 82.972656 46.84375 82.953125 46.851562 C 81.785156 46.898438 80.675781 47.382812 79.835938 48.195312 C 79.808594 48.21875 79.785156 48.238281 79.757812 48.269531 C 79.109375 48.902344 78.46875 49.546875 77.820312 50.1875 C 77.171875 50.828125 76.527344 51.472656 75.878906 52.113281 C 75.238281 52.753906 74.589844 53.394531 73.941406 54.039062 C 73.292969 54.675781 72.652344 55.320312 72.003906 55.964844 C 71.359375 56.597656 70.710938 57.242188 70.0625 57.882812 C 70.023438 57.921875 69.984375 57.960938 69.945312 58 C 69.347656 57.617188 68.691406 57.320312 67.980469 57.128906 C 66.972656 56.863281 65.960938 56.824219 64.992188 56.976562 C 62.074219 57.445312 59.53125 59.671875 58.691406 62.78125 C 57.300781 67.949219 59.339844 72.726562 61.625 76.144531 C 63.917969 79.5625 66.539062 81.738281 66.539062 81.738281 C 66.789062 81.941406 67.113281 82.03125 67.433594 81.976562 C 67.433594 81.976562 67.671875 81.9375 68.042969 81.851562 C 68.417969 81.769531 68.960938 81.636719 69.609375 81.453125 C 70.253906 81.265625 71.015625 81.023438 71.847656 80.714844 C 72.679688 80.40625 73.582031 80.027344 74.503906 79.570312 C 75.429688 79.117188 76.378906 78.582031 77.308594 77.957031 C 77.539062 77.800781 77.769531 77.636719 78 77.46875 C 78.226562 77.296875 78.449219 77.125 78.675781 76.941406 C 78.902344 76.761719 79.125 76.578125 79.339844 76.386719 C 79.558594 76.1875 79.773438 75.992188 79.980469 75.785156 C 80.089844 75.683594 80.191406 75.574219 80.296875 75.46875 C 80.398438 75.363281 80.5 75.253906 80.601562 75.148438 C 80.675781 75.0625 80.746094 74.984375 80.816406 74.898438 C 80.917969 74.867188 81.019531 74.832031 81.121094 74.796875 L 96.003906 70.808594 C 97.597656 70.445312 98.644531 69.449219 99.566406 68.949219 C 99.589844 68.945312 99.605469 68.933594 99.621094 68.921875 C 103.039062 66.820312 106.449219 64.722656 109.867188 62.621094 L 112.996094 61.785156 L 113.640625 64.136719 C 113.796875 64.726562 114.40625 65.078125 114.996094 64.917969 L 127.070312 61.734375 C 127.660156 61.574219 128.011719 60.972656 127.847656 60.382812 L 122.285156 39.910156 C 122.15625 39.429688 121.71875 39.09375 121.222656 39.085938 Z M 75.558594 40.210938 C 69.417969 40.105469 63.253906 41.632812 57.90625 44.746094 L 57.898438 44.746094 C 46.332031 51.222656 39.378906 64.738281 40.90625 77.917969 C 40.949219 78.542969 41.507812 79.003906 42.132812 78.929688 C 42.75 78.855469 43.191406 78.28125 43.09375 77.664062 C 41.679688 65.414062 48.234375 52.675781 58.992188 46.660156 L 58.996094 46.660156 L 59.007812 46.652344 C 67.503906 41.703125 78.339844 41.0625 87.378906 44.929688 C 87.941406 45.1875 88.605469 44.929688 88.847656 44.363281 C 89.089844 43.792969 88.820312 43.132812 88.246094 42.902344 C 84.609375 41.34375 80.714844 40.464844 76.785156 40.257812 L 76.785156 40.261719 C 76.375 40.242188 75.96875 40.230469 75.558594 40.210938 Z M 120.4375 41.542969 L 125.425781 59.886719 L 115.484375 62.515625 L 110.5 44.164062 L 114.398438 43.132812 L 114.867188 44.839844 L 115.542969 47.332031 C 115.6875 47.929688 116.308594 48.296875 116.902344 48.132812 C 117.5 47.96875 117.851562 47.34375 117.667969 46.753906 L 116.996094 44.261719 L 116.53125 42.570312 Z M 109.304688 48.199219 L 112.417969 59.65625 L 109.242188 60.511719 C 109.148438 60.527344 109.050781 60.558594 108.960938 60.601562 C 108.949219 60.605469 108.9375 60.617188 108.925781 60.625 C 108.917969 60.628906 108.910156 60.628906 108.898438 60.636719 C 108.871094 60.652344 108.847656 60.664062 108.820312 60.679688 C 105.386719 62.792969 101.953125 64.90625 98.519531 67.019531 C 98.507812 67.019531 98.503906 67.019531 98.503906 67.023438 C 97.269531 67.695312 96.378906 68.453125 95.535156 68.65625 C 95.503906 68.667969 95.46875 68.675781 95.433594 68.683594 L 95.421875 68.691406 C 95.402344 68.691406 95.382812 68.695312 95.359375 68.703125 L 80.523438 72.675781 C 80.484375 72.6875 80.449219 72.703125 80.410156 72.722656 C 79.273438 73.160156 77.847656 72.867188 77.152344 71.917969 C 77.140625 71.898438 77.121094 71.882812 77.113281 71.867188 C 76.097656 70.648438 76.65625 68.386719 78.097656 67.800781 C 80.488281 67.070312 79.070312 67.519531 81.648438 66.804688 L 81.660156 66.800781 L 86.5 65.5 C 89.089844 64.808594 90.628906 62.109375 89.933594 59.515625 C 89.410156 57.566406 87.765625 56.183594 85.886719 55.917969 C 85.261719 55.828125 84.605469 55.863281 83.957031 56.042969 L 79.863281 57.179688 C 79.75 57.203125 79.644531 57.234375 79.542969 57.285156 C 79.378906 57.363281 79.246094 57.476562 79.136719 57.617188 C 78.75 58.007812 78.367188 58.394531 77.976562 58.785156 C 77.667969 59.097656 77.351562 59.414062 77.042969 59.730469 C 75.484375 59.667969 73.9375 60.132812 72.609375 61.023438 C 72.328125 60.460938 71.988281 59.941406 71.601562 59.476562 C 71.605469 59.464844 71.613281 59.464844 71.617188 59.453125 C 72.265625 58.8125 72.910156 58.171875 73.558594 57.527344 C 74.199219 56.886719 74.847656 56.25 75.496094 55.609375 C 76.144531 54.96875 76.789062 54.324219 77.4375 53.683594 C 78.078125 53.042969 78.726562 52.398438 79.375 51.757812 C 80.023438 51.117188 80.667969 50.476562 81.3125 49.832031 C 81.316406 49.828125 81.320312 49.820312 81.328125 49.816406 C 81.777344 49.367188 82.417969 49.085938 83.050781 49.054688 C 90.578125 49.054688 98.101562 49.085938 105.632812 49.101562 C 105.757812 49.113281 105.882812 49.105469 106 49.078125 C 106.011719 49.078125 106.015625 49.078125 106.027344 49.074219 C 106.039062 49.074219 106.058594 49.066406 106.074219 49.0625 L 106.105469 49.054688 Z M 117.625 49.679688 C 117 49.660156 116.476562 50.152344 116.476562 50.777344 C 116.476562 51.402344 117 51.90625 117.625 51.882812 C 118.25 51.90625 118.765625 51.402344 118.765625 50.777344 C 118.765625 50.152344 118.25 49.660156 117.625 49.679688 Z M 85.347656 58.074219 C 86.472656 58.113281 87.484375 58.894531 87.808594 60.082031 C 88.195312 61.546875 87.367188 62.984375 85.933594 63.371094 L 83.355469 64.058594 C 83.28125 63.890625 83.195312 63.726562 83.113281 63.5625 C 82.875 63.128906 82.605469 62.722656 82.289062 62.347656 C 81.980469 61.96875 81.632812 61.621094 81.25 61.3125 C 80.867188 61 80.449219 60.726562 80 60.5 C 79.863281 60.425781 79.722656 60.367188 79.582031 60.304688 C 79.925781 59.953125 80.269531 59.609375 80.613281 59.261719 L 84.554688 58.171875 C 84.816406 58.097656 85.082031 58.070312 85.347656 58.074219 Z M 66.09375 59.097656 C 66.527344 59.09375 66.972656 59.148438 67.414062 59.269531 C 69.183594 59.742188 70.574219 61.160156 71.066406 63.0625 C 71.28125 63.890625 72.320312 64.171875 72.921875 63.558594 C 74.300781 62.15625 76.226562 61.613281 78.007812 62.082031 C 78.355469 62.179688 78.6875 62.300781 78.996094 62.464844 C 79.308594 62.621094 79.59375 62.808594 79.859375 63.027344 C 80.128906 63.242188 80.371094 63.484375 80.589844 63.75 C 80.808594 64.019531 81 64.304688 81.171875 64.617188 C 81.175781 64.621094 81.175781 64.632812 81.1875 64.644531 L 81.078125 64.671875 L 81.074219 64.671875 C 81.074219 64.671875 81.074219 64.671875 81.074219 64.675781 C 78.449219 65.402344 80 64.914062 77.382812 65.714844 C 77.351562 65.722656 77.324219 65.734375 77.296875 65.746094 C 74.359375 66.917969 73.402344 70.808594 75.40625 73.25 C 76.007812 74.0625 76.820312 74.601562 77.714844 74.890625 C 77.574219 75.007812 77.4375 75.125 77.296875 75.238281 C 77.101562 75.394531 76.898438 75.554688 76.695312 75.699219 C 76.492188 75.851562 76.285156 75.992188 76.074219 76.136719 C 75.242188 76.695312 74.382812 77.183594 73.53125 77.601562 C 72.6875 78.019531 71.855469 78.367188 71.082031 78.65625 C 70.3125 78.941406 69.601562 79.167969 69 79.339844 C 68.410156 79.511719 67.929688 79.628906 67.585938 79.703125 C 67.101562 79.273438 65.300781 77.664062 63.464844 74.929688 C 61.371094 71.796875 59.667969 67.671875 60.832031 63.367188 C 61.523438 60.789062 63.742188 59.117188 66.101562 59.097656 Z M 107.324219 66.621094 C 106.625 66.640625 106.117188 67.292969 106.277344 67.96875 C 108.847656 79.808594 103.867188 92.902344 94.082031 100.035156 L 94.066406 100.050781 C 84.351562 107.464844 70.378906 108.46875 59.6875 102.546875 C 59.152344 102.234375 58.472656 102.425781 58.167969 102.96875 C 57.871094 103.507812 58.074219 104.1875 58.621094 104.476562 C 70.109375 110.835938 84.957031 109.773438 95.402344 101.808594 C 105.921875 94.128906 111.203125 80.238281 108.4375 67.507812 C 108.332031 66.980469 107.859375 66.609375 107.324219 66.621094 Z M 84.492188 78.453125 C 83.859375 78.472656 83.226562 78.621094 82.621094 78.914062 C 82.605469 78.925781 82.582031 78.929688 82.566406 78.941406 C 78.175781 81.414062 73.824219 83.933594 69.460938 86.429688 C 69.117188 84.085938 67.085938 82.28125 64.648438 82.273438 L 43.628906 82.210938 C 43.425781 82.210938 43.222656 82.222656 43.019531 82.25 C 43.015625 82.25 43.003906 82.25 43 82.257812 C 42.992188 82.257812 42.980469 82.257812 42.976562 82.257812 C 42.917969 82.269531 42.863281 82.269531 42.8125 82.285156 C 42.777344 82.292969 42.75 82.296875 42.71875 82.308594 C 42.671875 82.3125 42.632812 82.320312 42.585938 82.335938 C 42.546875 82.339844 42.507812 82.359375 42.46875 82.363281 C 42.433594 82.375 42.402344 82.386719 42.367188 82.390625 C 42.324219 82.402344 42.273438 82.421875 42.226562 82.433594 C 42.199219 82.441406 42.171875 82.453125 42.144531 82.464844 C 42.085938 82.476562 42.035156 82.492188 41.984375 82.515625 C 41.96875 82.523438 41.953125 82.527344 41.933594 82.539062 C 41.871094 82.566406 41.804688 82.582031 41.742188 82.613281 L 41.738281 82.613281 C 41.730469 82.617188 41.730469 82.617188 41.730469 82.617188 C 41.539062 82.695312 41.347656 82.785156 41.167969 82.894531 L 37.410156 85.042969 L 36.457031 85.589844 L 36.214844 84.699219 C 36.050781 84.113281 35.449219 83.765625 34.859375 83.921875 L 22.785156 87.109375 C 22.191406 87.265625 21.84375 87.871094 22 88.453125 L 27.570312 108.933594 C 27.730469 109.523438 28.335938 109.875 28.925781 109.714844 L 41.003906 106.523438 C 41.589844 106.371094 41.941406 105.769531 41.78125 105.179688 L 41.429688 103.890625 L 42.878906 103.058594 L 46.640625 100.902344 C 46.84375 100.78125 47.058594 100.703125 47.269531 100.648438 C 47.484375 100.589844 47.703125 100.558594 47.941406 100.558594 L 62.757812 100.589844 C 63.613281 100.636719 64.46875 100.460938 65.226562 100.074219 C 65.246094 100.0625 65.261719 100.050781 65.273438 100.039062 C 72.40625 95.96875 79.527344 91.878906 86.648438 87.800781 C 88.679688 86.851562 89.933594 84.578125 89.378906 82.308594 C 88.933594 80.074219 86.90625 78.546875 84.753906 78.484375 C 84.664062 78.480469 84.574219 78.480469 84.484375 78.484375 Z M 84.40625 80.691406 C 85.632812 80.636719 86.996094 81.519531 87.226562 82.71875 C 87.234375 82.742188 87.238281 82.765625 87.242188 82.78125 C 87.542969 83.953125 86.792969 85.300781 85.664062 85.796875 C 85.628906 85.816406 85.589844 85.832031 85.554688 85.855469 C 78.445312 89.925781 71.339844 94.011719 64.226562 98.074219 C 63.804688 98.285156 63.3125 98.386719 62.847656 98.351562 C 62.839844 98.351562 62.828125 98.351562 62.824219 98.351562 C 62.808594 98.351562 62.785156 98.351562 62.761719 98.351562 L 62.746094 98.351562 C 62.738281 98.351562 62.734375 98.351562 62.730469 98.351562 L 47.945312 98.316406 C 47.816406 98.316406 47.6875 98.324219 47.550781 98.335938 C 47.496094 98.328125 47.441406 98.335938 47.378906 98.339844 C 47.179688 98.367188 46.976562 98.402344 46.78125 98.453125 C 46.753906 98.464844 46.730469 98.464844 46.703125 98.476562 C 46.679688 98.476562 46.664062 98.484375 46.644531 98.484375 C 46.445312 98.535156 46.246094 98.605469 46.0625 98.683594 C 46.003906 98.707031 45.953125 98.734375 45.910156 98.761719 C 45.785156 98.8125 45.667969 98.878906 45.546875 98.949219 L 41.792969 101.097656 L 40.835938 101.644531 L 37.058594 87.746094 L 38.511719 86.917969 L 42.273438 84.761719 C 42.394531 84.695312 42.519531 84.636719 42.644531 84.585938 C 42.695312 84.566406 42.75 84.546875 42.800781 84.527344 C 42.847656 84.515625 42.890625 84.496094 42.929688 84.496094 C 42.96875 84.488281 43.003906 84.476562 43.039062 84.46875 C 43.105469 84.453125 43.179688 84.4375 43.246094 84.4375 C 43.371094 84.414062 43.492188 84.40625 43.625 84.40625 L 64.644531 84.464844 C 66.132812 84.46875 67.304688 85.636719 67.3125 87.117188 C 67.3125 88.589844 66.164062 89.738281 64.671875 89.738281 L 54.160156 89.703125 L 51.539062 89.695312 C 50.914062 89.671875 50.390625 90.167969 50.390625 90.792969 C 50.382812 91.417969 50.902344 91.921875 51.527344 91.898438 L 54.15625 91.90625 L 64.664062 91.941406 C 66.585938 91.945312 68.257812 90.820312 69.039062 89.191406 C 69.066406 89.179688 69.089844 89.171875 69.113281 89.160156 C 73.949219 86.402344 78.753906 83.609375 83.597656 80.882812 C 83.847656 80.761719 84.125 80.699219 84.40625 80.679688 Z M 34.375 86.300781 L 39.363281 104.648438 L 29.414062 107.277344 L 24.425781 88.929688 L 28.335938 87.898438 L 28.796875 89.597656 L 29.476562 92.089844 C 29.625 92.695312 30.238281 93.058594 30.839844 92.898438 C 31.4375 92.734375 31.785156 92.109375 31.605469 91.515625 L 30.929688 89.023438 L 30.46875 87.335938 Z M 31.558594 94.4375 C 30.101562 94.457031 30.101562 96.628906 31.558594 96.644531 C 33.011719 96.628906 33.011719 94.457031 31.558594 94.4375 Z M 31.558594 94.4375 " fill-opacity="1" fill-rule="nonzero"/></g></svg>