<?xml version="1.0" encoding="UTF-8"?>
<svg xmlns="http://www.w3.org/2000/svg" xmlns:xlink="http://www.w3.org/1999/xlink" width="33px" height="33px" viewBox="0 0 33 33" version="1.1">
<g id="surface1">
<path style=" stroke:none;fill-rule:evenodd;fill:rgb(15.686275%,39.607843%,86.666667%);fill-opacity:1;" d="M 16.5 30.25 C 24.09375 30.25 30.25 24.09375 30.25 16.5 C 30.25 8.90625 24.09375 2.75 16.5 2.75 C 8.90625 2.75 2.75 8.90625 2.75 16.5 C 2.75 24.09375 8.90625 30.25 16.5 30.25 Z M 20.625 13.75 C 20.625 16.03125 18.777344 17.875 16.5 17.875 C 14.222656 17.875 12.375 16.03125 12.375 13.75 C 12.375 11.472656 14.222656 9.625 16.5 9.625 C 18.777344 9.625 20.625 11.472656 20.625 13.75 Z M 8.25 23.375 C 10.195312 20.773438 13.253906 19.25 16.5 19.25 C 19.746094 19.25 22.804688 20.773438 24.75 23.375 C 22.804688 25.972656 19.746094 27.503906 16.5 27.5 C 13.253906 27.503906 10.195312 25.972656 8.25 23.375 Z M 8.25 23.375 "/>
</g>
</svg>
