<?xml version="1.0" encoding="UTF-8"?>
<svg xmlns="http://www.w3.org/2000/svg" xmlns:xlink="http://www.w3.org/1999/xlink" width="40px" height="40px" viewBox="0 0 40 40" version="1.1">
<g id="surface1">
<path style=" stroke:none;fill-rule:nonzero;fill:rgb(79.215686%,61.960784%,40%);fill-opacity:1;" d="M 13.332031 10 L 8.332031 10 C 7.410156 10 6.667969 9.253906 6.667969 8.332031 C 6.667969 7.414062 7.410156 6.667969 8.332031 6.667969 L 13.332031 6.667969 C 14.253906 6.667969 15 7.414062 15 8.332031 C 15 9.253906 14.253906 10 13.332031 10 Z M 21.667969 16.667969 L 8.332031 16.667969 C 7.410156 16.667969 6.667969 15.921875 6.667969 15 C 6.667969 14.078125 7.410156 13.332031 8.332031 13.332031 L 21.667969 13.332031 C 22.589844 13.332031 23.332031 14.078125 23.332031 15 C 23.332031 15.921875 22.589844 16.667969 21.667969 16.667969 Z M 21.667969 23.332031 L 8.332031 23.332031 C 7.410156 23.332031 6.667969 22.585938 6.667969 21.667969 C 6.667969 20.746094 7.410156 20 8.332031 20 L 21.667969 20 C 22.589844 20 23.332031 20.746094 23.332031 21.667969 C 23.332031 22.585938 22.589844 23.332031 21.667969 23.332031 Z M 21.667969 23.332031 "/>
<path style=" stroke:none;fill-rule:nonzero;fill:rgb(79.215686%,61.960784%,40%);fill-opacity:1;" d="M 30 3.332031 L 30 16.667969 C 30 17.582031 29.25 18.332031 28.332031 18.332031 C 27.417969 18.332031 26.667969 17.582031 26.667969 16.667969 L 26.667969 4.167969 C 26.667969 3.699219 26.300781 3.332031 25.832031 3.332031 L 4.167969 3.332031 C 3.699219 3.332031 3.332031 3.699219 3.332031 4.167969 L 3.332031 35.832031 C 3.332031 36.300781 3.699219 36.667969 4.167969 36.667969 L 25.832031 36.667969 C 26.300781 36.667969 26.667969 36.300781 26.667969 35.832031 L 26.667969 35 C 26.667969 34.082031 27.417969 33.332031 28.332031 33.332031 C 29.25 33.332031 30 34.082031 30 35 L 30 36.667969 C 30 38.5 28.5 40 26.667969 40 L 3.332031 40 C 1.5 40 0 38.5 0 36.667969 L 0 3.332031 C 0 1.5 1.5 0 3.332031 0 L 26.667969 0 C 28.5 0 30 1.5 30 3.332031 Z M 30 3.332031 "/>
<path style=" stroke:none;fill-rule:nonzero;fill:rgb(79.215686%,61.960784%,40%);fill-opacity:1;" d="M 39.785156 19.804688 C 40.300781 20.703125 39.859375 21.925781 38.792969 22.542969 L 22.707031 31.824219 C 22.566406 31.910156 22.414062 31.96875 22.265625 32.007812 L 17.839844 33.109375 C 17.222656 33.261719 16.640625 33.050781 16.375 32.585938 C 16.101562 32.121094 16.222656 31.5 16.65625 31.0625 L 19.835938 27.800781 C 19.941406 27.679688 20.0625 27.59375 20.191406 27.523438 C 20.199219 27.503906 20.210938 27.496094 20.210938 27.496094 L 36.296875 18.214844 C 37.363281 17.597656 38.640625 17.824219 39.160156 18.722656 Z M 39.785156 19.804688 "/>
</g>
</svg>
