<?xml version="1.0" encoding="UTF-8"?>
<svg xmlns="http://www.w3.org/2000/svg" xmlns:xlink="http://www.w3.org/1999/xlink" width="29px" height="29px" viewBox="0 0 29 29" version="1.1">
<g id="surface1">
<path style=" stroke:none;fill-rule:nonzero;fill:rgb(15.686275%,39.607843%,86.666667%);fill-opacity:1;" d="M 10.554688 16.941406 C 10.765625 16.550781 11.171875 16.3125 11.613281 16.3125 L 19.902344 16.3125 C 20.808594 16.3125 21.605469 15.816406 22.015625 15.070312 L 26.101562 7.652344 C 26.234375 7.40625 26.277344 7.140625 26.238281 6.890625 C 26.449219 6.671875 26.585938 6.371094 26.585938 6.039062 C 26.585938 5.375 26.042969 4.835938 25.375 4.835938 L 7.25 4.835938 C 7.210938 4.835938 7.171875 4.835938 7.132812 4.839844 L 6.925781 4.40625 C 6.527344 3.558594 5.675781 3.023438 4.742188 3.023438 L 3.527344 3.023438 C 2.859375 3.023438 2.320312 3.5625 2.320312 4.226562 C 2.320312 4.898438 2.859375 5.4375 3.527344 5.4375 L 3.800781 5.4375 C 4.375 5.4375 4.890625 5.765625 5.136719 6.28125 L 8.554688 13.488281 C 8.886719 14.191406 8.863281 15.015625 8.484375 15.695312 L 7.457031 17.554688 C 6.574219 19.175781 7.730469 21.148438 9.570312 21.148438 L 22.863281 21.148438 C 23.527344 21.148438 24.070312 20.605469 24.070312 19.9375 C 24.070312 19.269531 23.527344 18.726562 22.863281 18.726562 L 11.613281 18.726562 C 10.695312 18.726562 10.109375 17.742188 10.554688 16.941406 Z M 10.554688 16.941406 "/>
<path style=" stroke:none;fill-rule:nonzero;fill:rgb(15.686275%,39.607843%,86.666667%);fill-opacity:1;" d="M 9.570312 22.351562 C 8.242188 22.351562 7.164062 23.441406 7.164062 24.773438 C 7.164062 26.097656 8.242188 27.1875 9.570312 27.1875 C 10.898438 27.1875 11.988281 26.097656 11.988281 24.773438 C 11.988281 23.441406 10.898438 22.351562 9.570312 22.351562 Z M 9.570312 22.351562 "/>
<path style=" stroke:none;fill-rule:nonzero;fill:rgb(15.686275%,39.607843%,86.666667%);fill-opacity:1;" d="M 21.652344 22.351562 C 20.324219 22.351562 19.25 23.441406 19.25 24.773438 C 19.25 26.097656 20.324219 27.1875 21.652344 27.1875 C 22.984375 27.1875 24.070312 26.097656 24.070312 24.773438 C 24.070312 23.441406 22.984375 22.351562 21.652344 22.351562 Z M 21.652344 22.351562 "/>
</g>
</svg>
