<svg xmlns="http://www.w3.org/2000/svg" xmlns:xlink="http://www.w3.org/1999/xlink" width="40" zoomAndPan="magnify" viewBox="0 0 30 30.000001" height="40" preserveAspectRatio="xMidYMid meet" version="1.0"><defs><clipPath id="ee4c0f2b20"><path d="M 5.195312 2.503906 L 24.789062 2.503906 L 24.789062 26.453125 L 5.195312 26.453125 Z M 5.195312 2.503906 " clip-rule="nonzero"/></clipPath></defs><g clip-path="url(#ee4c0f2b20)"><path fill="#ffffff" d="M 23.4375 14.152344 C 22.308594 20.441406 16.121094 24.824219 14.890625 25.640625 C 14.851562 25.664062 14.800781 25.664062 14.757812 25.636719 C 13.304688 24.671875 6.039062 19.484375 6.039062 12.167969 C 6.039062 9.769531 6.988281 7.527344 8.707031 5.859375 C 10.363281 4.253906 12.527344 3.378906 14.824219 3.378906 C 14.90625 3.378906 14.988281 3.378906 15.074219 3.378906 C 17.59375 3.449219 19.875 4.582031 21.492188 6.5625 C 23.214844 8.671875 23.921875 11.4375 23.4375 14.152344 Z M 15.09375 2.585938 C 12.488281 2.519531 10.019531 3.472656 8.152344 5.289062 C 6.277344 7.109375 5.242188 9.554688 5.242188 12.167969 C 5.242188 19.890625 12.804688 25.292969 14.320312 26.300781 C 14.476562 26.402344 14.652344 26.453125 14.828125 26.453125 C 15.003906 26.453125 15.175781 26.402344 15.328125 26.304688 C 16.605469 25.457031 23.039062 20.902344 24.222656 14.292969 C 24.746094 11.351562 23.980469 8.347656 22.113281 6.0625 C 20.34375 3.894531 17.851562 2.660156 15.09375 2.585938 " fill-opacity="1" fill-rule="nonzero"/></g><path fill="#ffffff" d="M 21.324219 15.121094 C 21.183594 14.996094 21 14.914062 20.792969 14.914062 L 18.800781 14.914062 L 18.800781 8.152344 C 18.800781 7.714844 18.441406 7.355469 18.003906 7.355469 L 11.621094 7.355469 C 11.183594 7.355469 10.824219 7.714844 10.824219 8.152344 L 10.824219 14.914062 L 8.832031 14.914062 C 8.625 14.914062 8.441406 14.996094 8.300781 15.121094 C 7.878906 14.210938 7.636719 13.199219 7.636719 12.128906 C 7.636719 8.179688 10.855469 4.96875 14.8125 4.96875 C 18.769531 4.96875 21.992188 8.179688 21.992188 12.128906 C 21.992188 13.199219 21.746094 14.210938 21.324219 15.121094 Z M 18.003906 16.109375 L 11.621094 16.109375 L 11.621094 8.152344 L 18.003906 8.152344 Z M 19.3125 17.699219 L 10.3125 17.699219 C 9.738281 17.238281 9.238281 16.695312 8.832031 16.078125 L 8.832031 15.710938 L 10.824219 15.710938 L 10.824219 16.109375 L 10.425781 16.109375 C 10.207031 16.109375 10.027344 16.289062 10.027344 16.507812 C 10.027344 16.726562 10.207031 16.90625 10.425781 16.90625 L 19.199219 16.90625 C 19.417969 16.90625 19.597656 16.726562 19.597656 16.507812 C 19.597656 16.289062 19.417969 16.109375 19.199219 16.109375 L 18.800781 16.109375 L 18.800781 15.710938 L 20.792969 15.710938 L 20.792969 16.078125 C 20.386719 16.695312 19.886719 17.238281 19.3125 17.699219 Z M 11.539062 18.496094 L 18.085938 18.496094 C 17.101562 19 15.992188 19.292969 14.8125 19.292969 C 13.632812 19.292969 12.523438 19 11.539062 18.496094 Z M 14.8125 4.171875 C 10.414062 4.171875 6.835938 7.742188 6.835938 12.128906 C 6.835938 16.519531 10.414062 20.089844 14.8125 20.089844 C 19.210938 20.089844 22.789062 16.519531 22.789062 12.128906 C 22.789062 7.742188 19.210938 4.171875 14.8125 4.171875 " fill-opacity="1" fill-rule="nonzero"/><path fill="#ffffff" d="M 13.734375 14.003906 C 13.808594 14.078125 13.910156 14.121094 14.015625 14.121094 C 14.023438 14.121094 14.035156 14.121094 14.042969 14.117188 C 14.160156 14.109375 14.265625 14.054688 14.335938 13.960938 L 16.726562 10.777344 C 16.859375 10.601562 16.824219 10.351562 16.644531 10.21875 C 16.46875 10.089844 16.222656 10.125 16.089844 10.300781 L 13.972656 13.117188 L 13.5 12.644531 C 13.34375 12.488281 13.089844 12.488281 12.9375 12.644531 C 12.78125 12.800781 12.78125 13.050781 12.9375 13.207031 L 13.734375 14.003906 " fill-opacity="1" fill-rule="nonzero"/></svg>