<svg xmlns="http://www.w3.org/2000/svg" xmlns:xlink="http://www.w3.org/1999/xlink" width="40" zoomAndPan="magnify" viewBox="0 0 30 30.000001" height="40" preserveAspectRatio="xMidYMid meet" version="1.0"><defs><clipPath id="7c608d6131"><path d="M 2.375 2 L 27.777344 2 L 27.777344 27.132812 L 2.375 27.132812 Z M 2.375 2 " clip-rule="nonzero"/></clipPath></defs><g clip-path="url(#7c608d6131)"><path fill="#ffffff" d="M 15.078125 13.382812 C 16.429688 13.382812 17.527344 14.464844 17.527344 15.804688 C 17.527344 17.140625 16.65625 19.210938 15.078125 19.210938 C 13.496094 19.210938 12.625 17.140625 12.625 15.804688 C 12.625 14.464844 13.722656 13.382812 15.078125 13.382812 Z M 22.859375 13.5 C 21.75 13.5 20.851562 14.386719 20.851562 15.480469 C 20.851562 16.574219 21.5625 18.269531 22.859375 18.269531 C 24.152344 18.269531 24.863281 16.574219 24.863281 15.480469 C 24.863281 14.386719 23.96875 13.5 22.859375 13.5 Z M 19.910156 19.765625 C 20.90625 20.289062 21.605469 21.230469 21.808594 22.371094 C 21.929688 23.0625 22.085938 23.746094 22.222656 24.4375 C 22.257812 24.625 22.417969 24.753906 22.609375 24.753906 L 26.503906 24.753906 C 26.875 24.753906 27.199219 24.605469 27.441406 24.324219 C 27.683594 24.042969 27.777344 23.703125 27.714844 23.339844 C 27.582031 22.539062 27.382812 21.683594 27.265625 21.046875 C 27.148438 20.367188 26.699219 19.835938 26.039062 19.585938 L 24.640625 19.027344 C 23.796875 18.695312 23.492188 19.613281 22.863281 19.609375 C 22.21875 19.601562 21.914062 18.699219 21.074219 19.03125 C 20.695312 19.179688 20.308594 19.328125 19.925781 19.484375 C 19.867188 19.507812 19.832031 19.558594 19.828125 19.617188 C 19.824219 19.679688 19.855469 19.734375 19.910156 19.765625 Z M 7.292969 13.5 C 8.402344 13.5 9.300781 14.386719 9.300781 15.480469 C 9.300781 16.574219 8.585938 18.269531 7.292969 18.269531 C 6 18.269531 5.289062 16.574219 5.289062 15.480469 C 5.289062 14.386719 6.183594 13.5 7.292969 13.5 Z M 10.238281 19.765625 C 9.246094 20.289062 8.546875 21.230469 8.34375 22.371094 C 8.222656 23.0625 8.066406 23.746094 7.929688 24.4375 C 7.894531 24.625 7.734375 24.753906 7.542969 24.753906 L 3.648438 24.753906 C 3.277344 24.753906 2.953125 24.605469 2.710938 24.324219 C 2.46875 24.042969 2.375 23.703125 2.4375 23.339844 C 2.570312 22.539062 2.769531 21.683594 2.886719 21.046875 C 3.003906 20.367188 3.453125 19.835938 4.113281 19.585938 L 5.511719 19.027344 C 6.355469 18.695312 6.660156 19.613281 7.289062 19.609375 C 7.933594 19.601562 8.234375 18.699219 9.078125 19.03125 C 9.457031 19.179688 9.84375 19.328125 10.226562 19.484375 C 10.285156 19.507812 10.320312 19.558594 10.324219 19.617188 C 10.328125 19.679688 10.296875 19.734375 10.238281 19.765625 Z M 15.027344 4.125 C 15.039062 4.140625 15.054688 4.152344 15.074219 4.152344 C 15.097656 4.152344 15.113281 4.140625 15.125 4.125 C 15.898438 2.777344 17.085938 1.734375 18.710938 2.273438 C 19.960938 2.691406 20.863281 3.90625 20.863281 5.347656 C 20.863281 7.390625 18.738281 9.050781 17.371094 10.367188 L 15.449219 12.117188 C 15.238281 12.308594 14.914062 12.308594 14.703125 12.117188 L 12.78125 10.367188 C 11.414062 9.050781 9.285156 7.390625 9.285156 5.347656 C 9.285156 3.871094 10.242188 2.625 11.542969 2.242188 C 13.128906 1.777344 14.277344 2.820312 15.027344 4.125 Z M 18.960938 20.820312 C 19.769531 21.121094 20.316406 21.773438 20.460938 22.601562 C 20.601562 23.382812 20.847656 24.425781 21.011719 25.402344 C 21.085938 25.851562 20.96875 26.261719 20.671875 26.605469 C 20.378906 26.949219 19.984375 27.132812 19.527344 27.132812 L 10.625 27.132812 C 10.167969 27.132812 9.773438 26.949219 9.476562 26.605469 C 9.183594 26.261719 9.066406 25.851562 9.140625 25.402344 C 9.304688 24.425781 9.550781 23.382812 9.691406 22.601562 C 9.835938 21.773438 10.382812 21.121094 11.191406 20.820312 L 12.898438 20.136719 C 13.929688 19.730469 14.300781 20.851562 15.070312 20.84375 C 15.859375 20.839844 16.226562 19.734375 17.253906 20.140625 Z M 18.960938 20.820312 " fill-opacity="1" fill-rule="evenodd"/></g></svg>