<svg xmlns="http://www.w3.org/2000/svg" xmlns:xlink="http://www.w3.org/1999/xlink" width="200" zoomAndPan="magnify" viewBox="0 0 150 149.999998" height="200" preserveAspectRatio="xMidYMid meet" version="1.0"><defs><clipPath id="67be94e604"><path d="M 7.203125 7.203125 L 142.796875 7.203125 L 142.796875 142.796875 L 7.203125 142.796875 Z M 7.203125 7.203125 " clip-rule="nonzero"/></clipPath><clipPath id="a582982b5b"><path d="M 75 7.203125 C 37.558594 7.203125 7.203125 37.558594 7.203125 75 C 7.203125 112.441406 37.558594 142.796875 75 142.796875 C 112.441406 142.796875 142.796875 112.441406 142.796875 75 C 142.796875 37.558594 112.441406 7.203125 75 7.203125 Z M 75 7.203125 " clip-rule="nonzero"/></clipPath><clipPath id="ee80a02d72"><path d="M 28.195312 56 L 121.804688 56 L 121.804688 107.609375 L 28.195312 107.609375 Z M 28.195312 56 " clip-rule="nonzero"/></clipPath><clipPath id="cd6970bfc5"><path d="M 73 42.058594 L 77 42.058594 L 77 53 L 73 53 Z M 73 42.058594 " clip-rule="nonzero"/></clipPath></defs><g clip-path="url(#67be94e604)"><g clip-path="url(#a582982b5b)"><path fill="#ffffff" d="M 7.203125 7.203125 L 142.796875 7.203125 L 142.796875 142.796875 L 7.203125 142.796875 Z M 7.203125 7.203125 " fill-opacity="1" fill-rule="nonzero"/></g></g><g clip-path="url(#ee80a02d72)"><path fill="#df9d69" d="M 90.496094 62.199219 C 92.542969 62.855469 94.554688 63.648438 96.496094 64.550781 C 105.082031 68.558594 112.667969 74.425781 118.71875 81.722656 C 118.976562 82.03125 118.976562 82.46875 118.71875 82.777344 C 112.667969 90.074219 105.082031 95.933594 96.496094 99.945312 C 94.554688 100.851562 92.542969 101.640625 90.496094 102.296875 C 101.574219 93.738281 103.601562 77.816406 95.042969 66.746094 C 93.730469 65.042969 92.199219 63.515625 90.496094 62.199219 Z M 59.492188 62.199219 C 48.414062 70.769531 46.386719 86.683594 54.945312 97.753906 C 56.257812 99.457031 57.789062 100.984375 59.492188 102.296875 C 57.4375 101.640625 55.425781 100.851562 53.480469 99.945312 C 44.898438 95.933594 37.320312 90.074219 31.269531 82.777344 C 31.011719 82.46875 31.011719 82.03125 31.269531 81.722656 C 37.320312 74.425781 44.898438 68.566406 53.480469 64.550781 C 55.425781 63.648438 57.4375 62.855469 59.492188 62.210938 Z M 74.617188 59.515625 C 87.023438 59.308594 97.230469 69.199219 97.445312 81.597656 C 97.445312 81.8125 97.445312 82.039062 97.445312 82.253906 C 97.601562 94.652344 87.6875 104.84375 75.289062 105.007812 C 62.882812 105.164062 52.691406 95.242188 52.535156 82.84375 C 52.535156 82.644531 52.535156 82.445312 52.535156 82.253906 C 52.378906 69.878906 62.25 59.714844 74.617188 59.515625 Z M 76.984375 56.921875 C 68.464844 56.609375 59.988281 58.328125 52.269531 61.933594 C 43.300781 66.132812 35.367188 72.257812 29.050781 79.878906 C 27.910156 81.257812 27.910156 83.25 29.050781 84.621094 C 35.367188 92.242188 43.300781 98.367188 52.269531 102.566406 C 66.671875 109.296875 83.324219 109.296875 97.734375 102.566406 C 106.695312 98.367188 114.632812 92.242188 120.945312 84.621094 C 122.085938 83.25 122.085938 81.257812 120.945312 79.878906 C 114.632812 72.257812 106.695312 66.132812 97.734375 61.933594 C 91.21875 58.894531 84.164062 57.191406 76.984375 56.921875 " fill-opacity="1" fill-rule="nonzero"/></g><path fill="#df9d69" d="M 83.507812 82.253906 C 83.601562 77.550781 79.875 73.660156 75.171875 73.5625 C 70.46875 73.460938 66.578125 77.191406 66.480469 81.898438 C 66.480469 82.011719 66.480469 82.128906 66.480469 82.253906 C 66.378906 86.949219 70.113281 90.847656 74.816406 90.9375 C 79.519531 91.039062 83.410156 87.308594 83.507812 82.601562 C 83.507812 82.488281 83.507812 82.371094 83.507812 82.253906 " fill-opacity="1" fill-rule="nonzero"/><path fill="#df9d69" d="M 44.921875 52.734375 L 50.683594 57.539062 C 51.304688 58.039062 52.210938 57.9375 52.710938 57.3125 C 53.191406 56.714844 53.117188 55.835938 52.527344 55.320312 L 46.765625 50.515625 C 46.144531 50.015625 45.238281 50.117188 44.738281 50.742188 C 44.25 51.347656 44.332031 52.226562 44.921875 52.734375 " fill-opacity="1" fill-rule="nonzero"/><path fill="#df9d69" d="M 103.210938 50.515625 L 97.445312 55.320312 C 96.839844 55.835938 96.753906 56.75 97.261719 57.355469 C 97.785156 57.96875 98.691406 58.054688 99.304688 57.539062 L 105.066406 52.734375 C 105.664062 52.210938 105.738281 51.296875 105.207031 50.699219 C 104.699219 50.109375 103.828125 50.035156 103.210938 50.515625 " fill-opacity="1" fill-rule="nonzero"/><g clip-path="url(#cd6970bfc5)"><path fill="#df9d69" d="M 73.550781 43.726562 L 73.550781 51.222656 C 73.578125 52.019531 74.25 52.644531 75.046875 52.609375 C 75.804688 52.578125 76.402344 51.980469 76.4375 51.222656 L 76.4375 43.726562 C 76.402344 42.929688 75.738281 42.304688 74.933594 42.339844 C 74.183594 42.371094 73.578125 42.96875 73.550781 43.726562 " fill-opacity="1" fill-rule="nonzero"/></g></svg>