<?xml version="1.0" encoding="UTF-8"?>
<svg xmlns="http://www.w3.org/2000/svg" xmlns:xlink="http://www.w3.org/1999/xlink" width="40px" height="40px" viewBox="0 0 40 40" version="1.1">
<g id="surface1">
<path style="fill-rule:nonzero;fill:rgb(79.215686%,61.960784%,40%);fill-opacity:1;stroke-width:1;stroke-linecap:butt;stroke-linejoin:miter;stroke:rgb(79.215686%,61.960784%,40%);stroke-opacity:1;stroke-miterlimit:4;" d="M 186.856642 220.279123 C 204.896059 220.279123 221.547829 213.856297 233.759127 202.279353 C 246.366895 190.26629 253.344779 173.455933 253.344779 154.861457 C 253.344779 113.94568 192.724409 64.267901 190.107702 62.206253 C 188.204643 60.620371 185.468995 60.620371 183.565936 62.206253 C 180.988876 64.267901 120.368505 113.94568 120.368505 154.861457 C 120.368505 173.455933 127.306743 190.26629 139.914511 202.279353 C 152.125809 213.856297 168.817225 220.279123 186.856642 220.279123 Z M 141.064276 158.984752 C 142.531218 158.548634 144.077454 159.262281 144.711807 160.689576 C 148.438631 169.174049 153.632397 176.706992 160.09487 183.050524 C 166.081578 188.838996 172.980168 193.556997 180.671699 197.006292 C 182.059347 197.640646 182.772994 199.226528 182.336876 200.733117 C 181.940406 202.081117 180.750994 202.953353 179.44264 202.953353 C 179.284052 202.953353 179.125464 202.953353 178.927228 202.913706 C 168.936167 201.129588 159.975929 196.609822 152.998044 189.750879 C 145.623689 182.614406 140.786747 173.178403 138.962981 162.513341 C 138.725099 160.967105 139.597335 159.460517 141.064276 158.984752 Z M 141.064276 158.984752 " transform="matrix(0.0985256,0,0,0.0985256,0,0)"/>
<path style="fill-rule:nonzero;fill:rgb(79.215686%,61.960784%,40%);fill-opacity:1;stroke-width:1;stroke-linecap:butt;stroke-linejoin:miter;stroke:rgb(79.215686%,61.960784%,40%);stroke-opacity:1;stroke-miterlimit:4;" d="M 402.33847 249.300778 C 375.140579 244.027718 349.290689 240.34054 323.321858 238.001363 C 318.167739 237.525598 312.934326 237.287716 307.780207 237.287716 C 274.04055 237.287716 246.485836 247.040895 219.843005 256.437251 C 212.349709 259.093604 201.407117 261.710311 189.790526 264.525253 C 172.821579 268.648548 155.297574 272.851138 147.050984 277.529492 C 139.557687 281.771729 136.742746 286.925848 138.685452 292.872908 C 141.460747 301.555617 153.077338 305.44103 176.310522 305.44103 C 191.812526 305.44103 211.001708 303.696559 231.261361 301.872793 C 234.552068 301.595264 237.842775 301.317734 241.212776 301.000558 C 213.459827 308.493854 189.750879 312.260326 170.720285 312.260326 C 148.835102 312.260326 134.52251 307.185501 130.518155 297.947733 C 127.663566 291.405967 130.359567 283.199023 138.090746 274.833491 L 139.240511 273.564785 L 137.614981 273.168314 C 136.742746 272.970079 52.135897 252.076073 35.920246 248.507837 C 32.312362 247.714895 28.704479 247.318425 25.096596 247.318425 C 12.211298 247.318425 1.744471 252.432897 0.198235 259.490075 C -0.555059 262.899723 0.277529 269.600078 14.391887 276.062551 L 138.090746 328.158801 C 142.253688 329.705037 146.495925 331.449508 150.976044 333.352567 C 164.69393 339.061745 178.927228 344.969159 192.090056 344.969159 C 197.600998 344.969159 202.834412 344.374453 208.186766 343.224688 C 217.74171 341.083746 241.926423 333.947273 267.53843 326.335036 C 292.476438 318.960681 318.247033 311.348443 328.555272 309.009266 C 336.643274 307.185501 344.969159 306.313265 354.048338 306.313265 C 369.669284 306.313265 385.0127 308.929972 400.673293 311.863855 L 405.986 312.855032 L 405.986 250.014425 Z M 402.33847 249.300778 " transform="matrix(0.0985256,0,0,0.0985256,0,0)"/>
</g>
</svg>
