<?xml version="1.0" encoding="UTF-8"?>
<svg xmlns="http://www.w3.org/2000/svg" xmlns:xlink="http://www.w3.org/1999/xlink" width="40px" height="40px" viewBox="0 0 40 40" version="1.1">
<g id="surface1">
<path style=" stroke:none;fill-rule:nonzero;fill:rgb(79.215686%,61.960784%,40%);fill-opacity:1;" d="M 29.546875 4.554688 C 23.945312 4.554688 19.40625 9.097656 19.40625 14.695312 C 19.40625 20.296875 23.945312 24.835938 29.546875 24.835938 C 35.148438 24.835938 39.6875 20.296875 39.6875 14.695312 C 39.6875 9.097656 35.148438 4.554688 29.546875 4.554688 Z M 29.601562 21.632812 C 28.695312 21.632812 27.953125 20.890625 27.953125 19.984375 C 27.953125 19.070312 28.695312 18.335938 29.601562 18.335938 C 30.511719 18.335938 31.25 19.078125 31.25 19.984375 C 31.25 20.890625 30.511719 21.632812 29.601562 21.632812 Z M 33.570312 13.75 C 33.335938 14.097656 32.921875 14.511719 32.269531 14.984375 L 31.621094 15.457031 C 31.277344 15.746094 31.042969 16.039062 30.917969 16.398438 C 30.847656 16.632812 30.792969 16.988281 30.792969 17.460938 L 28.382812 17.460938 C 28.4375 16.460938 28.496094 15.757812 28.671875 15.398438 C 28.785156 15.039062 29.199219 14.566406 29.84375 14.097656 L 30.441406 13.574219 C 30.675781 13.40625 30.84375 13.222656 30.964844 13.046875 C 31.203125 12.746094 31.328125 12.394531 31.328125 11.984375 C 31.328125 11.511719 31.148438 11.109375 30.914062 10.746094 C 30.675781 10.398438 30.203125 10.222656 29.5 10.222656 C 28.796875 10.222656 28.324219 10.453125 28.035156 10.925781 C 27.796875 11.273438 27.621094 11.746094 27.621094 12.160156 C 27.621094 12.230469 27.621094 12.230469 27.621094 12.285156 C 27.550781 12.933594 27.023438 13.453125 26.320312 13.453125 C 25.617188 13.453125 25.074219 12.929688 25.023438 12.277344 C 25.023438 12.277344 25.023438 11.988281 25.023438 11.863281 C 25.199219 10.386719 25.796875 9.335938 26.789062 8.6875 C 27.496094 8.273438 28.382812 8.035156 29.378906 8.035156 C 30.726562 8.035156 31.839844 8.324219 32.726562 8.976562 C 33.601562 9.625 34.074219 10.566406 34.167969 11.8125 C 34.167969 12.574219 33.984375 13.222656 33.570312 13.75 Z M 35.839844 27.34375 L 26.523438 29.480469 C 26.457031 29.933594 26.261719 30.417969 25.972656 30.808594 C 25.421875 31.648438 24.582031 32.265625 23.609375 32.523438 C 22.640625 32.75 21.605469 32.585938 20.761719 32.003906 L 12.738281 26.890625 C 12.347656 26.664062 12.285156 26.214844 12.511719 25.855469 C 12.738281 25.5 13.191406 25.402344 13.515625 25.628906 L 21.570312 30.742188 C 22.640625 31.390625 24.03125 31.097656 24.710938 30.0625 C 25.390625 29.027344 25.066406 27.605469 24.03125 26.925781 L 14 20.582031 C 12.347656 19.546875 10.441406 18.738281 8.628906 19.644531 L 0.3125 24.367188 L 0.34375 33.558594 L 6.265625 29.449219 C 7.203125 29.222656 8.238281 29.417969 9.113281 29.964844 L 16.101562 34.367188 C 17.816406 35.433594 19.921875 35.695312 21.734375 35.207031 L 36.875 31.746094 C 38.074219 31.488281 38.882812 30.289062 38.589844 28.996094 C 38.269531 27.832031 37.070312 27.085938 35.839844 27.34375 Z M 35.839844 27.34375 "/>
</g>
</svg>
