<svg xmlns="http://www.w3.org/2000/svg" width="15.371" height="14.602" viewBox="0 0 15.371 14.602">
  <path id="icons8-slider" d="M12.523,1.965a1.731,1.731,0,0,0-1.729,1.729v.192H2.148a.576.576,0,1,0,0,1.153h8.646v.192a1.729,1.729,0,1,0,3.458,0V5.039h2.114a.576.576,0,1,0,0-1.153H14.253V3.694A1.731,1.731,0,0,0,12.523,1.965Zm-6.533,4.8A1.731,1.731,0,0,0,4.262,8.5v.192H2.148a.576.576,0,1,0,0,1.153H4.262v.192a1.729,1.729,0,0,0,3.458,0V9.842h8.646a.576.576,0,1,0,0-1.153H7.72V8.5A1.731,1.731,0,0,0,5.991,6.768Zm5.764,4.8A1.731,1.731,0,0,0,10.026,13.3v.192H2.148a.576.576,0,1,0,0,1.153h7.878v.192a1.729,1.729,0,1,0,3.458,0v-.192h2.882a.576.576,0,1,0,0-1.153H13.484V13.3A1.731,1.731,0,0,0,11.755,11.571Z" transform="translate(-1.572 -1.965)" fill="rgba(0,0,0,0.3)"/>
</svg>
