<?xml version="1.0" encoding="UTF-8" standalone="no"?>
<!-- Created with Inkscape (http://www.inkscape.org/) -->

<svg
   version="1.1"
   id="svg2"
   width="793.70135"
   height="793.70135"
   viewBox="0 0 793.70135 793.70135"
   sodipodi:docname="logo Ataa.ai"
   xmlns:inkscape="http://www.inkscape.org/namespaces/inkscape"
   xmlns:sodipodi="http://sodipodi.sourceforge.net/DTD/sodipodi-0.dtd"
   xmlns="http://www.w3.org/2000/svg"
   xmlns:svg="http://www.w3.org/2000/svg">
  <defs
     id="defs6">
    <linearGradient
       x1="0"
       y1="0"
       x2="1"
       y2="0"
       gradientUnits="userSpaceOnUse"
       gradientTransform="matrix(24.304069,0,0,-24.304069,265.65878,489.78265)"
       spreadMethod="pad"
       id="linearGradient26">
      <stop
         style="stop-opacity:1;stop-color:#1d70b8"
         offset="0"
         id="stop22" />
      <stop
         style="stop-opacity:1;stop-color:#37aae1"
         offset="1"
         id="stop24" />
    </linearGradient>
    <clipPath
       clipPathUnits="userSpaceOnUse"
       id="clipPath36">
      <path
         d="M 0,595.276 H 595.276 V 0 H 0 Z"
         id="path34" />
    </clipPath>
    <linearGradient
       x1="0"
       y1="0"
       x2="1"
       y2="0"
       gradientUnits="userSpaceOnUse"
       gradientTransform="matrix(25.774147,0,0,-25.774147,266.19611,472.72089)"
       spreadMethod="pad"
       id="linearGradient58">
      <stop
         style="stop-opacity:1;stop-color:#1d70b8"
         offset="0"
         id="stop54" />
      <stop
         style="stop-opacity:1;stop-color:#37aae1"
         offset="1"
         id="stop56" />
    </linearGradient>
    <clipPath
       clipPathUnits="userSpaceOnUse"
       id="clipPath68">
      <path
         d="M 0,595.276 H 595.276 V 0 H 0 Z"
         id="path66" />
    </clipPath>
    <linearGradient
       x1="0"
       y1="0"
       x2="1"
       y2="0"
       gradientUnits="userSpaceOnUse"
       gradientTransform="matrix(29.711687,0,0,-29.711687,264.85565,349.31641)"
       spreadMethod="pad"
       id="linearGradient236">
      <stop
         style="stop-opacity:1;stop-color:#37aae1"
         offset="0"
         id="stop232" />
      <stop
         style="stop-opacity:1;stop-color:#1d70b8"
         offset="1"
         id="stop234" />
    </linearGradient>
    <clipPath
       clipPathUnits="userSpaceOnUse"
       id="clipPath246">
      <path
         d="M 0,595.276 H 595.276 V 0 H 0 Z"
         id="path244" />
    </clipPath>
    <linearGradient
       x1="0"
       y1="0"
       x2="1"
       y2="0"
       gradientUnits="userSpaceOnUse"
       gradientTransform="matrix(55.760552,0,0,-55.760552,263.62808,375.47174)"
       spreadMethod="pad"
       id="linearGradient268">
      <stop
         style="stop-opacity:1;stop-color:#1d70b8"
         offset="0"
         id="stop264" />
      <stop
         style="stop-opacity:1;stop-color:#37aae1"
         offset="1"
         id="stop266" />
    </linearGradient>
    <clipPath
       clipPathUnits="userSpaceOnUse"
       id="clipPath278">
      <path
         d="M 0,595.276 H 595.276 V 0 H 0 Z"
         id="path276" />
    </clipPath>
    <linearGradient
       x1="0"
       y1="0"
       x2="1"
       y2="0"
       gradientUnits="userSpaceOnUse"
       gradientTransform="matrix(20.363911,0,0,-20.363911,257.70169,257.46347)"
       spreadMethod="pad"
       id="linearGradient300">
      <stop
         style="stop-opacity:1;stop-color:#1d70b8"
         offset="0"
         id="stop296" />
      <stop
         style="stop-opacity:1;stop-color:#37aae1"
         offset="1"
         id="stop298" />
    </linearGradient>
    <clipPath
       clipPathUnits="userSpaceOnUse"
       id="clipPath310">
      <path
         d="M 0,595.276 H 595.276 V 0 H 0 Z"
         id="path308" />
    </clipPath>
    <linearGradient
       x1="0"
       y1="0"
       x2="1"
       y2="0"
       gradientUnits="userSpaceOnUse"
       gradientTransform="matrix(28.669622,0,0,-28.669622,248.86908,318.89383)"
       spreadMethod="pad"
       id="linearGradient332">
      <stop
         style="stop-opacity:1;stop-color:#37aae1"
         offset="0"
         id="stop328" />
      <stop
         style="stop-opacity:1;stop-color:#1d70b8"
         offset="1"
         id="stop330" />
    </linearGradient>
    <clipPath
       clipPathUnits="userSpaceOnUse"
       id="clipPath342">
      <path
         d="M 0,595.276 H 595.276 V 0 H 0 Z"
         id="path340" />
    </clipPath>
    <linearGradient
       x1="0"
       y1="0"
       x2="1"
       y2="0"
       gradientUnits="userSpaceOnUse"
       gradientTransform="matrix(173.91766,0,0,-173.91766,210.83499,204.21211)"
       spreadMethod="pad"
       id="linearGradient364">
      <stop
         style="stop-opacity:1;stop-color:#37aae1"
         offset="0"
         id="stop360" />
      <stop
         style="stop-opacity:1;stop-color:#1d70b8"
         offset="1"
         id="stop362" />
    </linearGradient>
    <clipPath
       clipPathUnits="userSpaceOnUse"
       id="clipPath374">
      <path
         d="M 0,595.276 H 595.276 V 0 H 0 Z"
         id="path372" />
    </clipPath>
    <linearGradient
       x1="0"
       y1="0"
       x2="1"
       y2="0"
       gradientUnits="userSpaceOnUse"
       gradientTransform="matrix(89.884712,0,0,-89.884712,297.82712,384.1011)"
       spreadMethod="pad"
       id="linearGradient396">
      <stop
         style="stop-opacity:1;stop-color:#1d70b8"
         offset="0"
         id="stop392" />
      <stop
         style="stop-opacity:1;stop-color:#37aae1"
         offset="1"
         id="stop394" />
    </linearGradient>
    <clipPath
       clipPathUnits="userSpaceOnUse"
       id="clipPath406">
      <path
         d="M 0,595.276 H 595.276 V 0 H 0 Z"
         id="path404" />
    </clipPath>
    <linearGradient
       x1="0"
       y1="0"
       x2="1"
       y2="0"
       gradientUnits="userSpaceOnUse"
       gradientTransform="matrix(0.0975832,0,0,-0.0975832,210.84807,252.84138)"
       spreadMethod="pad"
       id="linearGradient428">
      <stop
         style="stop-opacity:1;stop-color:#1d70b8"
         offset="0"
         id="stop424" />
      <stop
         style="stop-opacity:1;stop-color:#37aae1"
         offset="1"
         id="stop426" />
    </linearGradient>
    <clipPath
       clipPathUnits="userSpaceOnUse"
       id="clipPath438">
      <path
         d="M 0,595.276 H 595.276 V 0 H 0 Z"
         id="path436" />
    </clipPath>
    <linearGradient
       x1="0"
       y1="0"
       x2="1"
       y2="0"
       gradientUnits="userSpaceOnUse"
       gradientTransform="matrix(39.198227,0,0,-39.198227,214.5947,300.12338)"
       spreadMethod="pad"
       id="linearGradient460">
      <stop
         style="stop-opacity:1;stop-color:#1d70b8"
         offset="0"
         id="stop456" />
      <stop
         style="stop-opacity:1;stop-color:#37aae1"
         offset="1"
         id="stop458" />
    </linearGradient>
    <clipPath
       clipPathUnits="userSpaceOnUse"
       id="clipPath470">
      <path
         d="M 0,595.276 H 595.276 V 0 H 0 Z"
         id="path468" />
    </clipPath>
    <linearGradient
       x1="0"
       y1="0"
       x2="1"
       y2="0"
       gradientUnits="userSpaceOnUse"
       gradientTransform="matrix(73.243927,0,0,-73.243927,260.92258,337.52838)"
       spreadMethod="pad"
       id="linearGradient492">
      <stop
         style="stop-opacity:1;stop-color:#1d70b8"
         offset="0"
         id="stop488" />
      <stop
         style="stop-opacity:1;stop-color:#37aae1"
         offset="1"
         id="stop490" />
    </linearGradient>
    <clipPath
       clipPathUnits="userSpaceOnUse"
       id="clipPath502">
      <path
         d="M 0,595.276 H 595.276 V 0 H 0 Z"
         id="path500" />
    </clipPath>
    <linearGradient
       x1="0"
       y1="0"
       x2="1"
       y2="0"
       gradientUnits="userSpaceOnUse"
       gradientTransform="matrix(3.815187,0,0,-3.815187,210.94151,259.1796)"
       spreadMethod="pad"
       id="linearGradient524">
      <stop
         style="stop-opacity:1;stop-color:#1d70b8"
         offset="0"
         id="stop520" />
      <stop
         style="stop-opacity:1;stop-color:#37aae1"
         offset="1"
         id="stop522" />
    </linearGradient>
    <clipPath
       clipPathUnits="userSpaceOnUse"
       id="clipPath534">
      <path
         d="M 0,595.276 H 595.276 V 0 H 0 Z"
         id="path532" />
    </clipPath>
    <linearGradient
       x1="0"
       y1="0"
       x2="1"
       y2="0"
       gradientUnits="userSpaceOnUse"
       gradientTransform="matrix(94.290878,0,0,-94.290878,266.85898,264.60513)"
       spreadMethod="pad"
       id="linearGradient556">
      <stop
         style="stop-opacity:1;stop-color:#1d70b8"
         offset="0"
         id="stop552" />
      <stop
         style="stop-opacity:1;stop-color:#37aae1"
         offset="1"
         id="stop554" />
    </linearGradient>
    <clipPath
       clipPathUnits="userSpaceOnUse"
       id="clipPath566">
      <path
         d="M 0,595.276 H 595.276 V 0 H 0 Z"
         id="path564" />
    </clipPath>
    <linearGradient
       x1="0"
       y1="0"
       x2="1"
       y2="0"
       gradientUnits="userSpaceOnUse"
       gradientTransform="matrix(2.1359615,0,0,-2.1359615,358.95502,270.22021)"
       spreadMethod="pad"
       id="linearGradient588">
      <stop
         style="stop-opacity:1;stop-color:#1d70b8"
         offset="0"
         id="stop584" />
      <stop
         style="stop-opacity:1;stop-color:#37aae1"
         offset="1"
         id="stop586" />
    </linearGradient>
    <clipPath
       clipPathUnits="userSpaceOnUse"
       id="clipPath598">
      <path
         d="M 0,595.276 H 595.276 V 0 H 0 Z"
         id="path596" />
    </clipPath>
    <linearGradient
       x1="0"
       y1="0"
       x2="1"
       y2="0"
       gradientUnits="userSpaceOnUse"
       gradientTransform="matrix(2.1359615,0,0,-2.1359615,358.95502,270.22021)"
       spreadMethod="pad"
       id="linearGradient620">
      <stop
         style="stop-opacity:1;stop-color:#1d70b8"
         offset="0"
         id="stop616" />
      <stop
         style="stop-opacity:1;stop-color:#37aae1"
         offset="1"
         id="stop618" />
    </linearGradient>
    <clipPath
       clipPathUnits="userSpaceOnUse"
       id="clipPath630">
      <path
         d="M 0,595.276 H 595.276 V 0 H 0 Z"
         id="path628" />
    </clipPath>
    <linearGradient
       x1="0"
       y1="0"
       x2="1"
       y2="0"
       gradientUnits="userSpaceOnUse"
       gradientTransform="matrix(149.4686,0,0,-149.4686,211.73634,251.78526)"
       spreadMethod="pad"
       id="linearGradient652">
      <stop
         style="stop-opacity:1;stop-color:#37aae1"
         offset="0"
         id="stop648" />
      <stop
         style="stop-opacity:1;stop-color:#1d70b8"
         offset="1"
         id="stop650" />
    </linearGradient>
    <clipPath
       clipPathUnits="userSpaceOnUse"
       id="clipPath662">
      <path
         d="M 0,595.276 H 595.276 V 0 H 0 Z"
         id="path660" />
    </clipPath>
    <linearGradient
       x1="0"
       y1="0"
       x2="1"
       y2="0"
       gradientUnits="userSpaceOnUse"
       gradientTransform="matrix(65.921845,0,0,-65.921845,211.72028,370.81564)"
       spreadMethod="pad"
       id="linearGradient684">
      <stop
         style="stop-opacity:1;stop-color:#1d70b8"
         offset="0"
         id="stop680" />
      <stop
         style="stop-opacity:1;stop-color:#37aae1"
         offset="1"
         id="stop682" />
    </linearGradient>
    <clipPath
       clipPathUnits="userSpaceOnUse"
       id="clipPath694">
      <path
         d="M 0,595.276 H 595.276 V 0 H 0 Z"
         id="path692" />
    </clipPath>
    <linearGradient
       x1="0"
       y1="0"
       x2="1"
       y2="0"
       gradientUnits="userSpaceOnUse"
       gradientTransform="matrix(35.935036,0,0,-35.935036,262.02109,468.34042)"
       spreadMethod="pad"
       id="linearGradient716">
      <stop
         style="stop-opacity:1;stop-color:#1d70b8"
         offset="0"
         id="stop712" />
      <stop
         style="stop-opacity:1;stop-color:#37aae1"
         offset="1"
         id="stop714" />
    </linearGradient>
    <clipPath
       clipPathUnits="userSpaceOnUse"
       id="clipPath726">
      <path
         d="M 0,595.276 H 595.276 V 0 H 0 Z"
         id="path724" />
    </clipPath>
  </defs>
  <sodipodi:namedview
     id="namedview4"
     pagecolor="#ffffff"
     bordercolor="#000000"
     borderopacity="0.25"
     inkscape:showpageshadow="2"
     inkscape:pageopacity="0.0"
     inkscape:pagecheckerboard="0"
     inkscape:deskcolor="#d1d1d1" />
  <g
     id="g8"
     inkscape:groupmode="layer"
     inkscape:label="logo Ataa"
     transform="matrix(1.3333333,0,0,-1.3333333,0,793.70133)">
    <g
       id="g10">
      <g
         id="g12">
        <g
           id="g18">
          <g
             id="g20">
            <path
               d="m 278.644,501.528 c -5.996,-1.119 -11.431,-5.759 -12.713,-11.829 v 0 c -0.501,-2.372 -0.25,-4.595 0.266,-6.82 v 0 -0.015 c 1.016,-2.607 2.651,-4.198 4.595,-5.082 v 0 c 1.37,3.461 4.007,6.349 7.645,8.146 v 0 c 2.682,1.311 7.381,2.593 10.268,0.929 v 0 c 0.824,-0.472 1.517,0.014 1.163,1.237 v 0 c -0.515,1.708 -1.089,3.403 -1.576,5.053 v 0 c -0.693,2.386 -1.001,5.995 -3.212,7.586 v 0 c -1.091,0.785 -2.49,1.05 -3.882,1.05 v 0 c -0.882,0 -1.76,-0.107 -2.554,-0.255"
               style="fill:url(#linearGradient26);stroke:none"
               id="path28" />
          </g>
        </g>
      </g>
    </g>
    <g
       id="g30">
      <g
         id="g32"
         clip-path="url(#clipPath36)">
        <g
           id="g38"
           transform="translate(288.7046,486.8567)">
          <path
             d="m 0,0 c -2.887,1.665 -7.586,0.383 -10.267,-0.928 -3.639,-1.798 -6.275,-4.685 -7.646,-8.146 -1.944,0.884 -3.579,2.474 -4.595,5.082 v 0.014 c -0.516,2.225 -0.766,4.449 -0.265,6.821 1.281,6.069 6.716,10.709 12.712,11.828 2.047,0.384 4.655,0.487 6.437,-0.795 2.21,-1.591 2.519,-5.2 3.211,-7.586 C 0.074,4.64 0.648,2.946 1.164,1.237 1.517,0.015 0.825,-0.472 0,0 Z"
             style="fill:none;stroke:#37aae1;stroke-width:0.5;stroke-linecap:butt;stroke-linejoin:miter;stroke-miterlimit:10;stroke-dasharray:none;stroke-opacity:1"
             id="path40" />
        </g>
      </g>
    </g>
    <g
       id="g42">
      <g
         id="g44">
        <g
           id="g50">
          <g
             id="g52">
            <path
               d="m 267.463,478.21 c 0.471,-1.636 0.854,-3.551 1.355,-5.451 v 0 c 0.663,-2.607 1.532,-5.214 3.094,-7.086 v 0 c 4.92,-5.876 14.509,-2.121 19.93,0.9 v 0 c 0.972,0.559 -3.903,11.386 -4.125,13.713 v 0 c -0.014,0.237 -0.014,0.413 0.074,0.457 v 0 c -1.488,-0.825 -3.181,-1.635 -4.979,-2.298 v 0 c -0.442,-0.162 -0.883,-0.324 -1.341,-0.457 v 0 c -3.682,-1.178 -7.586,-1.605 -10.679,-0.206 v 0 c -1.944,0.884 -3.579,2.475 -4.595,5.082 v 0 c 0.338,-1.547 0.824,-3.079 1.266,-4.654"
               style="fill:url(#linearGradient58);stroke:none"
               id="path60" />
          </g>
        </g>
      </g>
    </g>
    <g
       id="g62">
      <g
         id="g64"
         clip-path="url(#clipPath68)">
        <g
           id="g70"
           transform="translate(291.8423,466.5725)">
          <path
             d="m 0,0 c -5.421,-3.02 -15.011,-6.776 -19.931,-0.899 -1.561,1.871 -2.43,4.479 -3.093,7.086 -0.501,1.9 -0.884,3.815 -1.355,5.45 -0.442,1.576 -0.928,3.108 -1.267,4.655 1.016,-2.607 2.651,-4.198 4.596,-5.082 3.093,-1.399 6.997,-0.972 10.679,0.206 0.457,0.133 0.899,0.295 1.341,0.457 1.797,0.663 3.491,1.473 4.979,2.298 C -4.139,14.126 -4.139,13.95 -4.125,13.714 -3.904,11.387 0.972,0.56 0,0 Z"
             style="fill:none;stroke:#37aae1;stroke-width:0.5;stroke-linecap:butt;stroke-linejoin:miter;stroke-miterlimit:10;stroke-dasharray:none;stroke-opacity:1"
             id="path72" />
        </g>
        <g
           id="g74"
           transform="translate(130.1938,105.1281)">
          <path
             d="m 0,0 c 0.157,0.459 0.353,0.828 0.588,1.103 0.234,0.271 0.49,0.47 0.764,0.587 0.275,0.118 0.519,0.177 0.735,0.177 H 3.321 C 3.381,1.318 3.428,0.75 3.469,0.162 3.507,-0.426 3.528,-1.033 3.528,-1.66 3.528,-2.092 3.517,-2.514 3.499,-2.926 3.478,-3.334 3.449,-3.748 3.41,-4.16 H 0.147 c -0.156,0.392 -0.26,0.784 -0.308,1.176 -0.05,0.391 -0.073,0.814 -0.073,1.265 0,0.686 0.078,1.26 0.234,1.719 m 11.109,-7.98 h 15.373 0.352 9.934 V 5.688 H 31.126 V -4.16 H 26.834 26.482 11.109 9.023 c 0.02,0.336 0.04,0.652 0.059,0.955 0.02,0.305 0.03,0.604 0.03,0.898 0,1.251 -0.059,2.562 -0.177,3.925 C 8.817,2.979 8.66,4.336 8.464,5.688 H 2.292 C 1.215,5.688 0.186,5.5 -0.793,5.128 -1.773,4.756 -2.635,4.221 -3.379,3.526 -4.125,2.83 -4.717,1.993 -5.158,1.013 c -0.441,-0.98 -0.66,-2.069 -0.66,-3.261 0,-0.843 0.121,-1.764 0.367,-2.763 0.243,-0.999 0.591,-1.987 1.043,-2.969 z"
             style="fill:#1d70b8;fill-opacity:1;fill-rule:nonzero;stroke:none"
             id="path76" />
        </g>
        <g
           id="g78"
           transform="translate(129.1655,115.7229)">
          <path
             d="m 0,0 c 0.353,0 0.681,0.067 0.984,0.205 0.305,0.14 0.574,0.318 0.809,0.543 0.234,0.227 0.416,0.492 0.543,0.798 0.127,0.302 0.192,0.63 0.192,0.982 0,0.686 -0.245,1.274 -0.735,1.764 C 1.303,4.781 0.705,5.025 0,5.025 c -0.705,0 -1.298,-0.244 -1.778,-0.733 -0.479,-0.49 -0.72,-1.078 -0.72,-1.764 0,-0.686 0.241,-1.276 0.72,-1.78 C -1.298,0.252 -0.705,0 0,0"
             style="fill:#1d70b8;fill-opacity:1;fill-rule:nonzero;stroke:none"
             id="path80" />
        </g>
        <g
           id="g82"
           transform="translate(341.7734,120.0148)">
          <path
             d="m 0,0 c -0.481,-0.49 -0.721,-1.078 -0.721,-1.764 0,-0.686 0.24,-1.276 0.721,-1.78 0.479,-0.496 1.072,-0.748 1.777,-0.748 0.353,0 0.681,0.067 0.987,0.205 0.302,0.14 0.572,0.318 0.806,0.543 0.235,0.227 0.416,0.492 0.545,0.798 0.126,0.302 0.19,0.63 0.19,0.982 C 4.305,-1.078 4.061,-0.49 3.57,0 3.08,0.489 2.483,0.733 1.777,0.733 1.072,0.733 0.479,0.489 0,0"
             style="fill:#1d70b8;fill-opacity:1;fill-rule:nonzero;stroke:none"
             id="path84" />
        </g>
        <g
           id="g86"
           transform="translate(347.5352,120.0148)">
          <path
             d="m 0,0 c -0.482,-0.49 -0.721,-1.078 -0.721,-1.764 0,-0.686 0.239,-1.276 0.721,-1.78 0.479,-0.496 1.07,-0.748 1.776,-0.748 0.353,0 0.681,0.067 0.986,0.205 0.302,0.14 0.572,0.318 0.807,0.543 0.235,0.227 0.416,0.492 0.543,0.798 0.128,0.302 0.192,0.63 0.192,0.982 C 4.304,-1.078 4.06,-0.49 3.569,0 3.078,0.489 2.481,0.733 1.776,0.733 1.07,0.733 0.479,0.489 0,0"
             style="fill:#1d70b8;fill-opacity:1;fill-rule:nonzero;stroke:none"
             id="path88" />
        </g>
        <g
           id="g90"
           transform="translate(443.4795,118.8391)">
          <path
             d="m 0,0 h -4.469 v 2.407 c 0,0.395 0.055,0.708 0.162,0.944 0.109,0.235 0.264,0.414 0.472,0.543 0.204,0.128 0.444,0.21 0.719,0.249 0.273,0.039 0.579,0.058 0.911,0.058 h 1.939 v 3.175 h -2.85 c -0.646,0 -1.279,-0.062 -1.896,-0.19 C -5.629,7.057 -6.178,6.824 -6.658,6.48 -7.138,6.136 -7.524,5.657 -7.819,5.038 -8.112,4.423 -8.259,3.625 -8.259,2.646 V 0 h -2.205 V -3.116 H 0 Z"
             style="fill:#1d70b8;fill-opacity:1;fill-rule:nonzero;stroke:none"
             id="path92" />
        </g>
        <g
           id="g94"
           transform="translate(158.395,94.6809)">
          <path
             d="m 0,0 c -0.48,-0.489 -0.721,-1.077 -0.721,-1.767 0,-0.682 0.241,-1.276 0.721,-1.777 0.48,-0.498 1.072,-0.747 1.778,-0.747 0.354,0 0.68,0.067 0.986,0.204 0.303,0.14 0.571,0.319 0.807,0.543 0.236,0.227 0.417,0.49 0.543,0.795 0.129,0.306 0.192,0.633 0.192,0.982 0,0.69 -0.245,1.278 -0.735,1.767 C 3.082,0.487 2.484,0.733 1.778,0.733 1.072,0.733 0.48,0.487 0,0"
             style="fill:#1d70b8;fill-opacity:1;fill-rule:nonzero;stroke:none"
             id="path96" />
        </g>
        <g
           id="g98"
           transform="translate(202.7583,115.7229)">
          <path
             d="m 0,0 c 0.352,0 0.681,0.067 0.985,0.205 0.304,0.14 0.572,0.318 0.807,0.543 0.237,0.227 0.416,0.492 0.544,0.798 0.127,0.302 0.192,0.63 0.192,0.982 0,0.686 -0.246,1.274 -0.736,1.764 C 1.302,4.781 0.706,5.025 0,5.025 c -0.706,0 -1.298,-0.244 -1.778,-0.733 -0.48,-0.49 -0.721,-1.078 -0.721,-1.764 0,-0.686 0.241,-1.276 0.721,-1.78 C -1.298,0.252 -0.706,0 0,0"
             style="fill:#1d70b8;fill-opacity:1;fill-rule:nonzero;stroke:none"
             id="path100" />
        </g>
        <g
           id="g102"
           transform="translate(134.9268,115.7229)">
          <path
             d="m 0,0 c 0.351,0 0.68,0.067 0.984,0.205 0.304,0.14 0.572,0.318 0.808,0.543 0.235,0.227 0.415,0.492 0.544,0.798 0.127,0.302 0.19,0.63 0.19,0.982 0,0.686 -0.244,1.274 -0.734,1.764 C 1.302,4.781 0.705,5.025 0,5.025 c -0.706,0 -1.298,-0.244 -1.78,-0.733 -0.479,-0.49 -0.719,-1.078 -0.719,-1.764 0,-0.686 0.24,-1.276 0.719,-1.78 C -1.298,0.252 -0.706,0 0,0"
             style="fill:#1d70b8;fill-opacity:1;fill-rule:nonzero;stroke:none"
             id="path104" />
        </g>
        <g
           id="g106"
           transform="translate(298.3086,100.968)">
          <path
             d="m 0,0 h -10.141 c 0.354,1.195 0.774,2.217 1.264,3.057 0.489,0.842 1.018,1.534 1.588,2.074 0.568,0.538 1.156,0.93 1.763,1.174 0.607,0.246 1.205,0.369 1.793,0.369 1.193,0 2.115,-0.339 2.763,-1.017 C -0.325,4.982 0,3.88 0,2.354 Z M 32.753,-3.82 V 0 h -5.909 c -0.607,0.493 -1.085,1.086 -1.44,1.78 -0.353,0.695 -0.529,1.485 -0.529,2.366 0,1.019 0.262,1.831 0.78,2.438 0.519,0.607 1.248,0.913 2.189,0.913 0.529,0 1.095,-0.057 1.704,-0.163 0.607,-0.108 1.265,-0.308 1.97,-0.602 v 3.469 c -0.354,0.156 -0.749,0.288 -1.191,0.395 -0.44,0.109 -0.882,0.19 -1.322,0.252 -0.441,0.058 -0.872,0.103 -1.295,0.131 -0.42,0.028 -0.788,0.044 -1.1,0.044 -1,0 -1.961,-0.126 -2.881,-0.382 C 22.808,10.386 21.995,10.005 21.291,9.495 20.585,8.986 20.021,8.354 19.6,7.598 19.178,6.845 18.968,5.957 18.968,4.938 18.968,3.922 19.207,2.99 19.688,2.147 20.168,1.305 20.722,0.588 21.349,0 H 17.733 7.464 5.613 V 2.677 C 5.613,3.928 5.437,5.066 5.084,6.086 4.73,7.104 4.239,7.98 3.614,8.717 2.987,9.45 2.223,10.019 1.321,10.419 c -0.9,0.403 -1.891,0.604 -2.967,0.604 -0.687,0 -1.386,-0.111 -2.102,-0.338 C -4.464,10.461 -5.169,10.098 -5.864,9.597 -6.56,9.098 -7.211,8.445 -7.818,7.646 -8.425,6.839 -8.945,5.87 -9.376,4.733 v 14.608 h -5.702 V 0 h -2.673 -15.58 -1.881 v 19.341 h -5.614 V -3.82 h 7.495 15.58 25.215 10.269 z"
             style="fill:#1d70b8;fill-opacity:1;fill-rule:nonzero;stroke:none"
             id="path108" />
        </g>
        <g
           id="g110"
           transform="translate(348.0762,102.2023)">
          <path
             d="m 0,0 c -0.019,-0.408 -0.048,-0.822 -0.086,-1.234 h -3.265 c -0.156,0.392 -0.258,0.784 -0.306,1.175 -0.05,0.392 -0.074,0.815 -0.074,1.266 0,0.686 0.078,1.26 0.235,1.719 0.156,0.459 0.352,0.828 0.587,1.102 0.235,0.272 0.489,0.471 0.764,0.588 0.275,0.117 0.52,0.177 0.736,0.177 h 1.234 C -0.118,4.244 -0.066,3.676 -0.028,3.088 0.012,2.5 0.03,1.893 0.03,1.266 0.03,0.834 0.021,0.412 0,0 m 73.066,-1.234 h -1.734 c -0.628,0 -1.067,0.252 -1.322,0.75 -0.255,0.502 -0.382,1.131 -0.382,1.898 v 5.464 h -5.615 v -6.2 c 0,-1.274 -0.48,-1.912 -1.44,-1.912 h -0.705 c -0.627,0 -1.068,0.252 -1.322,0.75 -0.255,0.502 -0.383,1.131 -0.383,1.898 v 3.79 H 54.551 V 0.678 c 0,-1.274 -0.482,-1.912 -1.441,-1.912 H 51.229 50.818 49.82 c -0.688,0 -1.163,0.252 -1.426,0.75 -0.265,0.502 -0.397,1.131 -0.397,1.898 v 7.2 H 42.383 V 1.176 c 0,-0.45 -0.021,-0.831 -0.058,-1.145 -0.04,-0.313 -0.118,-0.562 -0.237,-0.75 C 41.972,-0.904 41.8,-1.038 41.573,-1.116 41.349,-1.195 41.05,-1.234 40.678,-1.234 h -0.765 c -0.626,0 -1.067,0.252 -1.321,0.75 -0.255,0.502 -0.383,1.131 -0.383,1.898 v 5.464 h -5.613 v -6.2 c 0,-1.274 -0.481,-1.912 -1.441,-1.912 h -0.706 c -0.627,0 -1.066,0.252 -1.321,0.75 -0.254,0.502 -0.382,1.131 -0.382,1.898 v 3.79 H 23.132 V 0.678 c 0,-1.274 -0.481,-1.912 -1.441,-1.912 H 19.546 19.4 5.527 c 0.019,0.336 0.038,0.652 0.058,0.955 0.02,0.304 0.029,0.604 0.029,0.898 0,1.251 -0.057,2.562 -0.176,3.925 -0.117,1.36 -0.275,2.718 -0.47,4.07 H -1.204 C -2.281,8.614 -3.312,8.426 -4.29,8.054 -5.27,7.682 -6.132,7.146 -6.877,6.452 -7.621,5.756 -8.214,4.919 -8.654,3.938 -9.096,2.959 -9.315,1.87 -9.315,0.678 c 0,-0.843 0.122,-1.764 0.367,-2.763 0.244,-0.999 0.593,-1.987 1.043,-2.97 h 27.305 0.146 4.762 c 0.94,0 1.783,0.207 2.528,0.618 0.744,0.412 1.253,1.157 1.527,2.234 0.06,-0.294 0.161,-0.612 0.31,-0.957 0.146,-0.342 0.342,-0.65 0.588,-0.924 0.244,-0.274 0.542,-0.507 0.895,-0.691 0.354,-0.185 0.763,-0.28 1.236,-0.28 h 2.379 c 0.941,0 1.783,0.207 2.529,0.618 0.744,0.412 1.252,1.157 1.527,2.234 0.06,-0.294 0.162,-0.612 0.31,-0.957 0.145,-0.342 0.341,-0.65 0.587,-0.924 0.244,-0.274 0.544,-0.507 0.896,-0.691 0.352,-0.185 0.765,-0.28 1.234,-0.28 h 2.705 c 0.979,0 1.846,0.227 2.601,0.677 0.754,0.451 1.237,1.176 1.455,2.175 0.058,-0.353 0.165,-0.696 0.323,-1.027 0.158,-0.336 0.367,-0.638 0.632,-0.913 0.264,-0.274 0.567,-0.495 0.912,-0.661 0.341,-0.168 0.727,-0.251 1.16,-0.251 h 0.176 0.411 4.497 c 0.941,0 1.782,0.207 2.527,0.618 0.744,0.412 1.253,1.157 1.528,2.234 0.059,-0.294 0.162,-0.612 0.309,-0.957 0.148,-0.342 0.343,-0.65 0.587,-0.924 0.246,-0.274 0.545,-0.507 0.898,-0.691 0.353,-0.185 0.764,-0.28 1.235,-0.28 h 2.378 c 0.942,0 1.784,0.207 2.53,0.618 0.743,0.412 1.254,1.157 1.528,2.234 0.059,-0.294 0.162,-0.612 0.308,-0.957 0.146,-0.342 0.343,-0.65 0.588,-0.924 0.243,-0.274 0.544,-0.507 0.895,-0.691 0.354,-0.185 0.765,-0.28 1.234,-0.28 h 6.467 V 8.614 h -5.672 z"
             style="fill:#1d70b8;fill-opacity:1;fill-rule:nonzero;stroke:none"
             id="path112" />
        </g>
        <g
           id="g114"
           transform="translate(186.1675,90.5939)">
          <path
             d="m 0,0 c 0.304,0.14 0.573,0.319 0.809,0.543 0.235,0.227 0.415,0.49 0.543,0.795 0.126,0.306 0.19,0.633 0.19,0.982 0,0.69 -0.244,1.278 -0.733,1.767 -0.491,0.487 -1.088,0.733 -1.793,0.733 -0.705,0 -1.298,-0.246 -1.779,-0.733 -0.48,-0.489 -0.72,-1.077 -0.72,-1.767 0,-0.682 0.24,-1.276 0.72,-1.777 0.481,-0.498 1.074,-0.747 1.779,-0.747 0.352,0 0.68,0.067 0.984,0.204"
             style="fill:#1d70b8;fill-opacity:1;fill-rule:nonzero;stroke:none"
             id="path116" />
        </g>
        <g
           id="g118"
           transform="translate(248.5483,104.923)">
          <path
             d="m 0,0 c 0.137,0.283 0.322,0.499 0.557,0.647 0.237,0.146 0.519,0.244 0.853,0.291 0.333,0.05 0.696,0.076 1.089,0.076 h 2.32 v 3.79 H 1.41 C 0.627,4.804 -0.132,4.731 -0.868,4.586 -1.601,4.437 -2.259,4.157 -2.836,3.746 -3.415,3.335 -3.881,2.758 -4.233,2.013 -4.585,1.269 -4.761,0.309 -4.761,-0.87 v -3.172 h -2.646 v -3.733 h 12.55 v 3.733 h -5.349 v 2.909 c 0,0.47 0.068,0.848 0.206,1.133"
             style="fill:#1d70b8;fill-opacity:1;fill-rule:nonzero;stroke:none"
             id="path120" />
        </g>
        <g
           id="g122"
           transform="translate(465.2432,102.1438)">
          <path
             d="M 0,0 C -0.068,-0.431 -0.162,-0.823 -0.278,-1.176 H -3.54 c -0.04,0.412 -0.075,0.829 -0.104,1.252 -0.029,0.42 -0.044,0.837 -0.044,1.248 0,0.647 0.024,1.251 0.073,1.822 0.05,0.569 0.103,1.137 0.162,1.706 h 1.234 c 0.214,0 0.46,-0.06 0.735,-0.177 C -1.21,4.558 -0.955,4.358 -0.72,4.087 -0.485,3.813 -0.289,3.443 -0.132,2.984 0.025,2.525 0.102,1.951 0.102,1.266 0.102,0.854 0.069,0.432 0,0 m -26.085,-1.176 h -3.35 c -0.158,0.393 -0.254,0.784 -0.294,1.176 -0.041,0.392 -0.058,0.814 -0.058,1.266 0,0.685 0.076,1.259 0.233,1.718 0.158,0.459 0.355,0.829 0.589,1.103 0.235,0.271 0.489,0.471 0.763,0.588 0.276,0.117 0.518,0.177 0.735,0.177 h 1.382 z M 4.995,3.997 C 4.556,4.978 3.962,5.814 3.218,6.511 2.475,7.205 1.611,7.74 0.633,8.112 -0.349,8.484 -1.377,8.673 -2.454,8.673 H -8.626 C -8.802,7.32 -8.949,5.963 -9.066,4.603 -9.184,3.239 -9.243,1.929 -9.243,0.678 v -0.899 c 0,-0.302 0.009,-0.619 0.029,-0.955 h -0.823 -9.288 -1.116 v 9.849 h -6.82 c -1.077,0 -2.106,-0.189 -3.085,-0.561 -0.98,-0.372 -1.846,-0.907 -2.602,-1.601 -0.754,-0.697 -1.351,-1.533 -1.792,-2.514 -0.442,-0.979 -0.662,-2.068 -0.662,-3.261 0,-0.862 0.142,-1.794 0.426,-2.794 0.286,-0.996 0.643,-1.975 1.073,-2.938 h 7.76 c -0.042,-0.628 -0.158,-1.143 -0.354,-1.557 -0.194,-0.412 -0.455,-0.739 -0.778,-0.982 -0.324,-0.247 -0.701,-0.417 -1.132,-0.516 -0.432,-0.097 -0.881,-0.148 -1.352,-0.148 -0.373,0 -0.745,0.019 -1.117,0.061 -0.373,0.037 -0.755,0.096 -1.145,0.174 l -0.617,-2.614 c 0.625,-0.216 1.361,-0.412 2.204,-0.588 0.841,-0.177 1.713,-0.267 2.615,-0.267 0.824,0 1.641,0.099 2.456,0.294 0.811,0.197 1.552,0.541 2.218,1.031 0.666,0.49 1.235,1.15 1.705,1.985 0.469,0.831 0.773,1.875 0.91,3.127 h 1.205 9.288 14.285 c 0.449,0.982 0.797,1.971 1.042,2.97 0.245,0.999 0.368,1.92 0.368,2.762 0,1.193 -0.22,2.282 -0.663,3.261"
             style="fill:#1d70b8;fill-opacity:1;fill-rule:nonzero;stroke:none"
             id="path124" />
        </g>
        <g
           id="g126"
           transform="translate(190.9434,95.4143)">
          <path
             d="m 0,0 c -0.704,0 -1.298,-0.246 -1.778,-0.733 -0.48,-0.49 -0.72,-1.078 -0.72,-1.767 0,-0.683 0.24,-1.276 0.72,-1.777 0.48,-0.498 1.074,-0.747 1.778,-0.747 0.353,0 0.68,0.067 0.985,0.204 0.303,0.139 0.573,0.319 0.808,0.543 0.236,0.226 0.415,0.49 0.544,0.795 0.126,0.305 0.192,0.632 0.192,0.982 0,0.689 -0.246,1.277 -0.736,1.767 C 1.303,-0.246 0.705,0 0,0"
             style="fill:#1d70b8;fill-opacity:1;fill-rule:nonzero;stroke:none"
             id="path128" />
        </g>
        <path
           d="m 232.618,120.309 h -5.613 V 97.148 h 5.613 z"
           style="fill:#1d70b8;fill-opacity:1;fill-rule:nonzero;stroke:none"
           id="path130" />
        <g
           id="g132"
           transform="translate(213.2803,97.1477)">
          <path
             d="M 0,0 H 9.022 V 23.161 H 3.379 V 3.82 H 0 -0.03 -2.969 c -0.04,0.275 -0.073,0.555 -0.102,0.84 -0.03,0.283 -0.064,0.58 -0.105,0.896 -0.097,1.117 -0.268,2.228 -0.512,3.334 -0.247,1.108 -0.677,2.102 -1.293,2.984 -0.618,0.882 -1.476,1.596 -2.574,2.147 -1.097,0.546 -2.556,0.823 -4.378,0.823 -0.391,0 -0.833,-0.036 -1.323,-0.104 -0.489,-0.069 -0.988,-0.151 -1.498,-0.249 -0.511,-0.097 -1.01,-0.215 -1.5,-0.352 -0.489,-0.14 -0.94,-0.275 -1.352,-0.411 l 0.824,-3.411 c 0.568,0.216 1.17,0.398 1.807,0.543 0.636,0.149 1.299,0.222 1.984,0.222 0.824,0 1.474,-0.138 1.955,-0.411 0.479,-0.275 0.847,-0.633 1.103,-1.072 C -9.68,9.156 -9.503,8.652 -9.405,8.084 -9.308,7.516 -9.228,6.938 -9.17,6.349 -9.131,5.917 -9.063,5.472 -8.965,5.013 -8.866,4.551 -8.75,4.156 -8.612,3.82 h -9.551 -0.205 -0.59 -1.38 c -0.686,0 -1.161,0.252 -1.426,0.75 -0.264,0.502 -0.398,1.132 -0.398,1.899 v 7.2 h -5.611 V 6.23 c 0,-0.45 -0.02,-0.831 -0.059,-1.144 -0.041,-0.314 -0.118,-0.563 -0.236,-0.75 -0.118,-0.186 -0.29,-0.319 -0.514,-0.398 -0.226,-0.079 -0.525,-0.118 -0.897,-0.118 h -1.41 -0.647 -0.206 -1.233 c -0.648,0 -1.113,0.21 -1.396,0.633 -0.286,0.423 -0.427,0.975 -0.427,1.663 v 7.553 H -40.44 V 1.147 c 0,-0.823 -0.059,-1.503 -0.177,-2.043 -0.118,-0.538 -0.289,-0.96 -0.513,-1.263 -0.227,-0.305 -0.505,-0.515 -0.838,-0.632 -0.334,-0.118 -0.717,-0.177 -1.147,-0.177 -0.235,0 -0.49,0.014 -0.764,0.045 -0.274,0.028 -0.559,0.065 -0.852,0.104 l -0.172,-0.787 c -0.107,0.422 -0.318,0.806 -0.651,1.139 -0.489,0.488 -1.088,0.734 -1.792,0.734 -0.706,0 -1.299,-0.246 -1.779,-0.734 -0.48,-0.489 -0.72,-1.077 -0.72,-1.766 0,-0.683 0.24,-1.277 0.72,-1.778 0.48,-0.498 1.073,-0.747 1.779,-0.747 0.353,0 0.679,0.068 0.984,0.204 0.304,0.14 0.572,0.32 0.808,0.543 0.175,0.171 0.311,0.367 0.427,0.58 1.696,-0.628 3.221,-0.943 4.568,-0.943 3.841,0 5.761,2.634 5.761,7.904 v 1.322 c 0.059,-0.353 0.167,-0.697 0.323,-1.028 0.157,-0.336 0.367,-0.637 0.633,-0.912 0.264,-0.274 0.567,-0.495 0.911,-0.661 0.227,-0.111 0.482,-0.17 0.749,-0.207 0.112,-0.024 0.236,-0.039 0.379,-0.039 0.011,0 0.021,-0.005 0.032,-0.005 h 0.029 0.206 0.647 4.29 c 0.98,0 1.846,0.227 2.602,0.677 0.753,0.451 1.239,1.176 1.454,2.175 0.058,-0.353 0.167,-0.697 0.324,-1.028 0.156,-0.336 0.367,-0.637 0.632,-0.912 0.264,-0.274 0.567,-0.495 0.91,-0.661 C -20.334,0.083 -19.947,0 -19.515,0 h 0.557 0.59 0.205 18.133 z"
             style="fill:#1d70b8;fill-opacity:1;fill-rule:nonzero;stroke:none"
             id="path134" />
        </g>
        <g
           id="g136"
           transform="translate(130.4741,63.6643)">
          <path
             d="M 0,0 C 0.86,2.3 1.609,4.462 2.163,6.1 2.468,5.238 3.216,3.299 4.353,0 Z m 4.464,9.868 c -0.167,0.389 -0.416,0.527 -0.665,0.527 -0.305,0 -2.163,-0.11 -3.382,-0.36 L 0.583,9.536 C -0.526,6.846 -4.713,-3.355 -6.1,-6.738 l 0.029,-0.111 c 0.665,-0.193 2.078,-0.36 2.799,-0.36 0.5,0 0.722,0.139 0.833,0.414 0.333,0.833 1.107,2.883 1.606,4.214 h 5.934 c 0.472,-1.303 0.833,-2.328 1.304,-3.716 0.277,-0.773 0.527,-0.912 0.998,-0.912 0.693,0 2.938,0.139 3.549,0.333 l 0.027,0.109 C 10.396,-5.491 9.732,-3.771 8.595,-0.805 7.709,1.551 5.74,6.764 4.464,9.868"
             style="fill:#1d70b8;fill-opacity:1;fill-rule:nonzero;stroke:none"
             id="path138" />
        </g>
        <g
           id="g140"
           transform="translate(149.5518,71.343)">
          <path
             d="M 0,0 H 4.104 C 4.742,0.141 5.573,0.83 5.739,2.606 H -4.38 c -2.662,0 -3.438,0.029 -3.938,0.138 C -8.622,2.384 -8.982,1.914 -9.288,0.943 -9.51,0.223 -9.288,0 -8.79,0 h 4.825 v -14.389 c 0,-0.417 0.222,-0.499 0.666,-0.499 1.331,0 2.495,0.082 3.382,0.22 C 0.056,-14.113 0,-13.198 0,-11.284 Z"
             style="fill:#1d70b8;fill-opacity:1;fill-rule:nonzero;stroke:none"
             id="path142" />
        </g>
        <g
           id="g144"
           transform="translate(159.7007,63.6643)">
          <path
             d="M 0,0 C 0.86,2.3 1.608,4.462 2.162,6.1 2.466,5.238 3.216,3.299 4.353,0 Z m 4.463,9.868 c -0.166,0.389 -0.415,0.527 -0.665,0.527 -0.305,0 -2.162,-0.11 -3.382,-0.36 L 0.583,9.536 C -0.526,6.846 -4.713,-3.355 -6.1,-6.738 l 0.029,-0.111 c 0.665,-0.193 2.079,-0.36 2.8,-0.36 0.498,0 0.72,0.139 0.832,0.414 0.333,0.833 1.108,2.883 1.607,4.214 h 5.933 c 0.471,-1.303 0.833,-2.328 1.304,-3.716 0.277,-0.773 0.527,-0.912 0.998,-0.912 0.693,0 2.939,0.139 3.549,0.333 l 0.027,0.109 C 10.397,-5.491 9.732,-3.771 8.594,-0.805 7.708,1.551 5.739,6.764 4.463,9.868"
             style="fill:#1d70b8;fill-opacity:1;fill-rule:nonzero;stroke:none"
             id="path146" />
        </g>
        <g
           id="g148"
           transform="translate(177.4468,63.6643)">
          <path
             d="M 0,0 C 0.86,2.3 1.609,4.462 2.163,6.1 2.469,5.238 3.216,3.299 4.353,0 Z m 4.464,9.868 c -0.165,0.389 -0.415,0.527 -0.665,0.527 -0.304,0 -2.162,-0.11 -3.382,-0.36 L 0.583,9.536 C -0.526,6.846 -4.713,-3.355 -6.1,-6.738 l 0.029,-0.111 c 0.665,-0.193 2.08,-0.36 2.8,-0.36 0.499,0 0.721,0.139 0.832,0.414 0.333,0.833 1.109,2.883 1.607,4.214 h 5.935 c 0.47,-1.303 0.831,-2.328 1.302,-3.716 0.277,-0.773 0.527,-0.912 0.998,-0.912 0.694,0 2.939,0.139 3.549,0.333 l 0.028,0.109 C 10.397,-5.491 9.733,-3.771 8.595,-0.805 7.708,1.551 5.739,6.764 4.464,9.868"
             style="fill:#1d70b8;fill-opacity:1;fill-rule:nonzero;stroke:none"
             id="path150" />
        </g>
        <g
           id="g152"
           transform="translate(205.3979,71.7033)">
          <path
             d="M 0,0 C 1.469,0 2.717,-0.36 3.493,-0.692 4.546,-0.83 5.212,0.278 5.129,1.275 4.685,1.776 2.606,2.663 0,2.663 c -5.546,0 -9.954,-3.493 -9.954,-9.261 0,-5.325 3.465,-8.9 9.871,-8.9 1.801,0 3.272,0.498 3.965,0.943 0.525,0.498 0.886,1.36 0.997,2.441 l -0.111,0.055 c -0.692,-0.197 -2.079,-0.638 -3.992,-0.638 -4.214,0 -6.515,2.798 -6.515,6.347 0,4.298 2.55,6.35 5.739,6.35"
             style="fill:#1d70b8;fill-opacity:1;fill-rule:nonzero;stroke:none"
             id="path154" />
        </g>
        <g
           id="g156"
           transform="translate(227.3857,74.0588)">
          <path
             d="m 0,0 c -0.998,-0.027 -2.579,-0.056 -3.299,-0.109 -0.498,-0.057 -0.748,-0.169 -0.748,-0.802 v -6.213 h -6.627 v 5.599 c 0,1.221 -0.083,1.525 -0.638,1.525 -0.638,0 -2.55,-0.081 -3.41,-0.219 0.055,-0.529 0.083,-1.692 0.083,-3.55 v -8.79 c 0,-2.299 -0.028,-3.935 -0.083,-5.045 0.582,-0.027 2.302,0.029 3.105,0.111 0.693,0.056 0.943,0.166 0.943,0.776 v 7.015 h 3.853 c 1.331,0 2.218,0.028 2.774,0.082 v -7.429 c 0,-0.472 0.221,-0.555 0.664,-0.555 0.721,0 2.773,0.083 3.383,0.22 -0.028,0.555 -0.083,1.47 -0.083,3.412 v 8.953 c 0,2.303 0.028,3.966 0.083,5.019"
             style="fill:#1d70b8;fill-opacity:1;fill-rule:nonzero;stroke:none"
             id="path158" />
        </g>
        <g
           id="g160"
           transform="translate(235.5391,63.6643)">
          <path
             d="M 0,0 C 0.861,2.3 1.609,4.462 2.163,6.1 2.468,5.238 3.217,3.299 4.354,0 Z m 4.464,9.868 c -0.167,0.389 -0.416,0.527 -0.666,0.527 -0.303,0 -2.162,-0.11 -3.382,-0.36 L 0.583,9.536 C -0.526,6.846 -4.712,-3.355 -6.099,-6.738 l 0.028,-0.111 c 0.665,-0.193 2.079,-0.36 2.8,-0.36 0.499,0 0.721,0.139 0.832,0.414 0.332,0.833 1.109,2.883 1.607,4.214 h 5.934 c 0.471,-1.303 0.832,-2.328 1.303,-3.716 0.278,-0.773 0.527,-0.912 0.998,-0.912 0.694,0 2.939,0.139 3.549,0.333 l 0.027,0.109 C 10.398,-5.491 9.732,-3.771 8.596,-0.805 7.708,1.551 5.74,6.764 4.464,9.868"
             style="fill:#1d70b8;fill-opacity:1;fill-rule:nonzero;stroke:none"
             id="path162" />
        </g>
        <g
           id="g164"
           transform="translate(255.0059,66.0197)">
          <path
             d="M 0,0 C -0.388,-0.193 -1.858,-0.275 -2.495,-0.193 V 5.74 c 0.277,0.053 0.665,0.053 0.997,0.053 1.664,0 2.939,-0.996 2.939,-3.105 C 1.441,0.888 0.361,0.194 0,0 m 2.219,-1.303 c 1.108,0.527 3.271,1.777 3.271,4.352 0,3.411 -2.107,5.047 -6.876,5.047 -1.275,0 -4.352,-0.335 -5.019,-0.498 0.056,-0.749 0.056,-1.416 0.056,-2.773 v -9.317 c 0,-2.327 -0.028,-3.963 -0.083,-5.072 0.637,0 2.468,0.028 3.271,0.11 0.472,0.057 0.666,0.166 0.666,0.721 v 6.294 c 0.139,0.027 0.222,0 0.388,0 0.609,0 1.165,-0.111 1.913,-1.611 1.164,-2.353 1.775,-3.628 2.413,-4.405 0.748,-0.942 1.469,-1.165 2.634,-1.165 1.107,0 2.301,0.138 2.522,0.304 v 0.112 c -0.748,0.831 -1.496,1.968 -2.799,4.299 -0.888,1.579 -1.72,3.048 -2.357,3.602"
             style="fill:#1d70b8;fill-opacity:1;fill-rule:nonzero;stroke:none"
             id="path166" />
        </g>
        <g
           id="g168"
           transform="translate(268.2324,72.508)">
          <path
             d="m 0,0 c 0,1.272 -0.083,1.551 -0.637,1.551 -0.638,0 -2.857,-0.138 -3.411,-0.219 0.055,-0.529 0.084,-1.667 0.084,-3.521 v -13.309 c 0,-0.473 0.193,-0.555 0.665,-0.555 0.721,0 2.883,0.082 3.382,0.22 C 0.055,-15.278 0,-14.363 0,-12.421 Z"
             style="fill:#1d70b8;fill-opacity:1;fill-rule:nonzero;stroke:none"
             id="path170" />
        </g>
        <g
           id="g172"
           transform="translate(271.4214,74.0871)">
          <path
             d="m 0,0 c -0.304,-0.36 -0.664,-0.83 -0.969,-1.801 -0.222,-0.72 0,-0.943 0.498,-0.943 h 4.825 v -14.389 c 0,-0.417 0.222,-0.499 0.666,-0.499 1.33,0 2.494,0.082 3.381,0.22 -0.027,0.555 -0.083,1.47 -0.083,3.384 v 11.284 h 4.103 c 0.638,0.14 1.472,0.83 1.636,2.606 H 3.938 C 1.276,-0.138 0.5,-0.109 0,0"
             style="fill:#1d70b8;fill-opacity:1;fill-rule:nonzero;stroke:none"
             id="path174" />
        </g>
        <g
           id="g176"
           transform="translate(300.9795,73.7551)">
          <path
             d="m 0,0 c -0.417,0.166 -1.525,0.304 -2.718,0.304 -0.499,-0.968 -2.773,-5.073 -4.047,-7.068 -1.11,1.94 -2.301,4.158 -3.216,5.74 -0.749,1.272 -0.944,1.328 -1.47,1.328 -0.804,0 -2.384,-0.25 -3.466,-0.554 v -0.082 c 1.691,-2.524 3.965,-6.018 5.489,-8.763 0.196,-0.332 0.222,-0.776 0.222,-1.302 v -6.404 c 0,-0.417 0.084,-0.499 0.555,-0.499 1.83,0 2.745,0.082 3.493,0.22 -0.029,0.611 -0.083,1.444 -0.083,3.327 v 3.688 c 0,0.36 0.083,0.776 0.304,1.193 0.25,0.471 4.297,6.517 4.964,7.682 C 0.388,-0.555 0.443,-0.194 0,0"
             style="fill:#1d70b8;fill-opacity:1;fill-rule:nonzero;stroke:none"
             id="path178" />
        </g>
        <g
           id="g180"
           transform="translate(316.5352,71.343)">
          <path
             d="m 0,0 c 1.275,0 1.858,0 2.246,0.166 0.389,0.36 0.86,0.943 1.137,2.44 -1.442,0 -6.182,0.029 -6.933,0 C -4.935,2.55 -6.875,2.331 -7.402,2.189 -7.347,1.053 -7.319,0.332 -7.319,-0.749 v -13.584 c 0,-0.473 0.195,-0.555 0.666,-0.555 1.302,0 2.883,0.082 3.382,0.22 -0.055,2.052 -0.083,4.38 -0.083,7.015 h 3.936 c 1.138,0 1.803,0.194 2.163,2.609 H -3.354 V 0 Z"
             style="fill:#1d70b8;fill-opacity:1;fill-rule:nonzero;stroke:none"
             id="path182" />
        </g>
        <g
           id="g184"
           transform="translate(330.4541,58.6428)">
          <path
             d="m 0,0 c -2.771,0 -5.018,2.387 -5.018,6.904 0,4.437 2.108,6.376 4.492,6.376 h 0.028 c 3.299,0 5.045,-3.02 5.045,-6.792 C 4.547,2.44 2.912,0 0,0 m -0.166,15.724 h -0.027 c -5.711,0 -9.067,-3.967 -9.067,-9.207 0,-4.352 2.551,-8.955 8.955,-8.955 5.879,0 9.039,4.214 9.039,9.233 0,4.852 -3.132,8.929 -8.9,8.929"
             style="fill:#1d70b8;fill-opacity:1;fill-rule:nonzero;stroke:none"
             id="path186" />
        </g>
        <g
           id="g188"
           transform="translate(353.5244,73.2287)">
          <path
             d="m 0,0 v -8.317 c 0,-4.881 -1.635,-5.88 -3.742,-5.88 -1.83,0 -3.798,0.804 -3.798,5.685 v 7.679 c 0,1.359 -0.084,1.663 -0.639,1.663 -0.637,0 -2.855,-0.138 -3.409,-0.219 0.055,-0.583 0.083,-1.719 0.083,-3.578 v -5.711 c 0,-5.739 2.383,-8.345 7.318,-8.345 3.522,0 7.57,1.221 7.57,8.843 v 3.963 c 0,2.303 0.028,3.939 0.084,5.047 C 2.912,0.83 1.47,0.803 0.639,0.721 0.222,0.664 0,0.552 0,0"
             style="fill:#1d70b8;fill-opacity:1;fill-rule:nonzero;stroke:none"
             id="path190" />
        </g>
        <g
           id="g192"
           transform="translate(372.1309,73.1477)">
          <path
             d="m 0,0 v -7.738 c 0,-1.413 -0.027,-2.218 0.167,-4.048 -0.666,1.47 -1.582,2.911 -2.745,4.881 -1.609,2.744 -3.659,5.987 -4.521,7.318 -0.277,0.305 -0.499,0.498 -0.803,0.498 -0.554,0 -3.356,-0.138 -3.992,-0.219 v -0.14 l 0.415,-0.609 v -11.59 c 0,-2.329 -0.028,-3.936 -0.083,-5.045 0.998,-0.028 2.052,0.028 2.55,0.11 0.5,0.084 0.666,0.166 0.666,0.721 v 7.293 c 0,1.44 0.029,2.826 -0.137,5.379 1.135,-2.275 1.856,-3.829 3.548,-6.573 2.08,-3.384 2.939,-4.852 4.16,-6.626 0.249,-0.36 0.414,-0.473 0.83,-0.473 0.943,0 2.801,0.388 3.078,0.473 v 12.2 c 0,2.301 0.028,3.909 0.084,5.099 C 2.523,0.911 1.524,0.855 0.638,0.773 0.194,0.745 0,0.633 0,0"
             style="fill:#1d70b8;fill-opacity:1;fill-rule:nonzero;stroke:none"
             id="path194" />
        </g>
        <g
           id="g196"
           transform="translate(385.1084,58.7834)">
          <path
             d="m 0,0 c -0.665,0 -1.221,0.028 -1.886,0.166 v 12.616 c 0.306,0.056 0.748,0.11 1.554,0.11 3.632,0 5.961,-2.049 5.961,-6.154 C 5.629,0.94 2.024,0 0,0 m 0.11,15.332 c -2.466,0 -5.296,-0.416 -6.015,-0.583 0.027,-0.664 0.054,-1.193 0.054,-3.104 V -1.942 c 1.859,-0.332 3.661,-0.498 5.712,-0.498 5.684,0 9.982,3.246 9.982,9.204 0,3.578 -1.526,8.568 -9.733,8.568"
             style="fill:#1d70b8;fill-opacity:1;fill-rule:nonzero;stroke:none"
             id="path198" />
        </g>
        <g
           id="g200"
           transform="translate(401.5801,63.6643)">
          <path
             d="M 0,0 C 0.859,2.3 1.607,4.462 2.162,6.1 2.467,5.238 3.217,3.299 4.353,0 Z m 4.464,9.868 c -0.166,0.389 -0.416,0.527 -0.666,0.527 -0.305,0 -2.162,-0.11 -3.382,-0.36 L 0.582,9.536 C -0.527,6.846 -4.714,-3.355 -6.1,-6.738 l 0.029,-0.111 c 0.665,-0.193 2.079,-0.36 2.799,-0.36 0.499,0 0.721,0.139 0.833,0.414 0.332,0.833 1.108,2.883 1.606,4.214 h 5.935 c 0.47,-1.303 0.832,-2.328 1.303,-3.716 0.277,-0.773 0.527,-0.912 0.997,-0.912 0.694,0 2.939,0.139 3.55,0.333 l 0.027,0.109 C 10.396,-5.491 9.731,-3.771 8.594,-0.805 7.707,1.551 5.738,6.764 4.464,9.868"
             style="fill:#1d70b8;fill-opacity:1;fill-rule:nonzero;stroke:none"
             id="path202" />
        </g>
        <g
           id="g204"
           transform="translate(412.3398,74.0871)">
          <path
             d="m 0,0 c -0.305,-0.36 -0.666,-0.83 -0.971,-1.801 -0.222,-0.72 0,-0.943 0.499,-0.943 h 4.825 v -14.389 c 0,-0.417 0.22,-0.499 0.666,-0.499 1.33,0 2.495,0.082 3.381,0.22 -0.027,0.555 -0.083,1.47 -0.083,3.384 v 11.284 h 4.103 c 0.639,0.14 1.471,0.83 1.637,2.606 H 3.938 C 1.274,-0.138 0.499,-0.109 0,0"
             style="fill:#1d70b8;fill-opacity:1;fill-rule:nonzero;stroke:none"
             id="path206" />
        </g>
        <g
           id="g208"
           transform="translate(432.3037,72.508)">
          <path
             d="m 0,0 c 0,1.272 -0.083,1.551 -0.637,1.551 -0.638,0 -2.857,-0.138 -3.411,-0.219 0.056,-0.529 0.083,-1.667 0.083,-3.521 v -13.309 c 0,-0.473 0.194,-0.555 0.665,-0.555 0.723,0 2.883,0.082 3.384,0.22 C 0.055,-15.278 0,-14.363 0,-12.421 Z"
             style="fill:#1d70b8;fill-opacity:1;fill-rule:nonzero;stroke:none"
             id="path210" />
        </g>
        <g
           id="g212"
           transform="translate(444.5586,58.6428)">
          <path
             d="m 0,0 c -2.771,0 -5.019,2.387 -5.019,6.904 0,4.437 2.108,6.376 4.493,6.376 h 0.028 c 3.299,0 5.045,-3.02 5.045,-6.792 C 4.547,2.44 2.912,0 0,0 m -0.165,15.724 h -0.028 c -5.712,0 -9.067,-3.967 -9.067,-9.207 0,-4.352 2.551,-8.955 8.954,-8.955 5.879,0 9.04,4.214 9.04,9.233 0,4.852 -3.133,8.929 -8.899,8.929"
             style="fill:#1d70b8;fill-opacity:1;fill-rule:nonzero;stroke:none"
             id="path214" />
        </g>
        <g
           id="g216"
           transform="translate(467.6846,73.1477)">
          <path
             d="m 0,0 v -7.738 c 0,-1.413 -0.028,-2.218 0.165,-4.048 -0.664,1.47 -1.579,2.911 -2.743,4.881 -1.609,2.744 -3.661,5.987 -4.521,7.318 -0.277,0.305 -0.498,0.498 -0.802,0.498 -0.555,0 -3.356,-0.138 -3.993,-0.219 v -0.14 l 0.415,-0.609 v -11.59 c 0,-2.329 -0.028,-3.936 -0.083,-5.045 0.999,-0.028 2.052,0.028 2.55,0.11 0.5,0.084 0.667,0.166 0.667,0.721 v 7.293 c 0,1.44 0.027,2.826 -0.138,5.379 1.135,-2.275 1.856,-3.829 3.547,-6.573 2.081,-3.384 2.94,-4.852 4.159,-6.626 0.25,-0.36 0.415,-0.473 0.832,-0.473 0.943,0 2.8,0.388 3.078,0.473 v 12.2 c 0,2.301 0.028,3.909 0.084,5.099 C 2.523,0.911 1.524,0.855 0.638,0.773 0.194,0.745 0,0.633 0,0"
             style="fill:#1d70b8;fill-opacity:1;fill-rule:nonzero;stroke:none"
             id="path218" />
        </g>
      </g>
    </g>
    <g
       id="g220">
      <g
         id="g222">
        <g
           id="g228">
          <g
             id="g230">
            <path
               d="m 267.684,348.594 c 0.161,-0.5 0.309,-1.016 0.457,-1.532 v 0 c 0.692,-2.401 1.325,-4.802 2.121,-7.114 v 0 c 7.969,2.371 16.174,3.977 24.305,5.833 v 0 c -6.157,-0.574 -12.344,-0.118 -17.927,1.989 v 0 c -2.298,0.869 -4.507,2.062 -6.408,3.638 v 0 c -0.236,0.207 -0.486,0.383 -0.722,0.604 v 0 c -1.061,0.972 -1.753,2.062 -2.695,3.138 v 0 c -0.398,0.589 -0.752,1.222 -1.06,1.871 v 0 c -0.384,0.765 -0.678,1.31 -0.899,1.664 v 0 c 0.78,-3.373 1.826,-6.702 2.828,-10.091"
               style="fill:url(#linearGradient236);stroke:none"
               id="path238" />
          </g>
        </g>
      </g>
    </g>
    <g
       id="g240">
      <g
         id="g242"
         clip-path="url(#clipPath246)">
        <g
           id="g248"
           transform="translate(294.5674,345.781)">
          <path
             d="m 0,0 c -8.131,-1.856 -16.336,-3.461 -24.306,-5.833 -0.795,2.312 -1.428,4.713 -2.121,7.115 -0.147,0.515 -0.295,1.031 -0.456,1.531 -1.002,3.389 -2.048,6.718 -2.829,10.091 0.221,-0.353 0.516,-0.899 0.899,-1.664 0.309,-0.649 0.663,-1.282 1.061,-1.871 0.942,-1.076 1.634,-2.166 2.695,-3.138 0.236,-0.221 0.486,-0.398 0.722,-0.604 1.9,-1.576 4.11,-2.769 6.408,-3.638 C -12.344,-0.118 -6.157,-0.574 0,0 Z"
             style="fill:none;stroke:#37aae1;stroke-width:0.5;stroke-linecap:butt;stroke-linejoin:miter;stroke-miterlimit:10;stroke-dasharray:none;stroke-opacity:1"
             id="path250" />
        </g>
      </g>
    </g>
    <g
       id="g252">
      <g
         id="g254">
        <g
           id="g260">
          <g
             id="g262">
            <path
               d="m 287.585,398.428 c -13.288,-3.197 -22.538,-13.375 -23.819,-27.075 v 0 c -0.413,-4.39 0.147,-8.558 1.09,-12.668 v 0 c 0.221,-0.354 0.515,-0.899 0.899,-1.664 v 0 c 0.308,-0.649 0.662,-1.282 1.06,-1.871 v 0 c 0.942,-1.076 1.634,-2.166 2.695,-3.138 v 0 c 0.236,-0.221 0.486,-0.397 0.722,-0.604 v 0 c 0.324,3.403 1.002,6.732 2.666,10.091 v 0 c 4.876,9.854 15.187,15.467 25.853,16.557 v 0 c 5.435,0.545 12.212,0.162 17.338,-2.652 v 0 c 4.021,-2.209 3.756,-2.917 2.401,7.1 v 0 c -0.443,3.227 -1.208,6.335 -2.784,8.912 v 0 c -3.738,6.063 -11.37,8.12 -18.682,8.119 v 0 c -3.348,0 -6.631,-0.431 -9.439,-1.107"
               style="fill:url(#linearGradient268);stroke:none"
               id="path270" />
          </g>
        </g>
      </g>
    </g>
    <g
       id="g272">
      <g
         id="g274"
         clip-path="url(#clipPath278)">
        <g
           id="g280"
           transform="translate(316.0889,375.4045)">
          <path
             d="m 0,0 c -5.126,2.813 -11.902,3.196 -17.338,2.651 -10.665,-1.09 -20.976,-6.702 -25.852,-16.557 -1.665,-3.359 -2.342,-6.688 -2.666,-10.091 -0.236,0.207 -0.487,0.384 -0.723,0.604 -1.06,0.973 -1.753,2.063 -2.695,3.138 -0.398,0.589 -0.751,1.223 -1.06,1.871 -0.384,0.766 -0.678,1.311 -0.899,1.665 -0.943,4.11 -1.503,8.278 -1.09,12.668 1.281,13.699 10.532,23.878 23.819,27.075 8.942,2.15 22.671,1.827 28.121,-7.012 C 1.193,13.434 1.959,10.326 2.401,7.1 3.756,-2.917 4.021,-2.21 0,0 Z"
             style="fill:none;stroke:#37aae1;stroke-width:0.5;stroke-linecap:butt;stroke-linejoin:miter;stroke-miterlimit:10;stroke-dasharray:none;stroke-opacity:1"
             id="path282" />
        </g>
      </g>
    </g>
    <g
       id="g284">
      <g
         id="g286">
        <g
           id="g292">
          <g
             id="g294">
            <path
               d="m 277.348,298.598 c -0.03,-0.235 -0.06,-0.47 -0.09,-0.706 v 0 c -0.014,-0.266 -0.044,-0.53 -0.073,-0.766 v 0 c -0.029,-0.192 -0.044,-0.368 -0.074,-0.545 v 0 c -0.015,-0.177 -0.043,-0.354 -0.073,-0.531 v 0 c 0,-0.088 -0.015,-0.162 -0.03,-0.221 v 0 c -0.81,-5.7 -2.607,-11.195 -4.963,-16.498 v 0 c -3.757,-8.454 -8.971,-16.41 -14.068,-23.819 v 0 c -0.516,-0.752 -0.148,-5.878 -0.148,-6.04 v 0 c -0.044,-4.861 -0.059,-9.722 -0.059,-14.583 v 0 c 0,-1.135 0.015,-2.269 0.015,-3.418 v 0 c 0,-3.712 0.015,-7.438 0.044,-11.165 v 0 c 0.015,-1.178 0.722,-5.201 0.148,-6.04 v 0 c 1.074,1.561 2.136,3.137 3.21,4.728 v 0 c 1.96,2.947 3.875,5.981 5.672,9.089 v 0 c 5.392,9.28 9.693,19.239 10.517,29.86 v 0 c 0.089,1.31 0.177,2.637 0.251,3.976 v 0 c 0.751,12.786 0.413,26 -0.089,38.742 v 0 c -0.028,-0.471 -0.102,-1.237 -0.19,-2.063"
               style="fill:url(#linearGradient300);stroke:none"
               id="path302" />
          </g>
        </g>
      </g>
    </g>
    <g
       id="g304">
      <g
         id="g306"
         clip-path="url(#clipPath310)">
        <g
           id="g312"
           transform="translate(277.627,261.9192)">
          <path
             d="m 0,0 c -0.074,-1.34 -0.162,-2.666 -0.25,-3.977 -0.825,-10.621 -5.126,-20.579 -10.518,-29.859 -1.797,-3.108 -3.712,-6.143 -5.671,-9.089 -1.076,-1.591 -2.136,-3.167 -3.211,-4.728 0.574,0.84 -0.133,4.861 -0.148,6.04 -0.029,3.726 -0.044,7.453 -0.044,11.165 0,1.149 -0.015,2.283 -0.015,3.418 0,4.861 0.015,9.721 0.059,14.583 0,0.162 -0.368,5.288 0.148,6.04 5.096,7.409 10.311,15.364 14.067,23.819 2.357,5.303 4.154,10.798 4.964,16.498 0.015,0.059 0.03,0.133 0.03,0.221 0.029,0.177 0.059,0.354 0.073,0.531 0.03,0.176 0.045,0.353 0.074,0.545 0.03,0.235 0.059,0.501 0.074,0.766 0.029,0.235 0.059,0.471 0.088,0.707 0.089,0.824 0.162,1.591 0.192,2.062 C 0.413,26 0.751,12.786 0,0 Z"
             style="fill:none;stroke:#37aae1;stroke-width:0.5;stroke-linecap:butt;stroke-linejoin:miter;stroke-miterlimit:10;stroke-dasharray:none;stroke-opacity:1"
             id="path314" />
        </g>
      </g>
    </g>
    <g
       id="g316">
      <g
         id="g318">
        <g
           id="g324">
          <g
             id="g326">
            <path
               d="m 248.873,352.925 c -0.015,-5.789 0.015,-11.578 0.059,-17.353 v 0 c 0.015,-1.708 0.058,-3.402 0.132,-5.067 v 0 c 0.34,-8.013 1.474,-15.585 4.729,-22.98 v 0 c 0.486,-1.075 1.001,-2.165 1.576,-3.24 v 0 c 4.022,-7.557 9.649,-14.024 14.347,-21.153 v 0 c 0.81,-1.239 1.592,-2.505 2.329,-3.801 v 0 c 2.356,5.303 4.153,10.798 4.963,16.498 v 0 c 0.015,0.059 0.03,0.133 0.03,0.221 v 0 c 0.03,0.177 0.058,0.354 0.073,0.531 v 0 c 0.03,0.177 0.045,0.353 0.074,0.545 v 0 c 0.029,0.236 0.059,0.5 0.073,0.766 v 0 c 0.03,0.354 0.06,0.722 0.09,1.09 v 0 -0.384 c 0.088,0.826 0.162,1.592 0.19,2.063 v 0 c -0.014,0.265 -0.014,0.516 -0.028,0.78 v 0 c -0.192,4.567 -0.87,8.928 -2.549,13.199 v 0 c -0.103,0.236 -0.222,0.472 -0.324,0.707 v 0 c -3.27,7.852 -8.854,14.422 -13.714,21.33 v 0 c -0.252,0.354 -0.501,0.708 -0.752,1.061 v 0 c -2.843,4.154 -5.449,8.499 -7.35,13.184 v 0 c -0.222,0.56 -0.428,1.105 -0.634,1.665 v 0 c -0.662,1.811 -1.222,3.653 -1.679,5.524 v 0 c -0.056,0.235 -0.144,0.346 -0.251,0.346 v 0 c -0.491,0 -1.384,-2.305 -1.384,-5.532"
               style="fill:url(#linearGradient332);stroke:none"
               id="path334" />
          </g>
        </g>
      </g>
    </g>
    <g
       id="g336">
      <g
         id="g338"
         clip-path="url(#clipPath342)">
        <g
           id="g344"
           transform="translate(277.3472,298.5988)">
          <path
             d="m 0,0 v 0.383 c -0.029,-0.368 -0.059,-0.737 -0.088,-1.09 -0.015,-0.265 -0.044,-0.53 -0.074,-0.766 -0.029,-0.192 -0.044,-0.368 -0.074,-0.545 -0.014,-0.177 -0.044,-0.354 -0.073,-0.531 0,-0.088 -0.015,-0.162 -0.03,-0.221 -0.81,-5.7 -2.607,-11.195 -4.964,-16.498 -0.737,1.296 -1.517,2.563 -2.327,3.801 -4.7,7.129 -10.327,13.596 -14.348,21.153 -0.575,1.075 -1.09,2.166 -1.576,3.241 -3.256,7.394 -4.39,14.966 -4.729,22.98 -0.073,1.664 -0.117,3.358 -0.133,5.067 -0.043,5.774 -0.073,11.564 -0.058,17.353 0,3.933 1.326,6.496 1.635,5.185 0.457,-1.871 1.016,-3.712 1.679,-5.524 0.206,-0.56 0.412,-1.105 0.634,-1.665 1.9,-4.684 4.507,-9.03 7.35,-13.184 0.251,-0.353 0.501,-0.707 0.751,-1.06 C -11.563,31.17 -5.98,24.6 -2.71,16.749 -2.607,16.513 -2.489,16.277 -2.386,16.042 -0.707,11.77 -0.029,7.41 0.162,2.843 0.177,2.578 0.177,2.327 0.191,2.062 0.162,1.591 0.088,0.825 0,0 Z"
             style="fill:none;stroke:#37aae1;stroke-width:0.5;stroke-linecap:butt;stroke-linejoin:miter;stroke-miterlimit:10;stroke-dasharray:none;stroke-opacity:1"
             id="path346" />
        </g>
      </g>
    </g>
    <g
       id="g348">
      <g
         id="g350">
        <g
           id="g356">
          <g
             id="g358">
            <path
               d="m 345.786,187.265 c -22.847,-16.573 -53.502,-19.637 -79.649,-9.457 v 0 c -26.22,10.223 -46.328,33.262 -52.839,60.645 v 0 c -0.618,2.549 -1.105,5.128 -1.473,7.734 v 0 c -0.147,1.06 -0.28,2.106 -0.397,3.168 v 0 c -0.03,0.337 -0.074,0.677 -0.104,1.015 v 0 c -0.177,2.874 -0.294,4.375 -0.383,4.523 v 0 c -0.043,-1.356 -0.074,-2.725 -0.088,-4.11 v 0 c 0.014,-2.769 -0.074,-9.354 0.045,-14.923 v 0 c 0.014,0.148 0.029,0.296 0.043,0.458 v 0 c -0.014,-0.413 -0.014,-0.795 0,-1.179 v 0 c 0.383,-12.182 1.783,-23.996 6.615,-35.604 v 0 c 5.715,-13.729 14.995,-25.882 26.706,-35.028 v 0 c 24.38,-19.063 58.761,-24.013 87.177,-11.314 v 0 c 31.508,14.082 48.934,46.504 52.838,79.633 v 0 c 0.884,7.513 0.265,29.432 0.265,29.432 v 0 c -3.697,-32.216 -16.263,-58.672 -38.756,-74.993"
               style="fill:url(#linearGradient364);stroke:none"
               id="path366" />
          </g>
        </g>
      </g>
    </g>
    <g
       id="g368">
      <g
         id="g370"
         clip-path="url(#clipPath374)">
        <g
           id="g376"
           transform="translate(384.2773,232.8264)">
          <path
             d="m 0,0 c -3.904,-33.129 -21.33,-65.552 -52.839,-79.634 -28.416,-12.698 -62.797,-7.748 -87.176,11.314 -11.711,9.147 -20.991,21.299 -26.707,35.029 -4.832,11.607 -6.231,23.422 -6.614,35.604 -0.015,0.383 -0.015,0.766 0,1.178 -0.015,-0.162 -0.029,-0.309 -0.044,-0.457 -0.118,5.569 -0.03,12.154 -0.044,14.923 0.014,1.385 0.044,2.754 0.088,4.109 0.088,-0.147 0.206,-1.649 0.383,-4.522 0.03,-0.339 0.074,-0.678 0.103,-1.016 0.118,-1.061 0.251,-2.107 0.398,-3.168 0.368,-2.606 0.854,-5.184 1.473,-7.733 6.511,-27.384 26.618,-50.423 52.839,-60.646 26.147,-10.179 56.801,-7.115 79.649,9.457 C -15.998,-29.24 -3.433,-2.784 0.265,29.432 0.265,29.432 0.884,7.513 0,0 Z"
             style="fill:none;stroke:#37aae1;stroke-width:0.5;stroke-linecap:butt;stroke-linejoin:miter;stroke-miterlimit:10;stroke-dasharray:none;stroke-opacity:1"
             id="path378" />
        </g>
      </g>
    </g>
    <g
       id="g380">
      <g
         id="g382">
        <g
           id="g388">
          <g
             id="g390">
            <path
               d="m 297.896,527.439 c 0.648,-24.305 4.405,-48.552 11.285,-71.871 v 0 c 13.552,-45.929 42.762,-83.611 61.161,-127.272 v 0 c 4.846,-11.461 8.916,-23.291 11.268,-35.53 v 0 c 4.126,-21.458 3.328,-54.892 2.175,-63.634 v 0 c 2.337,17.72 3.998,33.223 3.925,49.899 v 0 c -0.059,12.977 -1.219,24.867 -3.09,37.712 v 0 c -3.197,21.92 -11.729,43.739 -21.6,63.493 v 0 c -9.633,19.268 -21.034,37.563 -31.037,56.639 v 0 c -12.815,24.424 -22.773,50.011 -28.371,77.071 v 0 c -1.208,5.862 -2.239,11.77 -3.079,17.706 v 0 c -0.549,3.912 -1.362,7.419 -1.954,7.418 v 0 c -0.551,0 -0.91,-3.043 -0.683,-11.631"
               style="fill:url(#linearGradient396);stroke:none"
               id="path398" />
          </g>
        </g>
      </g>
    </g>
    <g
       id="g400">
      <g
         id="g402"
         clip-path="url(#clipPath406)">
        <g
           id="g408"
           transform="translate(381.6104,292.7658)">
          <path
             d="m 0,0 c -2.353,12.239 -6.422,24.069 -11.269,35.53 -18.398,43.661 -47.609,81.343 -61.161,127.273 -6.88,23.318 -10.636,47.565 -11.284,71.87 -0.471,17.81 1.576,11.77 2.637,4.213 0.84,-5.936 1.871,-11.843 3.079,-17.706 5.598,-27.06 15.556,-52.647 28.371,-77.071 C -39.625,125.033 -28.224,106.738 -18.59,87.47 -8.72,67.716 -0.187,45.897 3.01,23.978 4.88,11.132 6.04,-0.758 6.1,-13.735 6.173,-30.41 4.512,-45.914 2.175,-63.634 3.328,-54.892 4.126,-21.458 0,0 Z"
             style="fill:none;stroke:#37aae1;stroke-width:0.5;stroke-linecap:butt;stroke-linejoin:miter;stroke-miterlimit:10;stroke-dasharray:none;stroke-opacity:1"
             id="path410" />
        </g>
      </g>
    </g>
    <g
       id="g412">
      <g
         id="g414">
        <g
           id="g420">
          <g
             id="g422">
            <path
               d="m 210.938,254.662 c 0.005,0.089 0.008,0.164 0.008,0.231 v 0 c -0.003,-0.076 -0.005,-0.154 -0.008,-0.231 m -0.088,-3.873 c 0.02,1.299 0.049,2.59 0.088,3.873 v 0 c -0.025,-0.493 -0.105,-1.418 -0.088,-3.873"
               style="fill:url(#linearGradient428);stroke:none"
               id="path430" />
          </g>
        </g>
      </g>
    </g>
    <g
       id="g432">
      <g
         id="g434"
         clip-path="url(#clipPath438)">
        <g
           id="g440"
           transform="translate(210.8506,250.7883)">
          <path
             d="M 0,0 C 0.021,1.378 0.052,2.746 0.095,4.105 0.095,3.664 -0.021,2.897 0,0 Z"
             style="fill:none;stroke:#37aae1;stroke-width:0.5;stroke-linecap:butt;stroke-linejoin:miter;stroke-miterlimit:10;stroke-dasharray:none;stroke-opacity:1"
             id="path442" />
        </g>
      </g>
    </g>
    <g
       id="g444">
      <g
         id="g446">
        <g
           id="g452">
          <g
             id="g454">
            <path
               d="m 221.827,300.484 c -3.285,-5.951 -5.597,-11.902 -7.232,-17.942 v 0 c 1.193,-4.419 2.754,-8.691 4.669,-12.8 v 0 c 0.81,1.665 1.664,3.329 2.563,4.963 v 0 c 7.159,12.919 16.985,24.189 29.86,31.657 v 0 c 0.692,0.398 1.399,0.795 2.106,1.163 v 0 c -3.255,7.395 -4.389,14.967 -4.729,22.98 v 0 C 237.545,323.067 228.5,312.564 221.827,300.484"
               style="fill:url(#linearGradient460);stroke:none"
               id="path462" />
          </g>
        </g>
      </g>
    </g>
    <g
       id="g464">
      <g
         id="g466"
         clip-path="url(#clipPath470)">
        <g
           id="g472"
           transform="translate(253.793,307.5256)">
          <path
             d="m 0,0 c -0.707,-0.368 -1.414,-0.766 -2.106,-1.164 -12.875,-7.468 -22.701,-18.737 -29.859,-31.656 -0.899,-1.635 -1.754,-3.299 -2.564,-4.964 -1.915,4.109 -3.476,8.382 -4.669,12.801 1.635,6.04 3.948,11.991 7.233,17.941 6.673,12.08 15.717,22.583 27.236,30.022 C -4.39,14.966 -3.255,7.395 0,0 Z"
             style="fill:none;stroke:#37aae1;stroke-width:0.5;stroke-linecap:butt;stroke-linejoin:miter;stroke-miterlimit:10;stroke-dasharray:none;stroke-opacity:1"
             id="path474" />
        </g>
      </g>
    </g>
    <g
       id="g476">
      <g
         id="g478">
        <g
           id="g484">
          <g
             id="g486">
            <path
               d="m 331.117,358.996 c -5.962,-5.269 -12.583,-7.264 -18.873,-9.031 v 0 c -0.604,-0.163 -12.198,-3.654 -17.677,-4.184 v 0 c -8.131,-1.856 -16.336,-3.462 -24.305,-5.833 v 0 c -3.153,-0.943 -6.276,-2.019 -9.339,-3.271 v 0 c 4.86,-6.908 10.444,-13.478 13.714,-21.33 v 0 c 6.526,1.738 13.154,3.094 19.754,4.626 v 0 c 12.167,2.798 30.802,5.406 39.08,15.924 v 0 c 1.488,1.886 0.133,18.973 0.089,22.008 v 0 c 0,0.488 -0.266,1.804 -1.139,1.804 v 0 c -0.338,0 -0.766,-0.196 -1.304,-0.713"
               style="fill:url(#linearGradient492);stroke:none"
               id="path494" />
          </g>
        </g>
      </g>
    </g>
    <g
       id="g496">
      <g
         id="g498"
         clip-path="url(#clipPath502)">
        <g
           id="g504"
           transform="translate(333.4707,335.8967)">
          <path
             d="m 0,0 c -8.278,-10.518 -26.913,-13.125 -39.08,-15.924 -6.599,-1.532 -13.228,-2.887 -19.754,-4.625 -3.27,7.851 -8.853,14.421 -13.714,21.33 3.064,1.252 6.187,2.327 9.339,3.27 7.969,2.372 16.174,3.977 24.306,5.833 5.479,0.531 17.073,4.022 17.676,4.184 6.29,1.767 12.911,3.763 18.873,9.032 1.932,1.853 2.443,-0.415 2.443,-1.092 C 0.133,18.973 1.488,1.886 0,0 Z"
             style="fill:none;stroke:#37aae1;stroke-width:0.5;stroke-linecap:butt;stroke-linejoin:miter;stroke-miterlimit:10;stroke-dasharray:none;stroke-opacity:1"
             id="path506" />
        </g>
      </g>
    </g>
    <g
       id="g508">
      <g
         id="g510">
        <g
           id="g516">
          <g
             id="g518">
            <path
               d="m 210.941,254.893 c 0.089,-0.148 0.206,-1.649 0.383,-4.523 v 0 c 0.03,-0.338 0.074,-0.678 0.104,-1.015 v 0 c 0.117,-1.062 0.25,-2.108 0.397,-3.168 v 0 c 0.074,0.516 0.133,1.031 0.221,1.532 v 0 c 0.634,3.712 1.546,7.351 2.711,10.916 v 0 c -1.076,4.404 -1.841,8.927 -2.328,13.537 v 0 c -0.869,-5.642 -1.296,-11.386 -1.488,-17.279"
               style="fill:url(#linearGradient524);stroke:none"
               id="path526" />
          </g>
        </g>
      </g>
    </g>
    <g
       id="g528">
      <g
         id="g530"
         clip-path="url(#clipPath534)">
        <g
           id="g536"
           transform="translate(214.7568,258.635)">
          <path
             d="m 0,0 c -1.164,-3.565 -2.077,-7.204 -2.71,-10.916 -0.089,-0.501 -0.148,-1.017 -0.222,-1.532 -0.147,1.06 -0.279,2.106 -0.397,3.168 -0.03,0.338 -0.074,0.676 -0.104,1.015 -0.176,2.873 -0.294,4.375 -0.382,4.523 0.191,5.892 0.618,11.638 1.487,17.279 C -1.841,8.927 -1.076,4.404 0,0 Z"
             style="fill:none;stroke:#37aae1;stroke-width:0.5;stroke-linecap:butt;stroke-linejoin:miter;stroke-miterlimit:10;stroke-dasharray:none;stroke-opacity:1"
             id="path538" />
        </g>
      </g>
    </g>
    <g
       id="g540">
      <g
         id="g542">
        <g
           id="g548">
          <g
             id="g550">
            <path
               d="m 300.637,289.098 c -8.809,-7.631 -16.469,-17.03 -23.01,-27.179 v 0 c -0.074,-1.339 -0.162,-2.666 -0.251,-3.976 v 0 c -0.824,-10.621 -5.125,-20.58 -10.517,-29.86 v 0 c 1.753,-0.545 3.521,-1.031 5.303,-1.443 v 0 c 4.772,8.367 10.164,16.38 16.13,23.73 v 0 c 13.655,16.808 40.377,36.813 62.325,21.536 v 0 c 3.079,-2.136 5.569,-5.007 7.321,-8.307 v 0 c 0.206,0.501 0.398,0.987 0.591,1.487 v 0 c 0.146,0.384 0.293,0.781 0.426,1.179 v 0 c 0.104,0.31 0.206,0.619 0.31,0.928 v 0 c 0.338,1.091 1.09,3.314 1.547,5.362 v 0 c 0.117,0.56 0.22,1.104 0.279,1.62 v 0 c 0.044,0.338 0.058,0.648 0.058,0.943 v 0 0.133 c -0.014,0.324 -0.029,0.618 -0.058,0.899 v 0 c -0.133,2.533 -0.412,5.037 -0.988,7.438 v 0 c -2.562,10.724 -11.724,17.545 -22.434,18.737 v 0 c -1.47,0.166 -2.932,0.245 -4.384,0.245 v 0 c -12.134,0 -23.531,-5.579 -32.648,-13.472"
               style="fill:url(#linearGradient556);stroke:none"
               id="path558" />
          </g>
        </g>
      </g>
    </g>
    <g
       id="g560">
      <g
         id="g562"
         clip-path="url(#clipPath566)">
        <g
           id="g568"
           transform="translate(361.1494,275.2502)">
          <path
             d="m 0,0 v -0.132 c 0,-0.295 -0.015,-0.604 -0.059,-0.943 -0.058,-0.516 -0.162,-1.061 -0.279,-1.62 -0.457,-2.048 -1.208,-4.272 -1.547,-5.363 -0.103,-0.308 -0.206,-0.618 -0.309,-0.927 -0.133,-0.398 -0.281,-0.795 -0.427,-1.179 -0.192,-0.5 -0.384,-0.986 -0.59,-1.487 -1.753,3.299 -4.242,6.172 -7.321,8.307 -21.948,15.277 -48.67,-4.728 -62.325,-21.536 -5.966,-7.35 -11.358,-15.363 -16.13,-23.73 -1.783,0.412 -3.551,0.898 -5.304,1.443 5.392,9.28 9.693,19.238 10.518,29.859 0.088,1.311 0.177,2.637 0.251,3.977 6.54,10.149 14.2,19.548 23.009,27.179 10.208,8.838 23.275,14.774 37.033,13.227 C -12.771,25.882 -3.608,19.062 -1.046,8.338 -0.471,5.937 -0.191,3.433 -0.059,0.899 -0.029,0.619 -0.015,0.324 0,0 Z"
             style="fill:none;stroke:#37aae1;stroke-width:0.5;stroke-linecap:butt;stroke-linejoin:miter;stroke-miterlimit:10;stroke-dasharray:none;stroke-opacity:1"
             id="path570" />
        </g>
      </g>
    </g>
    <g
       id="g572">
      <g
         id="g574">
        <g
           id="g580">
          <g
             id="g582">
            <path
               d="m 360.812,272.555 c -0.457,-2.048 -1.209,-4.271 -1.547,-5.362 v 0 c -0.104,-0.309 -0.206,-0.618 -0.31,-0.928 v 0 c 1.208,3.418 1.959,5.892 2.136,7.91 v 0 c -0.059,-0.516 -0.162,-1.06 -0.279,-1.62"
               style="fill:url(#linearGradient588);stroke:none"
               id="path590" />
          </g>
        </g>
      </g>
    </g>
    <g
       id="g592">
      <g
         id="g594"
         clip-path="url(#clipPath598)">
        <g
           id="g600"
           transform="translate(361.0908,274.175)">
          <path
             d="m 0,0 c -0.177,-2.018 -0.928,-4.492 -2.136,-7.91 0.104,0.309 0.206,0.619 0.31,0.928 0.339,1.09 1.09,3.314 1.547,5.362 0.117,0.559 0.22,1.104 0.279,1.62 z"
             style="fill:none;stroke:#37aae1;stroke-width:0.5;stroke-linecap:butt;stroke-linejoin:miter;stroke-miterlimit:10;stroke-dasharray:none;stroke-opacity:1"
             id="path602" />
        </g>
      </g>
    </g>
    <g
       id="g604">
      <g
         id="g606">
        <g
           id="g612">
          <g
             id="g614">
            <path
               d="m 360.812,272.555 c -0.457,-2.048 -1.209,-4.271 -1.547,-5.362 v 0 c -0.104,-0.309 -0.206,-0.618 -0.31,-0.928 v 0 c 1.208,3.418 1.959,5.892 2.136,7.91 v 0 c -0.059,-0.516 -0.162,-1.06 -0.279,-1.62"
               style="fill:url(#linearGradient620);stroke:none"
               id="path622" />
          </g>
        </g>
      </g>
    </g>
    <g
       id="g624">
      <g
         id="g626"
         clip-path="url(#clipPath630)">
        <g
           id="g632"
           transform="translate(361.0908,274.175)">
          <path
             d="m 0,0 c -0.177,-2.018 -0.928,-4.492 -2.136,-7.91 0.104,0.309 0.206,0.619 0.31,0.928 0.339,1.09 1.09,3.314 1.547,5.362 0.117,0.559 0.22,1.104 0.279,1.62 z"
             style="fill:none;stroke:#37aae1;stroke-width:0.5;stroke-linecap:butt;stroke-linejoin:miter;stroke-miterlimit:10;stroke-dasharray:none;stroke-opacity:1"
             id="path634" />
        </g>
      </g>
    </g>
    <g
       id="g636">
      <g
         id="g638">
        <g
           id="g644">
          <g
             id="g646">
            <path
               d="m 211.781,301.633 c -0.015,-1.384 -0.015,-2.769 -0.03,-4.169 v 0 c -0.029,-4.683 -0.014,-9.368 0.03,-14.053 v 0 c 0.015,-1.9 0.089,-3.801 0.192,-5.685 v 0 c 0.014,-0.266 0.029,-0.516 0.044,-0.782 v 0 c 0.103,-1.59 0.235,-3.195 0.412,-4.772 v 0 c 0.487,-4.61 1.252,-9.133 2.328,-13.537 v 0 c 4.787,-19.622 15.54,-36.871 34.043,-48.214 v 0 c 23.421,-14.362 53.545,-15.496 78.012,-3.005 v 0 c 13.524,6.908 26.781,17.868 31.981,32.599 v 0 c 1.576,4.464 2.003,8.985 2.121,13.582 v 0 c 0.059,2.239 0.044,4.492 0.044,6.777 v 0 c 0.015,4.728 0.384,9.81 0.191,14.744 v 0 c 0,-0.295 -0.014,-0.605 -0.058,-0.943 v 0 c -0.177,-2.018 -0.928,-4.492 -2.136,-7.91 v 0 c -0.133,-0.398 -0.28,-0.795 -0.426,-1.179 v 0 c -0.193,-0.5 -0.385,-0.986 -0.591,-1.487 v 0 c -4.963,-11.858 -15.231,-21.095 -26.073,-27.591 v 0 C 313.924,225.24 292.314,221.97 272.162,226.64 v 0 c -1.782,0.412 -3.55,0.898 -5.303,1.443 v 0 c -1.797,-3.108 -3.712,-6.142 -5.672,-9.089 v 0 c -1.074,-1.591 -2.136,-3.167 -3.21,-4.728 v 0 c 0.574,0.839 -0.133,4.862 -0.148,6.04 v 0 c -0.029,3.727 -0.044,7.453 -0.044,11.165 v 0 c -17.176,7.704 -30.728,21.567 -38.521,38.271 v 0 c -1.915,4.109 -3.476,8.381 -4.669,12.8 v 0 c -0.545,2.062 -1.017,4.155 -1.399,6.275 v 0 c -0.767,4.199 -1.194,8.485 -1.238,12.816 v 0 c -0.022,2.099 -0.055,3.149 -0.089,3.149 v 0 c -0.033,0 -0.066,-1.05 -0.088,-3.149"
               style="fill:url(#linearGradient652);stroke:none"
               id="path654" />
          </g>
        </g>
      </g>
    </g>
    <g
       id="g656">
      <g
         id="g658"
         clip-path="url(#clipPath662)">
        <g
           id="g664"
           transform="translate(360.958,260.3733)">
          <path
             d="m 0,0 c 0,-2.284 0.015,-4.537 -0.044,-6.776 -0.118,-4.597 -0.545,-9.119 -2.121,-13.582 -5.2,-14.731 -18.457,-25.691 -31.981,-32.599 -24.467,-12.491 -54.591,-11.357 -78.013,3.005 -18.502,11.343 -29.255,28.592 -34.042,48.214 -1.076,4.404 -1.841,8.926 -2.328,13.537 -0.177,1.576 -0.309,3.181 -0.412,4.772 -0.015,0.266 -0.03,0.516 -0.044,0.782 -0.103,1.884 -0.177,3.785 -0.192,5.685 -0.044,4.685 -0.059,9.369 -0.03,14.053 0.016,1.4 0.016,2.784 0.03,4.169 0.044,4.198 0.133,4.198 0.177,0 0.044,-4.331 0.471,-8.617 1.237,-12.816 0.383,-2.121 0.855,-4.213 1.4,-6.275 1.193,-4.419 2.754,-8.691 4.669,-12.801 7.793,-16.704 21.345,-30.566 38.521,-38.27 0,-3.712 0.015,-7.439 0.044,-11.165 0.015,-1.179 0.722,-5.201 0.148,-6.04 1.075,1.561 2.135,3.137 3.21,4.728 1.96,2.946 3.875,5.981 5.672,9.089 1.753,-0.545 3.52,-1.031 5.303,-1.443 20.151,-4.67 41.762,-1.4 59.703,9.368 10.842,6.496 21.11,15.732 26.073,27.591 0.207,0.501 0.398,0.987 0.59,1.487 0.147,0.384 0.294,0.781 0.427,1.179 1.208,3.418 1.959,5.892 2.136,7.91 0.044,0.339 0.058,0.648 0.058,0.943 C 0.384,9.811 0.015,4.729 0,0 Z"
             style="fill:none;stroke:#37aae1;stroke-width:0.5;stroke-linecap:butt;stroke-linejoin:miter;stroke-miterlimit:10;stroke-dasharray:none;stroke-opacity:1"
             id="path666" />
        </g>
      </g>
    </g>
    <g
       id="g668">
      <g
         id="g670">
        <g
           id="g676">
          <g
             id="g678">
            <path
               d="m 272.28,448.366 c -3.3,-6.954 -7.704,-13.479 -11.829,-19.755 v 0 c -7.998,-12.123 -15.305,-24.703 -22.346,-37.401 v 0 c -14.068,-25.351 -25.293,-51.94 -26.28,-81.283 v 0 c -0.132,-3.757 -0.117,-8.072 -0.074,-12.463 v 0 c 0.015,1.4 0.015,2.785 0.03,4.169 v 0 c 0.044,4.199 0.133,4.199 0.177,0 v 0 c 0.044,-4.331 0.471,-8.617 1.238,-12.816 v 0 c 3.711,25.234 14.818,48.538 27.413,70.766 v 0 c 6.923,12.242 14.171,24.203 21.845,35.988 v 0 c 7.366,11.313 14.422,23.053 15.04,36.856 v 0 c 0.206,4.404 0.162,9.56 0.074,14.715 v 0 c -0.076,3.886 -0.733,5.672 -1.738,5.672 v 0 c -0.942,0 -2.189,-1.569 -3.55,-4.448"
               style="fill:url(#linearGradient684);stroke:none"
               id="path686" />
          </g>
        </g>
      </g>
    </g>
    <g
       id="g688">
      <g
         id="g690"
         clip-path="url(#clipPath694)">
        <g
           id="g696"
           transform="translate(277.4946,432.4265)">
          <path
             d="m 0,0 c -0.619,-13.802 -7.675,-25.542 -15.04,-36.856 -7.675,-11.785 -14.922,-23.746 -21.846,-35.987 -12.594,-22.228 -23.701,-45.532 -27.413,-70.766 -0.766,4.198 -1.194,8.485 -1.238,12.816 -0.044,4.198 -0.132,4.198 -0.176,0 -0.015,-1.385 -0.015,-2.769 -0.03,-4.169 -0.044,4.39 -0.059,8.706 0.074,12.462 0.986,29.344 12.211,55.933 26.279,81.284 7.041,12.698 14.348,25.278 22.347,37.401 4.124,6.275 8.528,12.801 11.828,19.754 2.814,5.951 5.141,6.305 5.289,-1.223 C 0.162,9.561 0.206,4.405 0,0 Z"
             style="fill:none;stroke:#37aae1;stroke-width:0.5;stroke-linecap:butt;stroke-linejoin:miter;stroke-miterlimit:10;stroke-dasharray:none;stroke-opacity:1"
             id="path698" />
        </g>
      </g>
    </g>
    <g
       id="g700">
      <g
         id="g702">
        <g
           id="g708">
          <g
             id="g710">
            <path
               d="m 296.806,484.927 c -2.902,-1.871 -5.95,-3.359 -9.089,-4.641 v 0 c 0.222,-2.327 5.097,-13.154 4.125,-13.713 v 0 c -5.421,-3.021 -15.01,-6.776 -19.93,-0.9 v 0 c -1.562,1.872 -2.431,4.479 -3.094,7.086 v 0 c -1.517,-1.119 -2.769,-2.504 -3.505,-4.301 v 0 c -1.93,-4.699 -2.137,-10.091 -3.183,-15.114 v 0 c -0.353,-1.723 0.162,-2.224 1.37,-1.207 v 0 c 2.917,2.459 7.116,3.711 10.563,4.831 v 0 c 7.364,2.387 14.332,4.905 20.578,9.605 v 0 c 1.459,1.09 2.004,8.219 2.431,10.016 v 0 c 0.22,0.987 0.427,3.55 0.796,5.848 v 0 c 0.255,1.607 -0.063,2.63 -0.655,2.63 v 0 c -0.124,0 -0.261,-0.045 -0.407,-0.14"
               style="fill:url(#linearGradient716);stroke:none"
               id="path718" />
          </g>
        </g>
      </g>
    </g>
    <g
       id="g720">
      <g
         id="g722"
         clip-path="url(#clipPath726)">
        <g
           id="g728"
           transform="translate(297.8672,482.4372)">
          <path
             d="m 0,0 c -0.369,-2.298 -0.575,-4.861 -0.795,-5.848 -0.428,-1.797 -0.973,-8.927 -2.431,-10.017 -6.246,-4.699 -13.213,-7.218 -20.579,-9.604 -3.447,-1.12 -7.645,-2.372 -10.562,-4.832 -1.208,-1.016 -1.723,-0.515 -1.37,1.208 1.046,5.023 1.253,10.415 3.182,15.114 0.737,1.797 1.989,3.182 3.506,4.301 0.663,-2.607 1.532,-5.215 3.093,-7.086 4.92,-5.877 14.51,-2.121 19.931,0.899 0.972,0.56 -3.904,11.387 -4.124,13.714 3.137,1.282 6.186,2.77 9.088,4.641 C -0.221,3.035 0.309,1.944 0,0 Z"
             style="fill:none;stroke:#37aae1;stroke-width:0.5;stroke-linecap:butt;stroke-linejoin:miter;stroke-miterlimit:10;stroke-dasharray:none;stroke-opacity:1"
             id="path730" />
        </g>
      </g>
    </g>
  </g>
</svg>
