<?xml version="1.0" encoding="UTF-8"?>
<svg xmlns="http://www.w3.org/2000/svg" xmlns:xlink="http://www.w3.org/1999/xlink" width="40px" height="40px" viewBox="0 0 40 40" version="1.1">
<g id="surface1">
<path style=" stroke:none;fill-rule:nonzero;fill:rgb(79.215686%,61.960784%,40%);fill-opacity:1;" d="M 22.835938 20.507812 C 22.6875 21.027344 22.488281 21.449219 22.457031 21.875 C 22.332031 23.554688 21.960938 25.222656 22.285156 26.921875 C 22.390625 27.5 22.207031 27.738281 21.675781 27.964844 C 21.449219 28.0625 21.210938 28.136719 20.96875 28.183594 C 19.304688 28.523438 17.585938 28.46875 15.945312 28.027344 C 15.476562 27.863281 15.023438 27.65625 14.589844 27.410156 C 14.042969 27.140625 13.835938 26.6875 13.832031 26.074219 C 13.832031 23.738281 13.738281 21.402344 13.785156 19.066406 C 13.808594 17.929688 14.03125 16.796875 14.210938 15.667969 C 14.363281 14.878906 14.691406 14.128906 15.167969 13.480469 C 15.886719 13.242188 16.632812 13.320312 17.371094 13.332031 C 18.769531 13.359375 20.160156 13.183594 21.503906 12.8125 C 22.136719 12.636719 22.699219 12.332031 23.066406 11.742188 C 23.414062 11.238281 23.445312 10.582031 23.152344 10.050781 C 22.320312 8.433594 21.070312 7.800781 19.335938 8.300781 C 16.820312 9.015625 14.894531 10.46875 13.835938 12.9375 C 13.328125 14.121094 12.96875 14.289062 11.789062 13.96875 C 11.496094 13.90625 11.214844 13.796875 10.957031 13.648438 C 9.710938 12.832031 8.46875 12.007812 7.246094 11.152344 C 6.847656 10.878906 6.761719 10.476562 6.878906 9.96875 C 7.074219 9.144531 7.441406 8.371094 7.957031 7.699219 C 9.644531 5.480469 11.675781 3.539062 13.96875 1.953125 C 15.265625 1.042969 16.765625 0.695312 18.273438 0.359375 C 20.140625 -0.0507812 21.988281 -0.152344 23.886719 0.277344 C 25.746094 0.671875 27.433594 1.640625 28.710938 3.046875 C 29.519531 3.925781 30.273438 4.851562 31.011719 5.792969 C 31.976562 7.058594 32.636719 8.535156 32.9375 10.101562 C 33.742188 13.941406 32.351562 16.886719 29.445312 19.304688 C 28.382812 20.183594 27.160156 20.46875 25.84375 20.5 C 24.902344 20.527344 23.960938 20.507812 22.835938 20.507812 Z M 20.644531 26.621094 C 20.6875 26.308594 20.746094 25.972656 20.773438 25.632812 C 20.859375 24.589844 20.910156 23.550781 21.023438 22.507812 C 21.121094 21.617188 21.296875 20.738281 21.421875 19.851562 C 21.496094 19.332031 21.816406 19.0625 22.289062 18.984375 C 22.582031 18.929688 22.878906 18.902344 23.175781 18.90625 C 24.070312 18.929688 24.964844 18.957031 25.859375 19.011719 C 26.453125 19.070312 27.054688 18.972656 27.597656 18.722656 C 29.410156 17.808594 30.78125 16.464844 31.300781 14.472656 C 31.746094 12.769531 31.765625 11.03125 31.082031 9.339844 C 30.707031 8.367188 30.1875 7.453125 29.539062 6.632812 C 28.878906 5.824219 28.257812 4.980469 27.558594 4.199219 C 26.46875 3.003906 25.183594 2.105469 23.5625 1.710938 C 20.652344 0.992188 17.871094 1.472656 15.183594 2.742188 C 14.917969 2.886719 14.667969 3.046875 14.433594 3.230469 C 12.421875 4.644531 10.71875 6.382812 9.175781 8.277344 C 8.777344 8.765625 8.335938 9.269531 8.316406 9.949219 C 9.480469 11.152344 10.882812 12.09375 12.433594 12.714844 L 13.175781 11.472656 C 13.765625 10.484375 14.394531 9.519531 15.351562 8.851562 C 16.753906 7.871094 18.304688 7.140625 19.984375 6.886719 C 22.324219 6.539062 24.121094 7.722656 24.828125 10.289062 C 24.96875 10.824219 24.921875 11.390625 24.699219 11.898438 C 24.257812 12.964844 23.546875 13.71875 22.410156 14.082031 C 21.179688 14.488281 19.894531 14.6875 18.597656 14.679688 C 17.816406 14.679688 17.023438 14.597656 16.289062 14.753906 C 15.667969 15.625 15.597656 16.589844 15.546875 17.535156 C 15.421875 19.859375 15.339844 22.1875 15.257812 24.511719 C 15.265625 24.882812 15.292969 25.25 15.339844 25.613281 C 17.15625 26.898438 18.589844 27.167969 20.644531 26.621094 Z M 20.644531 26.621094 "/>
<path style=" stroke:none;fill-rule:nonzero;fill:rgb(79.215686%,61.960784%,40%);fill-opacity:1;" d="M 18.121094 39.996094 C 16.066406 40.070312 14.191406 38.824219 13.472656 36.898438 C 13.238281 36.347656 13.144531 35.746094 13.203125 35.152344 C 13.410156 33.53125 14.019531 32.125 15.246094 30.960938 C 16.375 29.886719 17.585938 29.621094 19.066406 30.007812 C 20.039062 30.261719 20.988281 30.5 21.742188 31.214844 C 22.863281 32.269531 23.46875 33.507812 23.183594 35.082031 C 23.140625 35.328125 23.117188 35.574219 23.078125 35.820312 C 22.617188 38.527344 20.871094 40 18.121094 39.996094 Z M 18.429688 38.550781 C 18.78125 38.503906 19.125 38.425781 19.460938 38.320312 C 20.808594 37.839844 22 35.914062 21.835938 34.511719 C 21.789062 34.273438 21.714844 34.039062 21.609375 33.816406 C 20.914062 32.050781 19.421875 31.492188 17.707031 31.328125 C 17.363281 31.300781 17.019531 31.386719 16.730469 31.574219 C 15.6875 32.320312 14.925781 33.339844 14.71875 34.59375 C 14.375 36.671875 16.058594 38.597656 18.429688 38.550781 Z M 18.429688 38.550781 "/>
<path style=" stroke:none;fill-rule:nonzero;fill:rgb(100%,100%,100%);fill-opacity:1;" d="M 20.644531 26.621094 C 18.589844 27.167969 17.15625 26.898438 15.339844 25.613281 C 15.292969 25.246094 15.269531 24.875 15.265625 24.507812 C 15.347656 22.179688 15.429688 19.851562 15.554688 17.527344 C 15.609375 16.589844 15.675781 15.632812 16.300781 14.75 C 17.03125 14.589844 17.824219 14.671875 18.605469 14.675781 C 19.902344 14.683594 21.1875 14.480469 22.417969 14.074219 C 23.554688 13.703125 24.265625 12.957031 24.707031 11.890625 C 24.929688 11.382812 24.976562 10.816406 24.839844 10.28125 C 24.121094 7.722656 22.324219 6.53125 19.984375 6.886719 C 18.292969 7.140625 16.753906 7.871094 15.351562 8.855469 C 14.390625 9.523438 13.765625 10.492188 13.175781 11.476562 L 12.433594 12.71875 C 10.882812 12.097656 9.480469 11.152344 8.316406 9.949219 C 8.335938 9.269531 8.777344 8.765625 9.175781 8.277344 C 10.71875 6.382812 12.421875 4.644531 14.433594 3.230469 C 14.667969 3.046875 14.917969 2.886719 15.183594 2.742188 C 17.871094 1.472656 20.652344 0.992188 23.589844 1.714844 C 25.199219 2.109375 26.488281 3.007812 27.582031 4.203125 C 28.277344 4.976562 28.90625 5.820312 29.566406 6.636719 C 30.214844 7.457031 30.734375 8.367188 31.109375 9.34375 C 31.792969 11.035156 31.773438 12.773438 31.328125 14.472656 C 30.804688 16.460938 29.433594 17.8125 27.621094 18.726562 C 27.078125 18.976562 26.480469 19.074219 25.886719 19.015625 C 24.992188 18.960938 24.097656 18.933594 23.203125 18.910156 C 22.90625 18.90625 22.605469 18.933594 22.316406 18.988281 C 21.832031 19.074219 21.511719 19.335938 21.445312 19.855469 C 21.320312 20.742188 21.148438 21.621094 21.050781 22.511719 C 20.9375 23.554688 20.878906 24.59375 20.796875 25.636719 C 20.746094 25.972656 20.6875 26.308594 20.644531 26.621094 Z M 20.644531 26.621094 "/>
<path style=" stroke:none;fill-rule:nonzero;fill:rgb(100%,100%,100%);fill-opacity:1;" d="M 18.429688 38.550781 C 16.058594 38.601562 14.375 36.675781 14.71875 34.597656 C 14.925781 33.34375 15.6875 32.320312 16.730469 31.574219 C 17.019531 31.382812 17.363281 31.292969 17.707031 31.320312 C 19.421875 31.480469 20.910156 32.042969 21.609375 33.808594 C 21.714844 34.03125 21.789062 34.261719 21.835938 34.503906 C 22 35.90625 20.808594 37.832031 19.460938 38.3125 C 19.125 38.417969 18.78125 38.5 18.429688 38.550781 Z M 18.429688 38.550781 "/>
</g>
</svg>
