<?xml version="1.0" encoding="UTF-8"?>
<svg xmlns="http://www.w3.org/2000/svg" xmlns:xlink="http://www.w3.org/1999/xlink" width="40px" height="40px" viewBox="0 0 40 40" version="1.1">
<g id="surface1">
<path style="fill:none;stroke-width:1.5;stroke-linecap:butt;stroke-linejoin:round;stroke:rgb(79.215686%,61.960784%,40%);stroke-opacity:1;stroke-miterlimit:4;" d="M 16.000781 6.278906 C 16.000781 6.88125 15.761719 7.457812 15.3375 7.886719 C 14.3625 8.871094 13.415625 9.895312 12.403125 10.844531 C 12.171094 11.057812 11.800781 11.050781 11.580469 10.825781 L 8.6625 7.886719 C 7.778906 6.996094 7.778906 5.561719 8.6625 4.673437 C 9.553125 3.775781 11.003906 3.775781 11.894531 4.673437 L 12 4.78125 L 12.105469 4.673437 C 12.532031 4.242187 13.115625 4.000781 13.722656 4.000781 C 14.329687 4.000781 14.910937 4.242187 15.3375 4.673437 C 15.761719 5.1 16.000781 5.678906 16.000781 6.278906 Z M 16.000781 6.278906 " transform="matrix(1.666667,0,0,1.666667,0,0)"/>
<path style="fill:none;stroke-width:1.5;stroke-linecap:round;stroke-linejoin:round;stroke:rgb(79.215686%,61.960784%,40%);stroke-opacity:1;stroke-miterlimit:4;" d="M 18 19.999219 L 21.825 16.176562 C 21.9375 16.064062 22.000781 15.911719 22.000781 15.752344 L 22.000781 10.5 C 22.000781 9.672656 21.328125 9 20.500781 9 C 19.671094 9 19.000781 9.672656 19.000781 10.5 L 19.000781 15 " transform="matrix(1.666667,0,0,1.666667,0,0)"/>
<path style="fill:none;stroke-width:1.5;stroke-linecap:round;stroke-linejoin:round;stroke:rgb(79.215686%,61.960784%,40%);stroke-opacity:1;stroke-miterlimit:4;" d="M 18 16.000781 L 18.857812 15.142969 C 18.949219 15.051562 19.000781 14.927344 19.000781 14.798437 C 19.000781 14.615625 18.895312 14.449219 18.73125 14.367187 L 18.288281 14.144531 C 17.519531 13.760156 16.589062 13.910156 15.979687 14.519531 L 15.086719 15.414844 C 14.711719 15.789844 14.500781 16.298437 14.500781 16.828125 L 14.500781 19.999219 " transform="matrix(1.666667,0,0,1.666667,0,0)"/>
<path style="fill:none;stroke-width:1.5;stroke-linecap:round;stroke-linejoin:round;stroke:rgb(79.215686%,61.960784%,40%);stroke-opacity:1;stroke-miterlimit:4;" d="M 6 19.999219 L 2.175 16.176562 C 2.0625 16.064062 1.999219 15.911719 1.999219 15.752344 L 1.999219 10.5 C 1.999219 9.672656 2.671875 9 3.499219 9 C 4.328906 9 4.999219 9.672656 4.999219 10.5 L 4.999219 15 " transform="matrix(1.666667,0,0,1.666667,0,0)"/>
<path style="fill:none;stroke-width:1.5;stroke-linecap:round;stroke-linejoin:round;stroke:rgb(79.215686%,61.960784%,40%);stroke-opacity:1;stroke-miterlimit:4;" d="M 6 16.000781 L 5.142187 15.142969 C 5.050781 15.051562 4.999219 14.927344 4.999219 14.798437 C 4.999219 14.615625 5.104687 14.449219 5.26875 14.367187 L 5.711719 14.144531 C 6.480469 13.760156 7.410937 13.910156 8.020312 14.519531 L 8.913281 15.414844 C 9.288281 15.789844 9.499219 16.298437 9.499219 16.828125 L 9.499219 19.999219 " transform="matrix(1.666667,0,0,1.666667,0,0)"/>
</g>
</svg>
