<svg xmlns="http://www.w3.org/2000/svg" xmlns:xlink="http://www.w3.org/1999/xlink" width="200" zoomAndPan="magnify" viewBox="0 0 150 149.999998" height="200" preserveAspectRatio="xMidYMid meet" version="1.0"><defs><clipPath id="78f9653c06"><path d="M 7.203125 7.203125 L 142.796875 7.203125 L 142.796875 142.796875 L 7.203125 142.796875 Z M 7.203125 7.203125 " clip-rule="nonzero"/></clipPath><clipPath id="6fb421aeff"><path d="M 75 7.203125 C 37.558594 7.203125 7.203125 37.558594 7.203125 75 C 7.203125 112.441406 37.558594 142.796875 75 142.796875 C 112.441406 142.796875 142.796875 112.441406 142.796875 75 C 142.796875 37.558594 112.441406 7.203125 75 7.203125 Z M 75 7.203125 " clip-rule="nonzero"/></clipPath><clipPath id="78f68d1770"><path d="M 36 31 L 117 31 L 117 121.90625 L 36 121.90625 Z M 36 31 " clip-rule="nonzero"/></clipPath></defs><g clip-path="url(#78f9653c06)"><g clip-path="url(#6fb421aeff)"><path fill="#ffffff" d="M 7.203125 7.203125 L 142.796875 7.203125 L 142.796875 142.796875 L 7.203125 142.796875 Z M 7.203125 7.203125 " fill-opacity="1" fill-rule="nonzero"/></g></g><g clip-path="url(#78f68d1770)"><path fill="#df9d69" d="M 68.675781 62.386719 C 67.902344 63.15625 66.980469 63.625 65.90625 63.800781 L 65.90625 64.851562 C 65.898438 65.085938 65.851562 65.304688 65.757812 65.519531 C 65.664062 65.730469 65.535156 65.917969 65.367188 66.078125 C 65.203125 66.242188 65.011719 66.367188 64.796875 66.453125 C 64.582031 66.539062 64.359375 66.582031 64.128906 66.582031 C 63.894531 66.582031 63.671875 66.539062 63.457031 66.453125 C 63.242188 66.367188 63.050781 66.242188 62.886719 66.078125 C 62.71875 65.917969 62.589844 65.730469 62.496094 65.519531 C 62.40625 65.304688 62.355469 65.085938 62.347656 64.851562 L 62.347656 63.800781 C 61.796875 63.710938 61.273438 63.53125 60.785156 63.261719 C 60.339844 63.03125 59.941406 62.742188 59.589844 62.386719 C 59.109375 61.910156 58.738281 61.359375 58.480469 60.734375 C 58.21875 60.109375 58.089844 59.457031 58.085938 58.78125 C 58.105469 58.554688 58.164062 58.34375 58.261719 58.140625 C 58.363281 57.9375 58.492188 57.757812 58.660156 57.605469 C 58.824219 57.453125 59.015625 57.332031 59.222656 57.25 C 59.433594 57.167969 59.652344 57.128906 59.878906 57.128906 C 60.105469 57.128906 60.324219 57.167969 60.53125 57.25 C 60.742188 57.332031 60.929688 57.453125 61.097656 57.605469 C 61.261719 57.757812 61.394531 57.9375 61.496094 58.140625 C 61.59375 58.34375 61.652344 58.554688 61.667969 58.78125 C 61.667969 59.195312 61.8125 59.550781 62.105469 59.847656 C 62.402344 60.148438 62.761719 60.304688 63.183594 60.308594 L 65.082031 60.308594 C 65.285156 60.304688 65.476562 60.261719 65.664062 60.183594 C 65.847656 60.105469 66.011719 59.996094 66.15625 59.851562 C 66.296875 59.710938 66.40625 59.546875 66.484375 59.359375 C 66.566406 59.175781 66.605469 58.984375 66.609375 58.78125 C 66.613281 58.496094 66.535156 58.234375 66.378906 58 C 66.328125 57.921875 66.273438 57.847656 66.210938 57.78125 C 65.910156 57.445312 65.535156 57.277344 65.082031 57.28125 L 63.183594 57.28125 C 62.332031 57.269531 61.53125 57.0625 60.78125 56.664062 C 60.335938 56.425781 59.9375 56.128906 59.589844 55.765625 L 59.5 55.675781 C 58.773438 54.921875 58.332031 54.027344 58.164062 52.992188 C 58.109375 52.664062 58.089844 52.332031 58.101562 52 C 58.113281 51.664062 58.15625 51.335938 58.234375 51.011719 C 58.3125 50.6875 58.417969 50.375 58.554688 50.070312 C 58.695312 49.765625 58.859375 49.480469 59.054688 49.210938 C 59.25 48.9375 59.46875 48.691406 59.714844 48.460938 C 59.957031 48.234375 60.222656 48.035156 60.503906 47.859375 C 60.789062 47.683594 61.085938 47.539062 61.398438 47.421875 C 61.710938 47.304688 62.03125 47.21875 62.363281 47.164062 L 62.363281 46.023438 C 62.375 45.792969 62.429688 45.570312 62.527344 45.359375 C 62.628906 45.152344 62.761719 44.96875 62.933594 44.808594 C 63.105469 44.652344 63.296875 44.535156 63.515625 44.453125 C 63.734375 44.371094 63.957031 44.332031 64.1875 44.339844 C 64.421875 44.347656 64.644531 44.398438 64.855469 44.492188 C 65.066406 44.585938 65.253906 44.714844 65.417969 44.882812 C 65.578125 45.046875 65.703125 45.238281 65.789062 45.453125 C 65.875 45.671875 65.917969 45.894531 65.917969 46.125 L 65.917969 47.164062 C 66.914062 47.34375 67.789062 47.777344 68.535156 48.460938 C 68.585938 48.5 68.625 48.550781 68.675781 48.589844 C 69.464844 49.378906 69.945312 50.324219 70.113281 51.425781 C 70.160156 51.675781 70.179688 51.929688 70.175781 52.183594 L 70.175781 52.492188 C 70.15625 52.730469 70.089844 52.953125 69.980469 53.164062 C 69.871094 53.378906 69.726562 53.558594 69.542969 53.714844 C 69.363281 53.867188 69.15625 53.980469 68.929688 54.050781 C 68.703125 54.125 68.46875 54.148438 68.234375 54.128906 C 67.996094 54.109375 67.769531 54.042969 67.558594 53.933594 C 67.347656 53.824219 67.164062 53.675781 67.011719 53.496094 C 66.859375 53.3125 66.746094 53.109375 66.671875 52.882812 C 66.601562 52.652344 66.574219 52.421875 66.597656 52.183594 C 66.597656 52.011719 66.566406 51.84375 66.507812 51.683594 C 66.425781 51.46875 66.304688 51.273438 66.148438 51.105469 C 65.851562 50.820312 65.496094 50.675781 65.082031 50.667969 L 63.171875 50.667969 C 62.761719 50.675781 62.414062 50.820312 62.121094 51.105469 L 62.105469 51.105469 C 62.015625 51.1875 61.941406 51.28125 61.886719 51.386719 C 61.734375 51.632812 61.65625 51.894531 61.660156 52.183594 C 61.65625 52.582031 61.789062 52.929688 62.054688 53.222656 C 62.359375 53.53125 62.726562 53.695312 63.160156 53.710938 L 65.070312 53.710938 C 66.164062 53.699219 67.152344 54.015625 68.035156 54.660156 C 68.269531 54.816406 68.484375 54.996094 68.679688 55.199219 L 68.78125 55.316406 C 69.414062 55.972656 69.828125 56.75 70.027344 57.640625 C 70.125 58.011719 70.171875 58.394531 70.167969 58.78125 C 70.171875 59.785156 69.894531 60.703125 69.34375 61.539062 C 69.15625 61.847656 68.933594 62.132812 68.675781 62.386719 Z M 114.0625 111.230469 C 113.460938 112.460938 112.730469 113.605469 111.867188 114.667969 C 111.007812 115.726562 110.039062 116.679688 108.964844 117.523438 C 107.886719 118.367188 106.730469 119.082031 105.496094 119.664062 C 104.257812 120.246094 102.972656 120.683594 101.636719 120.972656 C 100.027344 121.367188 98.390625 121.566406 96.734375 121.566406 C 93.027344 121.527344 89.539062 120.632812 86.273438 118.882812 C 84.230469 117.78125 82.257812 116.566406 80.355469 115.238281 L 79.355469 114.582031 C 75.519531 112.039062 71.707031 109.472656 67.878906 106.894531 L 65.558594 105.328125 C 65.082031 105.050781 64.65625 104.710938 64.28125 104.304688 C 63.910156 103.898438 63.605469 103.445312 63.367188 102.949219 C 63.132812 102.449219 62.976562 101.925781 62.898438 101.378906 C 62.820312 100.835938 62.824219 100.289062 62.914062 99.746094 C 62.960938 99.375 63.042969 99.015625 63.160156 98.660156 C 63.273438 98.308594 63.417969 97.964844 63.59375 97.640625 C 63.769531 97.3125 63.972656 97 64.203125 96.710938 C 64.4375 96.417969 64.691406 96.152344 64.972656 95.90625 C 65.25 95.664062 65.550781 95.445312 65.871094 95.253906 C 66.1875 95.0625 66.523438 94.902344 66.871094 94.773438 C 67.21875 94.640625 67.578125 94.542969 67.941406 94.476562 C 68.308594 94.410156 68.675781 94.378906 69.046875 94.378906 C 70.277344 94.460938 71.382812 94.867188 72.375 95.597656 C 73.566406 96.40625 74.773438 97.214844 76.003906 98.050781 L 76.519531 98.398438 L 75.09375 93.59375 C 73.503906 88.269531 71.917969 82.945312 70.34375 77.628906 L 66.800781 81.171875 C 66.101562 81.945312 65.230469 82.351562 64.183594 82.390625 C 63.15625 82.339844 62.289062 81.941406 61.578125 81.195312 C 59.921875 79.644531 51.515625 71.238281 40.296875 59.839844 C 39.859375 59.316406 39.453125 58.769531 39.078125 58.199219 C 38.703125 57.628906 38.367188 57.035156 38.066406 56.425781 C 37.761719 55.8125 37.5 55.183594 37.273438 54.539062 C 37.046875 53.894531 36.863281 53.242188 36.714844 52.574219 C 36.570312 51.90625 36.464844 51.234375 36.398438 50.554688 C 36.332031 49.875 36.308594 49.195312 36.328125 48.511719 C 36.34375 47.828125 36.402344 47.152344 36.5 46.476562 C 36.601562 45.800781 36.742188 45.132812 36.921875 44.476562 C 37.101562 43.816406 37.320312 43.171875 37.578125 42.539062 C 37.835938 41.910156 38.132812 41.296875 38.464844 40.699219 C 38.796875 40.101562 39.164062 39.53125 39.566406 38.976562 C 39.96875 38.425781 40.402344 37.902344 40.871094 37.402344 C 41.335938 36.902344 41.828125 36.433594 42.351562 35.996094 C 42.875 35.554688 43.421875 35.148438 43.992188 34.777344 C 44.5625 34.402344 45.15625 34.066406 45.769531 33.765625 C 46.382812 33.464844 47.007812 33.203125 47.652344 32.976562 C 49.039062 32.472656 50.46875 32.15625 51.9375 32.03125 C 53.40625 31.90625 54.867188 31.976562 56.320312 32.242188 C 57.773438 32.503906 59.164062 32.953125 60.496094 33.585938 C 61.828125 34.222656 63.054688 35.019531 64.171875 35.980469 C 65.550781 34.84375 67.0625 33.941406 68.714844 33.269531 C 69.316406 33.035156 69.925781 32.835938 70.546875 32.667969 C 71.167969 32.503906 71.796875 32.371094 72.433594 32.277344 C 73.070312 32.183594 73.710938 32.125 74.355469 32.101562 C 74.996094 32.082031 75.640625 32.09375 76.28125 32.144531 C 76.921875 32.195312 77.558594 32.285156 78.191406 32.40625 C 78.824219 32.53125 79.445312 32.6875 80.058594 32.882812 C 80.671875 33.074219 81.273438 33.304688 81.863281 33.566406 C 82.449219 33.828125 83.019531 34.121094 83.574219 34.449219 C 84.128906 34.773438 84.664062 35.132812 85.179688 35.519531 C 85.691406 35.90625 86.183594 36.320312 86.648438 36.765625 C 87.117188 37.207031 87.558594 37.675781 87.96875 38.167969 C 88.382812 38.660156 88.769531 39.175781 89.125 39.710938 C 89.480469 40.25 89.804688 40.804688 90.097656 41.378906 C 90.386719 41.949219 90.648438 42.539062 90.875 43.140625 C 91.097656 43.742188 91.289062 44.359375 91.445312 44.980469 C 91.601562 45.605469 91.722656 46.238281 91.808594 46.875 C 91.832031 47.003906 91.84375 47.121094 91.871094 47.246094 L 91.933594 47.671875 L 91.933594 50.289062 L 91.792969 51.214844 C 91.691406 51.84375 91.589844 52.496094 91.421875 53.152344 C 90.691406 56.175781 89.21875 58.78125 87.007812 60.96875 C 86.070312 61.917969 82.875 65.113281 80.050781 67.925781 L 79.984375 67.988281 L 79.820312 68.15625 C 80.101562 68.976562 80.410156 69.925781 80.769531 71.03125 C 81.039062 71.878906 81.242188 72.570312 81.371094 73.046875 L 82.050781 75.355469 C 83.25 74.308594 84.644531 73.78125 86.238281 73.777344 C 87.0625 73.761719 87.851562 73.917969 88.609375 74.246094 C 89.367188 74.574219 90.019531 75.042969 90.574219 75.652344 C 91.148438 75.03125 91.820312 74.546875 92.589844 74.203125 C 93.363281 73.855469 94.171875 73.675781 95.015625 73.664062 C 95.867188 73.613281 96.6875 73.753906 97.476562 74.082031 C 98.265625 74.410156 98.941406 74.894531 99.507812 75.535156 C 100.089844 74.917969 100.765625 74.425781 101.535156 74.058594 C 102.320312 73.695312 103.148438 73.507812 104.015625 73.5 C 104.878906 73.492188 105.710938 73.660156 106.503906 74.007812 C 107.269531 74.351562 107.929688 74.835938 108.480469 75.46875 C 109.035156 76.101562 109.425781 76.820312 109.660156 77.628906 C 111.535156 83.777344 113.460938 90.128906 115.269531 96.523438 C 116.027344 98.960938 116.304688 101.449219 116.09375 103.996094 C 115.886719 106.539062 115.210938 108.953125 114.0625 111.230469 Z M 69.242188 73.921875 C 69.152344 73.625 69.0625 73.316406 68.972656 73.007812 L 68.316406 70.8125 C 68.125 70.171875 68.007812 69.519531 67.96875 68.851562 C 67.960938 68.175781 68.066406 67.519531 68.289062 66.878906 C 68.511719 66.242188 68.835938 65.660156 69.261719 65.136719 C 69.691406 64.613281 70.195312 64.179688 70.777344 63.832031 C 71.355469 63.488281 71.980469 63.25 72.644531 63.125 C 73.390625 62.949219 74.144531 62.910156 74.910156 63.019531 C 75.671875 63.125 76.386719 63.367188 77.058594 63.742188 C 77.535156 64.046875 77.9375 64.433594 78.265625 64.898438 C 79.613281 63.550781 80.960938 62.1875 82.089844 61.074219 L 84.488281 58.671875 C 86.265625 56.929688 87.46875 54.855469 88.097656 52.445312 C 88.238281 51.917969 88.34375 51.382812 88.417969 50.84375 C 88.535156 49.964844 88.566406 49.082031 88.511719 48.195312 C 88.457031 47.308594 88.316406 46.4375 88.085938 45.578125 C 87.859375 44.71875 87.550781 43.890625 87.160156 43.09375 C 86.769531 42.296875 86.308594 41.546875 85.769531 40.839844 C 85.230469 40.132812 84.628906 39.488281 83.964844 38.898438 C 83.300781 38.3125 82.582031 37.792969 81.816406 37.347656 C 81.046875 36.902344 80.246094 36.535156 79.40625 36.246094 C 78.566406 35.957031 77.707031 35.753906 76.828125 35.632812 C 75.816406 35.484375 74.804688 35.453125 73.789062 35.539062 C 72.769531 35.625 71.777344 35.824219 70.804688 36.140625 C 69.835938 36.457031 68.914062 36.875 68.039062 37.40625 C 67.167969 37.933594 66.363281 38.550781 65.632812 39.265625 C 65.550781 39.382812 65.457031 39.484375 65.347656 39.578125 C 65.238281 39.671875 65.121094 39.75 64.996094 39.8125 C 64.867188 39.878906 64.734375 39.929688 64.597656 39.960938 C 64.457031 39.992188 64.316406 40.011719 64.175781 40.007812 C 64.03125 40.007812 63.890625 39.992188 63.753906 39.957031 C 63.613281 39.921875 63.484375 39.871094 63.355469 39.808594 C 63.230469 39.742188 63.113281 39.660156 63.003906 39.566406 C 62.898438 39.472656 62.804688 39.367188 62.722656 39.253906 C 61.023438 37.597656 59.03125 36.460938 56.738281 35.851562 C 55.59375 35.554688 54.429688 35.40625 53.25 35.402344 C 52.507812 35.40625 51.777344 35.46875 51.046875 35.589844 C 50.316406 35.710938 49.605469 35.894531 48.90625 36.132812 C 48.207031 36.371094 47.53125 36.667969 46.878906 37.015625 C 46.230469 37.367188 45.609375 37.765625 45.027344 38.21875 C 44.441406 38.667969 43.894531 39.164062 43.390625 39.703125 C 42.886719 40.246094 42.429688 40.824219 42.019531 41.4375 C 41.609375 42.054688 41.253906 42.695312 40.949219 43.371094 C 40.644531 44.042969 40.398438 44.738281 40.207031 45.453125 C 39.933594 46.429688 39.773438 47.429688 39.730469 48.445312 C 39.6875 49.460938 39.757812 50.46875 39.945312 51.46875 C 40.132812 52.46875 40.433594 53.433594 40.84375 54.363281 C 41.253906 55.292969 41.765625 56.164062 42.378906 56.976562 L 45.417969 60.046875 C 50.414062 65.089844 63.632812 78.425781 64.195312 78.976562 C 64.183594 78.953125 64.222656 78.9375 64.285156 78.875 C 64.890625 78.257812 65.507812 77.640625 66.121094 77.039062 Z M 111.929688 96.636719 L 106.695312 79.054688 C 106.621094 78.785156 106.523438 78.527344 106.410156 78.273438 C 106.261719 77.886719 106.023438 77.566406 105.699219 77.308594 C 105.375 77.054688 105.011719 76.894531 104.601562 76.832031 C 104.109375 76.753906 103.625 76.796875 103.152344 76.957031 C 102.679688 77.117188 102.273438 77.382812 101.933594 77.746094 C 101.628906 78.09375 101.4375 78.492188 101.355469 78.945312 C 101.273438 79.398438 101.308594 79.84375 101.46875 80.273438 L 101.855469 81.558594 C 102.175781 82.621094 102.496094 83.6875 102.804688 84.765625 C 102.984375 85.347656 102.875 85.867188 102.484375 86.332031 C 102.066406 86.777344 101.558594 86.949219 100.957031 86.84375 C 100.628906 86.792969 100.34375 86.652344 100.105469 86.421875 C 99.867188 86.191406 99.714844 85.914062 99.648438 85.585938 L 99.367188 84.664062 C 98.789062 82.6875 98.199219 80.699219 97.59375 78.734375 C 97.484375 78.40625 97.320312 78.113281 97.097656 77.855469 C 96.871094 77.59375 96.609375 77.382812 96.304688 77.226562 C 96 77.066406 95.675781 76.972656 95.335938 76.9375 C 94.992188 76.90625 94.65625 76.9375 94.328125 77.035156 C 94 77.132812 93.699219 77.289062 93.433594 77.5 C 93.164062 77.714844 92.945312 77.96875 92.773438 78.269531 C 92.605469 78.566406 92.496094 78.886719 92.453125 79.226562 C 92.40625 79.566406 92.425781 79.902344 92.511719 80.234375 C 92.949219 81.777344 93.410156 83.304688 93.859375 84.832031 L 94.476562 86.859375 C 94.53125 87.035156 94.578125 87.214844 94.617188 87.398438 C 94.671875 87.710938 94.640625 88.011719 94.519531 88.304688 C 94.402344 88.597656 94.210938 88.835938 93.953125 89.019531 C 93.695312 89.203125 93.40625 89.300781 93.089844 89.316406 C 92.773438 89.332031 92.480469 89.261719 92.203125 89.105469 C 91.800781 88.792969 91.523438 88.394531 91.371094 87.910156 C 90.457031 84.945312 89.570312 81.980469 88.710938 78.992188 C 88.613281 78.574219 88.425781 78.210938 88.144531 77.890625 C 87.859375 77.574219 87.519531 77.339844 87.121094 77.191406 C 86.675781 77.050781 86.226562 77.011719 85.765625 77.082031 C 85.304688 77.152344 84.882812 77.324219 84.503906 77.589844 C 84.273438 77.746094 84.078125 77.933594 83.914062 78.15625 C 83.75 78.378906 83.625 78.621094 83.542969 78.882812 C 83.457031 79.144531 83.421875 79.414062 83.429688 79.691406 C 83.4375 79.96875 83.492188 80.234375 83.589844 80.492188 C 84.078125 82.160156 84.578125 83.828125 85.066406 85.496094 L 86.3125 89.65625 C 86.433594 89.988281 86.4375 90.320312 86.332031 90.652344 C 86.222656 90.988281 86.023438 91.253906 85.734375 91.453125 C 85.445312 91.679688 85.117188 91.789062 84.753906 91.789062 C 84.386719 91.789062 84.058594 91.679688 83.769531 91.453125 C 83.460938 91.128906 83.242188 90.753906 83.117188 90.324219 C 81.292969 84.25 79.480469 78.175781 77.675781 72.109375 L 77.546875 71.699219 L 77.261719 70.722656 L 76.542969 68.3125 C 76.53125 68.273438 76.519531 68.222656 76.507812 68.183594 C 76.484375 68.085938 76.453125 67.992188 76.417969 67.902344 C 76.316406 67.632812 76.179688 67.382812 76.003906 67.15625 C 75.503906 66.535156 74.855469 66.226562 74.054688 66.230469 C 73.113281 66.242188 72.34375 66.609375 71.746094 67.335938 C 71.488281 67.683594 71.332031 68.074219 71.273438 68.5 C 71.214844 68.929688 71.257812 69.34375 71.410156 69.75 L 71.871094 71.289062 C 71.910156 71.40625 71.9375 71.519531 71.976562 71.636719 C 72.308594 72.699219 72.628906 73.777344 72.9375 74.84375 L 72.976562 75 C 73.578125 76.988281 74.171875 78.964844 74.761719 80.953125 L 80.085938 98.871094 C 80.371094 99.808594 80.652344 100.746094 80.921875 101.683594 C 80.992188 101.867188 81.03125 102.054688 81.035156 102.253906 C 81.039062 102.449219 81.007812 102.640625 80.941406 102.828125 C 80.878906 103.011719 80.785156 103.183594 80.660156 103.335938 C 80.53125 103.484375 80.386719 103.613281 80.214844 103.710938 C 79.910156 103.878906 79.585938 103.945312 79.238281 103.917969 C 78.894531 103.886719 78.585938 103.761719 78.316406 103.542969 C 76.480469 102.300781 74.644531 101.0625 72.808594 99.835938 L 70.398438 98.203125 C 69.804688 97.75 69.140625 97.585938 68.40625 97.714844 C 67.84375 97.839844 67.359375 98.105469 66.957031 98.519531 C 66.550781 98.933594 66.296875 99.421875 66.1875 99.988281 C 66.078125 100.515625 66.140625 101.023438 66.363281 101.511719 C 66.589844 101.996094 66.9375 102.371094 67.40625 102.632812 L 71.039062 105.070312 C 73.796875 106.917969 76.550781 108.761719 79.292969 110.601562 C 79.894531 111.015625 80.496094 111.425781 81.101562 111.824219 C 82.859375 113.015625 84.667969 114.25 86.515625 115.3125 C 88.523438 116.546875 90.679688 117.398438 92.988281 117.859375 C 95.300781 118.320312 97.617188 118.367188 99.941406 117.996094 C 100.699219 117.875 101.445312 117.695312 102.171875 117.460938 C 102.902344 117.226562 103.613281 116.9375 104.300781 116.597656 C 104.984375 116.253906 105.644531 115.863281 106.269531 115.425781 C 106.898438 114.984375 107.492188 114.5 108.046875 113.972656 C 108.601562 113.441406 109.113281 112.875 109.582031 112.269531 C 110.054688 111.664062 110.476562 111.023438 110.847656 110.355469 C 111.222656 109.6875 111.542969 108.992188 111.8125 108.273438 C 112.082031 107.558594 112.296875 106.824219 112.457031 106.074219 C 113.105469 102.882812 112.929688 99.738281 111.929688 96.636719 Z M 111.929688 96.636719 " fill-opacity="1" fill-rule="nonzero"/></g></svg>