<svg xmlns="http://www.w3.org/2000/svg" xmlns:xlink="http://www.w3.org/1999/xlink" width="140" zoomAndPan="magnify" viewBox="0 0 104.88 104.999996" height="140" preserveAspectRatio="xMidYMid meet" version="1.0"><defs><clipPath id="1a9f565300"><path d="M 19.175781 16.261719 L 85.703125 16.261719 L 85.703125 88.738281 L 19.175781 88.738281 Z M 19.175781 16.261719 " clip-rule="nonzero"/></clipPath><clipPath id="af05ae738f"><path d="M 52.441406 16.261719 C 34.070312 16.261719 19.175781 32.484375 19.175781 52.5 C 19.175781 72.515625 34.070312 88.738281 52.441406 88.738281 C 70.8125 88.738281 85.703125 72.515625 85.703125 52.5 C 85.703125 32.484375 70.8125 16.261719 52.441406 16.261719 Z M 52.441406 16.261719 " clip-rule="nonzero"/></clipPath><clipPath id="c909e5d4f4"><path d="M 31.464844 71 L 73.414062 71 L 73.414062 72.6875 L 31.464844 72.6875 Z M 31.464844 71 " clip-rule="nonzero"/></clipPath><clipPath id="fda2852360"><path d="M 58 32.230469 L 73 32.230469 L 73 52 L 58 52 Z M 58 32.230469 " clip-rule="nonzero"/></clipPath></defs><g clip-path="url(#1a9f565300)"><g clip-path="url(#af05ae738f)"><path fill="#ca9e66" d="M 19.175781 16.261719 L 85.703125 16.261719 L 85.703125 88.738281 L 19.175781 88.738281 Z M 19.175781 16.261719 " fill-opacity="1" fill-rule="nonzero"/></g></g><path fill="#ffffff" d="M 41.957031 48.972656 L 40.558594 48.972656 L 40.558594 50.367188 L 41.957031 50.367188 L 41.957031 48.972656 " fill-opacity="1" fill-rule="nonzero"/><path fill="#ffffff" d="M 55.234375 66.410156 L 52.441406 66.410156 C 52.054688 66.410156 51.742188 66.097656 51.742188 65.710938 L 51.742188 62.921875 C 51.742188 62.535156 52.054688 62.222656 52.441406 62.222656 L 55.234375 62.222656 C 55.621094 62.222656 55.933594 62.535156 55.933594 62.921875 L 55.933594 65.710938 C 55.933594 66.097656 55.621094 66.410156 55.234375 66.410156 Z M 51.742188 56.644531 C 51.742188 56.257812 52.054688 55.945312 52.441406 55.945312 L 55.234375 55.945312 C 55.621094 55.945312 55.933594 56.257812 55.933594 56.644531 L 55.933594 59.433594 C 55.933594 59.820312 55.621094 60.132812 55.234375 60.132812 L 52.441406 60.132812 C 52.054688 60.132812 51.742188 59.820312 51.742188 59.433594 Z M 56.632812 62.921875 C 56.632812 62.535156 56.945312 62.222656 57.332031 62.222656 L 60.128906 62.222656 C 60.515625 62.222656 60.828125 62.535156 60.828125 62.921875 L 60.828125 65.710938 C 60.828125 66.097656 60.515625 66.410156 60.128906 66.410156 L 57.332031 66.410156 C 56.945312 66.410156 56.632812 66.097656 56.632812 65.710938 Z M 56.632812 56.644531 C 56.632812 56.257812 56.945312 55.945312 57.332031 55.945312 L 60.128906 55.945312 C 60.515625 55.945312 60.828125 56.257812 60.828125 56.644531 L 60.828125 59.433594 C 60.828125 59.820312 60.515625 60.132812 60.128906 60.132812 L 57.332031 60.132812 C 56.945312 60.132812 56.632812 59.820312 56.632812 59.433594 Z M 51.042969 59.433594 C 51.042969 59.820312 50.730469 60.132812 50.34375 60.132812 L 47.546875 60.132812 C 47.160156 60.132812 46.847656 59.820312 46.847656 59.433594 L 46.847656 56.644531 C 46.847656 56.257812 47.160156 55.945312 47.546875 55.945312 L 50.34375 55.945312 C 50.730469 55.945312 51.042969 56.257812 51.042969 56.644531 Z M 61.527344 70.59375 L 61.527344 53.855469 L 46.148438 53.855469 L 46.148438 61.527344 L 47.023438 61.527344 C 47.511719 61.527344 47.929688 61.8125 48.125 62.222656 L 50.34375 62.222656 C 50.730469 62.222656 51.042969 62.535156 51.042969 62.921875 L 51.042969 65.710938 C 51.042969 66.097656 50.730469 66.410156 50.34375 66.410156 L 48.246094 66.410156 L 48.246094 70.59375 L 51.742188 70.59375 L 51.742188 67.804688 C 51.742188 67.417969 52.054688 67.105469 52.441406 67.105469 L 55.234375 67.105469 C 55.621094 67.105469 55.933594 67.417969 55.933594 67.804688 L 55.933594 70.59375 L 61.527344 70.59375 " fill-opacity="1" fill-rule="nonzero"/><path fill="#ffffff" d="M 53.140625 65.011719 L 54.535156 65.011719 L 54.535156 63.617188 L 53.140625 63.617188 L 53.140625 65.011719 " fill-opacity="1" fill-rule="nonzero"/><path fill="#ffffff" d="M 54.535156 70.59375 L 54.535156 68.5 L 53.140625 68.5 L 53.140625 70.59375 L 54.535156 70.59375 " fill-opacity="1" fill-rule="nonzero"/><path fill="#ffffff" d="M 41.957031 43.390625 L 40.558594 43.390625 L 40.558594 44.785156 L 41.957031 44.785156 L 41.957031 43.390625 " fill-opacity="1" fill-rule="nonzero"/><path fill="#ffffff" d="M 47.546875 48.972656 L 46.148438 48.972656 L 46.148438 50.367188 L 47.546875 50.367188 L 47.546875 48.972656 " fill-opacity="1" fill-rule="nonzero"/><path fill="#ffffff" d="M 47.546875 43.390625 L 46.148438 43.390625 L 46.148438 44.785156 L 47.546875 44.785156 L 47.546875 43.390625 " fill-opacity="1" fill-rule="nonzero"/><path fill="#ffffff" d="M 48.246094 63.617188 L 48.246094 65.011719 L 49.644531 65.011719 L 49.644531 63.617188 L 48.246094 63.617188 " fill-opacity="1" fill-rule="nonzero"/><path fill="#ffffff" d="M 67.117188 65.710938 L 65.71875 65.710938 L 65.71875 67.105469 L 67.117188 67.105469 L 67.117188 65.710938 " fill-opacity="1" fill-rule="nonzero"/><path fill="#ffffff" d="M 54.535156 57.339844 L 53.140625 57.339844 L 53.140625 58.734375 L 54.535156 58.734375 L 54.535156 57.339844 " fill-opacity="1" fill-rule="nonzero"/><path fill="#ffffff" d="M 64.320312 65.011719 C 64.320312 64.628906 64.632812 64.316406 65.019531 64.316406 L 67.816406 64.316406 C 68.203125 64.316406 68.515625 64.628906 68.515625 65.011719 L 68.515625 67.804688 C 68.515625 68.1875 68.203125 68.5 67.816406 68.5 L 65.019531 68.5 C 64.632812 68.5 64.320312 68.1875 64.320312 67.804688 Z M 64.320312 60.132812 C 64.320312 59.746094 64.632812 59.433594 65.019531 59.433594 L 67.816406 59.433594 C 68.203125 59.433594 68.515625 59.746094 68.515625 60.132812 L 68.515625 62.921875 C 68.515625 63.304688 68.203125 63.617188 67.816406 63.617188 L 65.019531 63.617188 C 64.632812 63.617188 64.320312 63.304688 64.320312 62.921875 Z M 62.921875 70.59375 L 69.214844 70.59375 L 69.214844 58.734375 L 62.921875 58.734375 L 62.921875 70.59375 " fill-opacity="1" fill-rule="nonzero"/><path fill="#ffffff" d="M 67.117188 60.828125 L 65.71875 60.828125 L 65.71875 62.222656 L 67.117188 62.222656 L 67.117188 60.828125 " fill-opacity="1" fill-rule="nonzero"/><path fill="#ffffff" d="M 59.429688 63.617188 L 58.03125 63.617188 L 58.03125 65.011719 L 59.429688 65.011719 L 59.429688 63.617188 " fill-opacity="1" fill-rule="nonzero"/><path fill="#ffffff" d="M 59.429688 57.339844 L 58.03125 57.339844 L 58.03125 58.734375 L 59.429688 58.734375 L 59.429688 57.339844 " fill-opacity="1" fill-rule="nonzero"/><path fill="#ffffff" d="M 48.246094 58.734375 L 49.644531 58.734375 L 49.644531 57.339844 L 48.246094 57.339844 L 48.246094 58.734375 " fill-opacity="1" fill-rule="nonzero"/><path fill="#ffffff" d="M 48.246094 36.417969 C 48.246094 36.03125 47.933594 35.71875 47.546875 35.71875 L 40.558594 35.71875 C 40.171875 35.71875 39.859375 36.03125 39.859375 36.417969 L 39.859375 37.8125 L 48.246094 37.8125 L 48.246094 36.417969 " fill-opacity="1" fill-rule="nonzero"/><path fill="#ffffff" d="M 44.054688 66.410156 L 44.054688 65.011719 L 42.65625 65.011719 L 42.65625 66.410156 L 44.054688 66.410156 " fill-opacity="1" fill-rule="nonzero"/><path fill="#ffffff" d="M 41.257812 66.410156 L 41.257812 65.011719 L 39.859375 65.011719 L 39.859375 66.410156 L 41.257812 66.410156 " fill-opacity="1" fill-rule="nonzero"/><path fill="#ffffff" d="M 46.847656 66.410156 L 46.847656 65.011719 L 45.449219 65.011719 L 45.449219 66.410156 L 46.847656 66.410156 " fill-opacity="1" fill-rule="nonzero"/><path fill="#ffffff" d="M 46.847656 62.921875 L 34.269531 62.921875 L 34.269531 63.617188 L 46.847656 63.617188 L 46.847656 62.921875 " fill-opacity="1" fill-rule="nonzero"/><path fill="#ffffff" d="M 50.34375 39.902344 L 50.34375 39.207031 L 37.761719 39.207031 L 37.761719 39.902344 L 50.34375 39.902344 " fill-opacity="1" fill-rule="nonzero"/><path fill="#ffffff" d="M 38.460938 66.410156 L 38.460938 65.011719 L 37.0625 65.011719 L 37.0625 66.410156 L 38.460938 66.410156 " fill-opacity="1" fill-rule="nonzero"/><path fill="#ffffff" d="M 35.667969 69.199219 C 35.667969 68.8125 35.980469 68.5 36.367188 68.5 L 39.160156 68.5 C 39.546875 68.5 39.859375 68.8125 39.859375 69.199219 L 39.859375 70.59375 L 46.847656 70.59375 L 46.847656 67.804688 L 34.269531 67.804688 L 34.269531 70.59375 L 35.667969 70.59375 L 35.667969 69.199219 " fill-opacity="1" fill-rule="nonzero"/><path fill="#ffffff" d="M 35.667969 65.011719 L 34.269531 65.011719 L 34.269531 66.410156 L 35.667969 66.410156 L 35.667969 65.011719 " fill-opacity="1" fill-rule="nonzero"/><g clip-path="url(#c909e5d4f4)"><path fill="#ffffff" d="M 31.472656 71.289062 L 31.472656 72.6875 L 73.40625 72.6875 L 73.40625 71.289062 L 31.472656 71.289062 " fill-opacity="1" fill-rule="nonzero"/></g><path fill="#ffffff" d="M 40.558594 55.945312 L 41.957031 55.945312 L 41.957031 54.550781 L 40.558594 54.550781 L 40.558594 55.945312 " fill-opacity="1" fill-rule="nonzero"/><path fill="#ffffff" d="M 38.460938 70.59375 L 38.460938 69.894531 L 37.0625 69.894531 L 37.0625 70.59375 L 38.460938 70.59375 " fill-opacity="1" fill-rule="nonzero"/><path fill="#ffffff" d="M 41.957031 61.527344 L 41.957031 60.132812 L 40.558594 60.132812 L 40.558594 61.527344 L 41.957031 61.527344 " fill-opacity="1" fill-rule="nonzero"/><path fill="#ffffff" d="M 42.65625 57.339844 L 39.859375 57.339844 C 39.472656 57.339844 39.160156 57.027344 39.160156 56.644531 L 39.160156 53.855469 C 39.160156 53.46875 39.472656 53.15625 39.859375 53.15625 L 42.65625 53.15625 C 43.042969 53.15625 43.355469 53.46875 43.355469 53.855469 L 43.355469 56.644531 C 43.355469 57.027344 43.042969 57.339844 42.65625 57.339844 Z M 39.160156 48.273438 C 39.160156 47.890625 39.472656 47.578125 39.859375 47.578125 L 42.65625 47.578125 C 43.042969 47.578125 43.355469 47.890625 43.355469 48.273438 L 43.355469 51.0625 C 43.355469 51.449219 43.042969 51.761719 42.65625 51.761719 L 39.859375 51.761719 C 39.472656 51.761719 39.160156 51.449219 39.160156 51.0625 Z M 39.160156 42.695312 C 39.160156 42.308594 39.472656 41.996094 39.859375 41.996094 L 42.65625 41.996094 C 43.042969 41.996094 43.355469 42.308594 43.355469 42.695312 L 43.355469 45.484375 C 43.355469 45.871094 43.042969 46.179688 42.65625 46.179688 L 39.859375 46.179688 C 39.472656 46.179688 39.160156 45.871094 39.160156 45.484375 Z M 44.753906 48.273438 C 44.753906 47.890625 45.066406 47.578125 45.449219 47.578125 L 48.246094 47.578125 C 48.632812 47.578125 48.945312 47.890625 48.945312 48.273438 L 48.945312 51.0625 C 48.945312 51.449219 48.632812 51.761719 48.246094 51.761719 L 45.449219 51.761719 C 45.066406 51.761719 44.753906 51.449219 44.753906 51.0625 Z M 44.753906 42.695312 C 44.753906 42.308594 45.066406 41.996094 45.449219 41.996094 L 48.246094 41.996094 C 48.632812 41.996094 48.945312 42.308594 48.945312 42.695312 L 48.945312 45.484375 C 48.945312 45.871094 48.632812 46.179688 48.246094 46.179688 L 45.449219 46.179688 C 45.066406 46.179688 44.753906 45.871094 44.753906 45.484375 Z M 44.753906 61.527344 L 44.753906 53.15625 C 44.753906 52.769531 45.066406 52.457031 45.449219 52.457031 L 49.644531 52.457031 L 49.644531 41.300781 L 38.460938 41.300781 L 38.460938 61.527344 L 39.160156 61.527344 L 39.160156 59.433594 C 39.160156 59.046875 39.472656 58.734375 39.859375 58.734375 L 42.65625 58.734375 C 43.042969 58.734375 43.355469 59.046875 43.355469 59.433594 L 43.355469 61.527344 L 44.753906 61.527344 " fill-opacity="1" fill-rule="nonzero"/><path fill="#ffffff" d="M 69.214844 39.207031 C 69.214844 36.898438 67.332031 35.023438 65.019531 35.023438 C 62.707031 35.023438 60.828125 36.898438 60.828125 39.207031 C 60.828125 41.515625 62.707031 43.390625 65.019531 43.390625 C 67.332031 43.390625 69.214844 41.515625 69.214844 39.207031 " fill-opacity="1" fill-rule="nonzero"/><g clip-path="url(#fda2852360)"><path fill="#ffffff" d="M 59.429688 39.207031 C 59.429688 36.128906 61.9375 33.625 65.019531 33.625 C 68.101562 33.625 70.609375 36.128906 70.609375 39.207031 C 70.609375 42.285156 68.101562 44.785156 65.019531 44.785156 C 61.9375 44.785156 59.429688 42.285156 59.429688 39.207031 Z M 72.007812 39.207031 C 72.007812 35.359375 68.875 32.230469 65.019531 32.230469 C 61.167969 32.230469 58.03125 35.359375 58.03125 39.207031 C 58.03125 42.222656 62.664062 48.496094 65.019531 51.371094 C 67.375 48.496094 72.007812 42.222656 72.007812 39.207031 " fill-opacity="1" fill-rule="nonzero"/></g></svg>