<svg xmlns="http://www.w3.org/2000/svg" xmlns:xlink="http://www.w3.org/1999/xlink" width="200" zoomAndPan="magnify" viewBox="0 0 150 149.999998" height="200" preserveAspectRatio="xMidYMid meet" version="1.0"><defs><clipPath id="0d770eb28c"><path d="M 7.203125 7.203125 L 142.796875 7.203125 L 142.796875 142.796875 L 7.203125 142.796875 Z M 7.203125 7.203125 " clip-rule="nonzero"/></clipPath><clipPath id="7313eb3e86"><path d="M 75 7.203125 C 37.558594 7.203125 7.203125 37.558594 7.203125 75 C 7.203125 112.441406 37.558594 142.796875 75 142.796875 C 112.441406 142.796875 142.796875 112.441406 142.796875 75 C 142.796875 37.558594 112.441406 7.203125 75 7.203125 Z M 75 7.203125 " clip-rule="nonzero"/></clipPath><clipPath id="385c3d50af"><path d="M 54 32.9375 L 96 32.9375 L 96 45 L 54 45 Z M 54 32.9375 " clip-rule="nonzero"/></clipPath><clipPath id="c6019be6bb"><path d="M 62 95 L 88 95 L 88 116.9375 L 62 116.9375 Z M 62 95 " clip-rule="nonzero"/></clipPath><clipPath id="5e380a3ed5"><path d="M 31.355469 60 L 57 60 L 57 83 L 31.355469 83 Z M 31.355469 60 " clip-rule="nonzero"/></clipPath><clipPath id="ab976e4d52"><path d="M 93 60 L 118.355469 60 L 118.355469 83 L 93 83 Z M 93 60 " clip-rule="nonzero"/></clipPath></defs><g clip-path="url(#0d770eb28c)"><g clip-path="url(#7313eb3e86)"><path fill="#ffffff" d="M 7.203125 7.203125 L 142.796875 7.203125 L 142.796875 142.796875 L 7.203125 142.796875 Z M 7.203125 7.203125 " fill-opacity="1" fill-rule="nonzero"/></g></g><g clip-path="url(#385c3d50af)"><path fill="#df9d69" d="M 92.660156 44.683594 C 87.644531 41.195312 81.570312 39.167969 74.996094 39.167969 C 68.421875 39.167969 62.347656 41.195312 57.332031 44.683594 C 56.738281 42.628906 55.710938 40.757812 54.308594 39.199219 C 60.230469 35.242188 67.363281 32.9375 74.996094 32.9375 C 82.628906 32.9375 89.765625 35.242188 95.683594 39.199219 C 94.28125 40.757812 93.253906 42.628906 92.660156 44.683594 Z M 92.660156 44.683594 " fill-opacity="1" fill-rule="nonzero"/></g><path fill="#df9d69" d="M 60.851562 98.050781 C 59.667969 99.765625 58.796875 101.695312 58.328125 103.785156 C 51.226562 100.230469 45.398438 94.5 41.785156 87.457031 L 48.984375 87.457031 C 51.941406 91.945312 56.054688 95.621094 60.851562 98.050781 Z M 60.851562 98.050781 " fill-opacity="1" fill-rule="nonzero"/><path fill="#df9d69" d="M 108.207031 87.457031 C 104.59375 94.5 98.769531 100.230469 91.664062 103.785156 C 91.195312 101.695312 90.324219 99.765625 89.140625 98.050781 C 93.9375 95.621094 98.050781 91.945312 101.011719 87.457031 Z M 108.207031 87.457031 " fill-opacity="1" fill-rule="nonzero"/><path fill="#df9d69" d="M 84.34375 82.785156 C 84.34375 87.949219 80.160156 92.132812 74.996094 92.132812 C 69.835938 92.132812 65.648438 87.949219 65.648438 82.785156 C 65.648438 77.625 69.835938 73.4375 74.996094 73.4375 C 80.160156 73.4375 84.34375 77.625 84.34375 82.785156 Z M 84.34375 82.785156 " fill-opacity="1" fill-rule="nonzero"/><g clip-path="url(#c6019be6bb)"><path fill="#df9d69" d="M 87.457031 107.710938 L 87.457031 115.496094 C 87.457031 116.359375 86.761719 117.054688 85.902344 117.054688 L 64.09375 117.054688 C 63.234375 117.054688 62.535156 116.359375 62.535156 115.496094 L 62.535156 107.710938 C 62.535156 100.828125 68.113281 95.246094 74.996094 95.246094 C 81.878906 95.246094 87.457031 100.828125 87.457031 107.710938 Z M 87.457031 107.710938 " fill-opacity="1" fill-rule="nonzero"/></g><path fill="#df9d69" d="M 53.1875 48.515625 C 53.1875 53.679688 49.003906 57.863281 43.84375 57.863281 C 38.679688 57.863281 34.496094 53.679688 34.496094 48.515625 C 34.496094 43.351562 38.679688 39.167969 43.84375 39.167969 C 49.003906 39.167969 53.1875 43.351562 53.1875 48.515625 Z M 53.1875 48.515625 " fill-opacity="1" fill-rule="nonzero"/><g clip-path="url(#5e380a3ed5)"><path fill="#df9d69" d="M 56.304688 73.4375 L 56.304688 81.226562 C 56.304688 82.085938 55.605469 82.785156 54.746094 82.785156 L 32.9375 82.785156 C 32.078125 82.785156 31.378906 82.085938 31.378906 81.226562 L 31.378906 73.4375 C 31.378906 66.558594 36.960938 60.976562 43.84375 60.976562 C 50.722656 60.976562 56.304688 66.558594 56.304688 73.4375 Z M 56.304688 73.4375 " fill-opacity="1" fill-rule="nonzero"/></g><path fill="#df9d69" d="M 106.152344 39.167969 C 111.3125 39.167969 115.496094 43.351562 115.496094 48.515625 C 115.496094 53.679688 111.3125 57.863281 106.152344 57.863281 C 100.988281 57.863281 96.804688 53.679688 96.804688 48.515625 C 96.804688 43.351562 100.988281 39.167969 106.152344 39.167969 Z M 106.152344 39.167969 " fill-opacity="1" fill-rule="nonzero"/><g clip-path="url(#ab976e4d52)"><path fill="#df9d69" d="M 106.152344 60.976562 C 113.035156 60.976562 118.613281 66.558594 118.613281 73.4375 L 118.613281 81.226562 C 118.613281 82.085938 117.914062 82.785156 117.054688 82.785156 L 95.246094 82.785156 C 94.386719 82.785156 93.6875 82.085938 93.6875 81.226562 L 93.6875 73.4375 C 93.6875 66.558594 99.269531 60.976562 106.152344 60.976562 Z M 106.152344 60.976562 " fill-opacity="1" fill-rule="nonzero"/></g></svg>