<svg xmlns="http://www.w3.org/2000/svg" xmlns:xlink="http://www.w3.org/1999/xlink" width="206.205" height="47.586" viewBox="0 0 206.205 47.586"><defs><style>.a{fill:url(#a);}.b{opacity:0.289;clip-path:url(#b);}.c{fill:rgba(3,149,106,0.33);}.d{fill:rgba(3,149,106,0.12);}</style><linearGradient id="a" x1="1" y1="0.95" x2="0.1" y2="0.235" gradientUnits="objectBoundingBox"><stop offset="0" stop-color="#058a71"/><stop offset="1" stop-color="#184e5d"/></linearGradient><clipPath id="b"><path class="a" d="M0,0H206.2a0,0,0,0,1,0,0V42.586a5,5,0,0,1-5,5H16a16,16,0,0,1-16-16V0A0,0,0,0,1,0,0Z" transform="translate(206.205 47.586) rotate(180)"/></clipPath></defs><g class="b"><g transform="translate(-11.462 -138.718)"><path class="c" d="M-953.62-798.03c-4.9,44.69-49.233,80.259-104.8,84C-1053.515-758.719-1009.185-794.288-953.62-798.03Z" transform="translate(1132.469 897.723)"/><path class="c" d="M-953.621-531.011c-55.564-3.742-99.894-39.31-104.8-84C-1002.854-611.27-958.522-575.7-953.621-531.011Z" transform="translate(1132.469 615.011)"/><path class="d" d="M-964.577-798.03c-4.39,40.017-44.085,71.868-93.84,75.218C-1054.027-762.829-1014.332-794.68-964.577-798.03Z" transform="translate(1058.417 896.903)"/><path class="d" d="M-964.577-539.793c-49.755-3.351-89.45-35.2-93.84-75.218C-1008.663-611.661-968.967-579.811-964.577-539.793Z" transform="translate(1058.417 624.614)"/></g></g></svg>