<svg xmlns="http://www.w3.org/2000/svg" width="96.807" height="94.254" viewBox="0 0 96.807 94.254"><defs><style>.a{fill:rgba(3,149,106,0.33);}.b{fill:rgba(3,149,106,0.12);}</style></defs><g transform="translate(96.807) rotate(90)"><path class="a" d="M-1003.189-798.03c-2.584,23.552-25.946,42.3-55.228,44.269C-1055.834-777.313-1032.472-796.058-1003.189-798.03Z" transform="translate(1097.443 850.568)"/><path class="a" d="M-1003.189-570.743c-29.283-1.972-52.645-20.717-55.228-44.268C-1029.135-613.039-1005.772-594.294-1003.189-570.743Z" transform="translate(1097.443 615.011)"/><path class="b" d="M-1008.963-798.03c-2.313,21.089-23.233,37.875-49.454,39.64C-1056.1-779.479-1035.184-796.264-1008.963-798.03Z" transform="translate(1058.417 850.136)"/><path class="b" d="M-1008.963-575.371c-26.221-1.766-47.14-18.551-49.454-39.64C-1032.2-613.246-1011.277-596.46-1008.963-575.371Z" transform="translate(1058.417 620.072)"/></g></svg>