<svg xmlns="http://www.w3.org/2000/svg" xmlns:xlink="http://www.w3.org/1999/xlink" width="99" height="429" viewBox="0 0 99 429"><defs><style>.a{fill:url(#a);}.b{opacity:0.344;clip-path:url(#b);}.c{fill:rgba(3,149,106,0.33);}.d{fill:rgba(3,149,106,0.12);}</style><linearGradient id="a" x1="1" y1="0.95" x2="0.1" y2="0.235" gradientUnits="objectBoundingBox"><stop offset="0" stop-color="#058a71"/><stop offset="1" stop-color="#184e5d"/></linearGradient><clipPath id="b"><path class="a" d="M0,0H429a0,0,0,0,1,0,0V83a16,16,0,0,1-16,16H16A16,16,0,0,1,0,83V0A0,0,0,0,1,0,0Z" transform="translate(-0.002)"/></clipPath></defs><g class="b" transform="translate(99 0.002) rotate(90)"><g transform="translate(-25.655 -283.16)"><path class="c" d="M218.021,0C207.821,92.973,115.6,166.972,0,174.756,10.2,81.784,102.422,7.784,218.021,0Z" transform="translate(154.057 207.401)"/><path class="c" d="M218.019,174.755C102.423,166.969,10.2,92.973,0,0,115.594,7.783,207.821,81.782,218.019,174.755Z" transform="translate(154.057)"/><path class="d" d="M195.226,0C186.093,83.252,103.511,149.515,0,156.485,9.133,73.233,91.714,6.97,195.226,0Z" transform="translate(0.001 205.695)"/><path class="d" d="M195.225,156.483C91.714,149.512,9.132,83.252,0,0,103.508,6.969,186.093,73.231,195.225,156.483Z" transform="translate(0 19.979)"/></g></g></svg>