<svg xmlns="http://www.w3.org/2000/svg" width="186.111" height="782.994" viewBox="0 0 186.111 782.994"><defs><style>.a{opacity:0.864;}.b,.d{isolation:isolate;}.c{fill:#2aa883;}.d{opacity:0.584;}</style></defs><g class="a"><g class="b" transform="translate(0 603.741)"><path class="c" d="M-785-34.3a90.383,90.383,0,0,0-82.391,81.97A90.381,90.381,0,0,0-785-34.3Z" transform="translate(867.389 34.301)"/><path class="c" d="M-785,230.687a90.382,90.382,0,0,0-82.389-81.97A90.381,90.381,0,0,0-785,230.687Z" transform="translate(867.388 -51.434)"/></g><g class="b" transform="translate(103.72 603.741)"><path class="c" d="M-976.027,47.669a90.382,90.382,0,0,0-82.391-81.97A90.382,90.382,0,0,0-976.027,47.669Z" transform="translate(1058.417 34.301)"/><path class="c" d="M-976.027,148.717a90.382,90.382,0,0,0-82.39,81.97A90.382,90.382,0,0,0-976.027,148.717Z" transform="translate(1058.417 -51.434)"/></g><g class="b" transform="translate(0 405.959)"><path class="c" d="M-785-406.388a90.383,90.383,0,0,0-82.391,81.97A90.381,90.381,0,0,0-785-406.388Z" transform="translate(867.389 406.388)"/><path class="c" d="M-785-141.4a90.381,90.381,0,0,0-82.389-81.97A90.382,90.382,0,0,0-785-141.4Z" transform="translate(867.388 320.652)"/></g><g class="b" transform="translate(103.72 405.959)"><path class="c" d="M-976.027-324.418a90.383,90.383,0,0,0-82.391-81.97A90.381,90.381,0,0,0-976.027-324.418Z" transform="translate(1058.417 406.388)"/><path class="c" d="M-976.027-223.369a90.382,90.382,0,0,0-82.39,81.97A90.382,90.382,0,0,0-976.027-223.369Z" transform="translate(1058.417 320.652)"/></g><g class="b" transform="translate(0 197.782)"><path class="c" d="M-785-798.03a90.383,90.383,0,0,0-82.391,81.97A90.381,90.381,0,0,0-785-798.03Z" transform="translate(867.389 798.03)"/><path class="c" d="M-785-533.041a90.381,90.381,0,0,0-82.389-81.97A90.381,90.381,0,0,0-785-533.041Z" transform="translate(867.388 712.294)"/></g><g class="b" transform="translate(103.72 197.782)"><path class="c" d="M-976.027-716.06a90.382,90.382,0,0,0-82.391-81.97A90.382,90.382,0,0,0-976.027-716.06Z" transform="translate(1058.417 798.03)"/><path class="c" d="M-976.027-615.011a90.382,90.382,0,0,0-82.39,81.97A90.381,90.381,0,0,0-976.027-615.011Z" transform="translate(1058.417 712.294)"/></g><g class="d" transform="translate(0)"><path class="c" d="M-785-1170.116a90.383,90.383,0,0,0-82.391,81.97A90.381,90.381,0,0,0-785-1170.116Z" transform="translate(867.389 1170.116)"/><path class="c" d="M-785-905.128a90.381,90.381,0,0,0-82.389-81.97A90.381,90.381,0,0,0-785-905.128Z" transform="translate(867.388 1084.381)"/></g><g class="b" transform="translate(103.72)"><path class="c" d="M-976.027-1088.146a90.382,90.382,0,0,0-82.391-81.97A90.382,90.382,0,0,0-976.027-1088.146Z" transform="translate(1058.417 1170.116)"/><path class="c" d="M-976.027-987.1a90.382,90.382,0,0,0-82.39,81.97A90.382,90.382,0,0,0-976.027-987.1Z" transform="translate(1058.417 1084.381)"/></g></g></svg>