<svg id="Group_15235" data-name="Group 15235" xmlns="http://www.w3.org/2000/svg" width="33.39" height="33.629" viewBox="0 0 33.39 33.629">
  <g id="Group_13857" data-name="Group 13857" transform="translate(0)">
    <path id="Path_16798" data-name="Path 16798" d="M0,9.326A10.286,10.286,0,0,0,9.372,0,10.282,10.282,0,0,0,0,9.326" transform="translate(0 11.068)" fill="#0e8474"/>
    <path id="Path_16799" data-name="Path 16799" d="M0,9.326A10.286,10.286,0,0,0,9.372,0,10.28,10.28,0,0,0,0,9.326" transform="translate(11.107)" fill="#0e8474"/>
    <path id="Path_16800" data-name="Path 16800" d="M9.372,9.326A10.286,10.286,0,0,0,0,0,10.284,10.284,0,0,0,9.372,9.326" transform="translate(0 0)" fill="#0e8474"/>
  </g>
  <path id="Path_16801" data-name="Path 16801" d="M9.394,9.335A10.307,10.307,0,0,0,0,0,10.307,10.307,0,0,0,9.394,9.344m1.738,0A10.307,10.307,0,0,0,20.523,0a10.307,10.307,0,0,0-9.392,9.344M0,20.435a10.307,10.307,0,0,0,9.394-9.344A10.307,10.307,0,0,0,0,20.435m20.524,0a10.307,10.307,0,0,0-9.392-9.344,10.307,10.307,0,0,0,9.392,9.344" transform="translate(12.457 33.077) rotate(-90)" fill="none" stroke="#0e8474" stroke-miterlimit="10" stroke-width="1"/>
</svg>
