<svg xmlns="http://www.w3.org/2000/svg" width="63.747" height="64.112" viewBox="0 0 63.747 64.112">
  <g id="Group_13894" data-name="Group 13894" transform="translate(-82.963 45)">
    <g id="Group_13857" data-name="Group 13857" transform="translate(146.71 -5.812) rotate(180)">
      <path id="Path_16798" data-name="Path 16798" d="M0,0A19.765,19.765,0,0,1,18.01,17.921,19.758,19.758,0,0,1,0,0" transform="translate(0 0)" fill="#fff"/>
      <path id="Path_16799" data-name="Path 16799" d="M0,0A19.765,19.765,0,0,1,18.01,17.921,19.755,19.755,0,0,1,0,0" transform="translate(21.343 21.267)" fill="#fff"/>
      <path id="Path_16800" data-name="Path 16800" d="M18.01,0A19.765,19.765,0,0,1,0,17.921,19.762,19.762,0,0,1,18.01,0" transform="translate(0 21.267)" fill="#fff"/>
    </g>
    <path id="Path_16801" data-name="Path 16801" d="M18.051,21.329A19.806,19.806,0,0,1,0,39.267,19.806,19.806,0,0,1,18.051,21.312m3.34,0A19.806,19.806,0,0,1,39.438,39.267,19.806,19.806,0,0,1,21.39,21.312M0,0A19.806,19.806,0,0,1,18.051,17.955,19.806,19.806,0,0,1,0,0M39.438,0A19.806,19.806,0,0,1,21.39,17.955,19.806,19.806,0,0,1,39.438,0" transform="translate(83.506 18.561) rotate(-90)" fill="none" stroke="#fff" stroke-linecap="round" stroke-width="1"/>
  </g>
</svg>
