<svg xmlns="http://www.w3.org/2000/svg" xmlns:xlink="http://www.w3.org/1999/xlink" width="140" zoomAndPan="magnify" viewBox="0 0 104.88 104.999996" height="140" preserveAspectRatio="xMidYMid meet" version="1.0"><defs><clipPath id="54d4c978dc"><path d="M 19.175781 16.261719 L 85.703125 16.261719 L 85.703125 88.738281 L 19.175781 88.738281 Z M 19.175781 16.261719 " clip-rule="nonzero"/></clipPath><clipPath id="99b5314fd6"><path d="M 52.441406 16.261719 C 34.070312 16.261719 19.175781 32.484375 19.175781 52.5 C 19.175781 72.515625 34.070312 88.738281 52.441406 88.738281 C 70.8125 88.738281 85.703125 72.515625 85.703125 52.5 C 85.703125 32.484375 70.8125 16.261719 52.441406 16.261719 Z M 52.441406 16.261719 " clip-rule="nonzero"/></clipPath><clipPath id="2a860b65d7"><path d="M 39 47 L 52 47 L 52 75.183594 L 39 75.183594 Z M 39 47 " clip-rule="nonzero"/></clipPath><clipPath id="b95b64051f"><path d="M 36.589844 29.484375 L 51 29.484375 L 51 64 L 36.589844 64 Z M 36.589844 29.484375 " clip-rule="nonzero"/></clipPath><clipPath id="3eb3647298"><path d="M 53 29.484375 L 68.054688 29.484375 L 68.054688 64 L 53 64 Z M 53 29.484375 " clip-rule="nonzero"/></clipPath><clipPath id="f86efb9678"><path d="M 52 47 L 65 47 L 65 75.183594 L 52 75.183594 Z M 52 47 " clip-rule="nonzero"/></clipPath></defs><g clip-path="url(#54d4c978dc)"><g clip-path="url(#99b5314fd6)"><path fill="#ca9e66" d="M 19.175781 16.261719 L 85.703125 16.261719 L 85.703125 88.738281 L 19.175781 88.738281 Z M 19.175781 16.261719 " fill-opacity="1" fill-rule="nonzero"/></g></g><g clip-path="url(#2a860b65d7)"><path fill="#ffffff" d="M 50.960938 47.488281 C 50.953125 47.488281 50.949219 47.488281 50.945312 47.488281 C 50.53125 47.496094 50.09375 47.757812 50.09375 48.230469 L 50.09375 53.507812 C 50.289062 53.617188 50.480469 53.738281 50.667969 53.875 C 50.835938 54 50.871094 54.230469 50.75 54.398438 C 50.675781 54.496094 50.5625 54.550781 50.449219 54.550781 C 50.371094 54.550781 50.292969 54.527344 50.226562 54.476562 C 47.953125 52.808594 44.917969 53.691406 44.558594 53.804688 C 44.421875 53.898438 44.277344 53.972656 44.125 54.011719 C 43.769531 54.109375 43.449219 54.046875 43.1875 53.941406 C 43.292969 55.347656 43.738281 55.898438 44.207031 56.480469 C 44.722656 57.117188 45.253906 57.78125 45.253906 59.421875 C 45.253906 59.625 45.085938 59.792969 44.882812 59.792969 C 44.675781 59.792969 44.507812 59.625 44.507812 59.421875 C 44.507812 58.042969 44.101562 57.535156 43.625 56.949219 C 43.070312 56.257812 42.441406 55.476562 42.421875 53.386719 C 41.808594 52.632812 41.664062 51.867188 41.785156 51.117188 C 41.421875 50.617188 41.027344 50.390625 40.667969 50.492188 C 40.28125 50.601562 39.964844 51.058594 39.945312 51.535156 C 39.933594 52.195312 39.914062 52.882812 39.898438 53.566406 C 39.84375 55.507812 39.796875 57.339844 39.867188 58.65625 C 39.929688 59.828125 40.480469 60.914062 41.378906 61.632812 C 41.550781 61.773438 41.71875 61.898438 41.882812 62.015625 C 42.410156 62.40625 42.914062 62.785156 43.1875 63.386719 C 43.1875 63.386719 43.1875 63.386719 43.1875 63.390625 C 43.296875 63.632812 43.375 63.914062 43.390625 64.25 L 43.390625 75.082031 L 50.460938 75.082031 L 50.101562 63.90625 C 50.082031 63.238281 50.394531 62.585938 50.960938 62.117188 C 51.941406 61.300781 51.964844 60.210938 51.964844 60.164062 L 51.957031 48.660156 C 51.929688 47.800781 51.425781 47.488281 50.960938 47.488281 Z M 50.960938 47.488281 " fill-opacity="1" fill-rule="nonzero"/></g><path fill="#ffffff" d="M 44.410156 45.765625 C 44.269531 45.363281 43.886719 45.199219 43.585938 45.214844 C 43.164062 45.242188 42.867188 45.566406 42.773438 46.109375 C 42.6875 46.933594 42.628906 48.15625 42.59375 49.175781 C 42.835938 48.785156 43.101562 48.414062 43.347656 48.070312 C 43.917969 47.269531 44.460938 46.511719 44.417969 46 C 44.417969 45.929688 44.414062 45.851562 44.410156 45.765625 Z M 44.410156 45.765625 " fill-opacity="1" fill-rule="nonzero"/><path fill="#ffffff" d="M 40.253906 61.5625 C 39.976562 62.976562 39.304688 63.753906 38.574219 64.082031 C 38.671875 64.667969 38.996094 65.015625 39.449219 65.015625 C 39.453125 65.015625 39.453125 65.015625 39.457031 65.015625 C 40.203125 65.011719 41.027344 64.09375 41.144531 62.394531 C 41.066406 62.332031 40.992188 62.277344 40.910156 62.214844 C 40.667969 62.019531 40.449219 61.800781 40.253906 61.5625 Z M 40.253906 61.5625 " fill-opacity="1" fill-rule="nonzero"/><path fill="#ffffff" d="M 41.839844 62.917969 C 41.796875 63.207031 41.738281 63.472656 41.660156 63.714844 C 41.925781 63.699219 42.21875 63.644531 42.417969 63.515625 C 42.277344 63.296875 42.082031 63.109375 41.839844 62.917969 Z M 41.839844 62.917969 " fill-opacity="1" fill-rule="nonzero"/><g clip-path="url(#b95b64051f)"><path fill="#ffffff" d="M 39.621094 60.597656 C 39.332031 60.011719 39.15625 59.363281 39.121094 58.695312 C 39.050781 57.351562 39.097656 55.5 39.152344 53.542969 C 39.171875 52.863281 39.1875 52.179688 39.203125 51.511719 C 39.230469 50.699219 39.765625 49.96875 40.464844 49.773438 C 40.710938 49.707031 41.238281 49.640625 41.820312 50.078125 C 41.847656 48.980469 41.914062 47.160156 42.035156 46.003906 C 42.222656 44.921875 42.933594 44.507812 43.539062 44.472656 C 43.792969 44.457031 44.039062 44.507812 44.261719 44.605469 C 44.195312 44.171875 44.125 43.820312 44.125 43.816406 C 44.085938 43.613281 44.214844 43.417969 44.417969 43.375 C 44.621094 43.335938 44.816406 43.46875 44.855469 43.671875 C 44.867188 43.734375 45.164062 45.242188 45.164062 45.96875 C 45.226562 46.722656 44.636719 47.546875 43.953125 48.503906 C 42.664062 50.308594 41.847656 51.695312 43.125 53.070312 C 43.324219 53.195312 43.621094 53.378906 43.925781 53.292969 C 44.203125 53.21875 44.476562 52.925781 44.722656 52.445312 C 45.992188 49.96875 49.46875 45.652344 49.617188 45.46875 C 51.320312 43.230469 50.882812 40.429688 50.492188 37.957031 C 50.398438 37.367188 50.3125 36.808594 50.261719 36.285156 C 50.019531 33.585938 50.0625 30.628906 50.089844 29.585938 L 41.164062 29.585938 C 41.199219 31.054688 41.335938 36.367188 41.460938 38.695312 C 41.511719 39.679688 41.335938 40.664062 40.949219 41.539062 C 40.347656 42.898438 39.453125 44.621094 38.664062 46.144531 C 38.316406 46.8125 37.988281 47.441406 37.714844 47.984375 C 37.25 48.910156 37 49.839844 36.96875 50.75 L 36.929688 51.820312 C 36.816406 55.082031 36.601562 61.15625 36.679688 62.757812 C 36.679688 63.175781 37.117188 63.515625 37.65625 63.527344 C 37.773438 63.53125 37.886719 63.519531 38.003906 63.488281 C 38.027344 63.480469 38.050781 63.476562 38.078125 63.46875 C 38.800781 63.261719 39.511719 62.433594 39.621094 60.597656 Z M 39.621094 60.597656 " fill-opacity="1" fill-rule="nonzero"/></g><path fill="#ffffff" d="M 47.132812 52.726562 L 47.132812 50.011719 C 46.4375 51 45.789062 52 45.386719 52.785156 C 45.375 52.808594 45.363281 52.828125 45.347656 52.851562 C 45.835938 52.769531 46.453125 52.703125 47.132812 52.726562 Z M 47.132812 52.726562 " fill-opacity="1" fill-rule="nonzero"/><path fill="#ffffff" d="M 49.347656 53.164062 L 49.347656 47.015625 C 48.9375 47.546875 48.414062 48.230469 47.878906 48.96875 L 47.878906 52.789062 C 48.359375 52.851562 48.855469 52.972656 49.347656 53.164062 Z M 49.347656 53.164062 " fill-opacity="1" fill-rule="nonzero"/><path fill="#ffffff" d="M 64.421875 61.5625 C 64.226562 61.800781 64.007812 62.019531 63.765625 62.214844 C 63.683594 62.277344 63.609375 62.332031 63.53125 62.394531 C 63.648438 64.09375 64.472656 65.011719 65.21875 65.015625 C 65.222656 65.015625 65.222656 65.015625 65.226562 65.015625 C 65.679688 65.015625 66.003906 64.667969 66.101562 64.082031 C 65.371094 63.753906 64.699219 62.976562 64.421875 61.5625 Z M 64.421875 61.5625 " fill-opacity="1" fill-rule="nonzero"/><path fill="#ffffff" d="M 59.324219 52.851562 C 59.3125 52.828125 59.300781 52.808594 59.289062 52.789062 C 58.886719 52 58.238281 51 57.542969 50.011719 L 57.542969 52.726562 C 58.222656 52.703125 58.839844 52.769531 59.324219 52.851562 Z M 59.324219 52.851562 " fill-opacity="1" fill-rule="nonzero"/><g clip-path="url(#3eb3647298)"><path fill="#ffffff" d="M 67.746094 51.820312 L 67.707031 50.75 C 67.675781 49.839844 67.425781 48.910156 66.960938 47.984375 C 66.6875 47.441406 66.359375 46.8125 66.011719 46.144531 C 65.222656 44.621094 64.328125 42.898438 63.726562 41.539062 C 63.339844 40.664062 63.164062 39.679688 63.214844 38.695312 C 63.339844 36.367188 63.476562 31.054688 63.511719 29.585938 L 54.585938 29.585938 C 54.613281 30.628906 54.65625 33.585938 54.417969 36.285156 C 54.363281 36.808594 54.277344 37.367188 54.183594 37.957031 C 53.792969 40.429688 53.355469 43.230469 55.066406 45.476562 C 55.207031 45.652344 58.683594 49.96875 59.953125 52.445312 C 60.199219 52.925781 60.472656 53.21875 60.75 53.292969 C 61.054688 53.378906 61.351562 53.195312 61.546875 53.070312 C 62.828125 51.695312 62.011719 50.308594 60.722656 48.503906 C 60.039062 47.546875 59.449219 46.722656 59.515625 45.9375 C 59.511719 45.246094 59.808594 43.734375 59.820312 43.671875 C 59.859375 43.46875 60.050781 43.335938 60.257812 43.378906 C 60.460938 43.417969 60.589844 43.613281 60.550781 43.816406 C 60.550781 43.824219 60.480469 44.171875 60.410156 44.605469 C 60.632812 44.507812 60.882812 44.457031 61.136719 44.472656 C 61.742188 44.507812 62.453125 44.925781 62.636719 45.980469 C 62.761719 47.152344 62.828125 48.976562 62.855469 50.078125 C 63.433594 49.640625 63.964844 49.707031 64.210938 49.773438 C 64.910156 49.972656 65.441406 50.699219 65.472656 51.503906 C 65.488281 52.179688 65.503906 52.867188 65.523438 53.542969 C 65.578125 55.503906 65.625 57.351562 65.554688 58.695312 C 65.519531 59.363281 65.34375 60.011719 65.054688 60.597656 C 65.1875 62.789062 66.191406 63.53125 67.019531 63.527344 C 67.558594 63.515625 67.996094 63.179688 67.996094 62.777344 C 68.074219 61.15625 67.859375 55.082031 67.746094 51.820312 Z M 67.746094 51.820312 " fill-opacity="1" fill-rule="nonzero"/></g><path fill="#ffffff" d="M 61.089844 45.214844 C 60.785156 45.199219 60.402344 45.363281 60.265625 45.765625 C 60.261719 45.839844 60.257812 45.910156 60.257812 45.96875 C 60.214844 46.511719 60.753906 47.269531 61.328125 48.070312 C 61.574219 48.414062 61.839844 48.785156 62.082031 49.175781 C 62.046875 48.152344 61.988281 46.921875 61.898438 46.082031 C 61.808594 45.566406 61.511719 45.242188 61.089844 45.214844 Z M 61.089844 45.214844 " fill-opacity="1" fill-rule="nonzero"/><path fill="#ffffff" d="M 62.261719 63.515625 C 62.457031 63.644531 62.75 63.699219 63.015625 63.714844 C 62.9375 63.472656 62.878906 63.203125 62.835938 62.917969 C 62.597656 63.109375 62.398438 63.296875 62.261719 63.515625 Z M 62.261719 63.515625 " fill-opacity="1" fill-rule="nonzero"/><g clip-path="url(#f86efb9678)"><path fill="#ffffff" d="M 64.808594 58.652344 C 64.878906 57.339844 64.832031 55.507812 64.777344 53.5625 C 64.761719 52.882812 64.742188 52.195312 64.730469 51.527344 C 64.710938 51.058594 64.394531 50.601562 64.007812 50.492188 C 63.644531 50.390625 63.253906 50.613281 62.890625 51.117188 C 63.011719 51.863281 62.867188 52.632812 62.253906 53.386719 C 62.234375 55.472656 61.605469 56.257812 61.050781 56.945312 C 60.574219 57.535156 60.164062 58.042969 60.167969 59.417969 C 60.167969 59.625 60 59.792969 59.792969 59.792969 C 59.589844 59.792969 59.421875 59.625 59.421875 59.417969 C 59.421875 57.777344 59.953125 57.117188 60.46875 56.476562 C 60.9375 55.898438 61.382812 55.34375 61.488281 53.9375 C 61.222656 54.042969 60.90625 54.109375 60.550781 54.011719 C 60.402344 53.96875 60.253906 53.898438 60.117188 53.804688 C 59.757812 53.691406 56.714844 52.8125 54.449219 54.476562 C 54.382812 54.527344 54.304688 54.550781 54.226562 54.550781 C 54.113281 54.550781 54 54.496094 53.925781 54.398438 C 53.804688 54.230469 53.839844 53.996094 54.007812 53.875 C 54.195312 53.738281 54.386719 53.617188 54.582031 53.507812 L 54.582031 48.230469 C 54.582031 47.757812 54.144531 47.496094 53.734375 47.488281 C 53.25 47.476562 52.746094 47.789062 52.71875 48.671875 L 52.710938 60.164062 C 52.710938 60.210938 52.734375 61.300781 53.714844 62.113281 C 54.28125 62.585938 54.59375 63.238281 54.574219 63.90625 L 54.214844 75.082031 L 61.285156 75.082031 L 61.285156 64.265625 C 61.300781 63.9375 61.371094 63.664062 61.472656 63.425781 C 61.480469 63.410156 61.484375 63.394531 61.496094 63.378906 C 61.769531 62.78125 62.269531 62.402344 62.792969 62.015625 C 62.957031 61.898438 63.125 61.769531 63.296875 61.632812 C 64.195312 60.914062 64.746094 59.828125 64.808594 58.652344 Z M 64.808594 58.652344 " fill-opacity="1" fill-rule="nonzero"/></g><path fill="#ffffff" d="M 55.328125 47.015625 L 55.328125 53.164062 C 55.820312 52.972656 56.316406 52.851562 56.796875 52.789062 L 56.796875 48.96875 C 56.261719 48.230469 55.738281 47.546875 55.328125 47.015625 Z M 55.328125 47.015625 " fill-opacity="1" fill-rule="nonzero"/></svg>