<?xml version="1.0" encoding="UTF-8"?>
<svg xmlns="http://www.w3.org/2000/svg" xmlns:xlink="http://www.w3.org/1999/xlink" width="40px" height="40px" viewBox="0 0 40 40" version="1.1">
<g id="surface1">
<path style=" stroke:none;fill-rule:nonzero;fill:rgb(79.215686%,61.960784%,40%);fill-opacity:1;" d="M 23.164062 11.289062 L 23.128906 11.289062 C 22.78125 11.289062 22.519531 11.570312 22.519531 11.914062 C 22.519531 12.257812 22.820312 12.539062 23.164062 12.539062 C 23.507812 12.539062 23.789062 12.257812 23.789062 11.914062 C 23.789062 11.570312 23.507812 11.289062 23.164062 11.289062 Z M 23.164062 11.289062 "/>
<path style=" stroke:none;fill-rule:nonzero;fill:rgb(79.215686%,61.960784%,40%);fill-opacity:1;" d="M 28.238281 11.289062 L 28.203125 11.289062 C 27.855469 11.289062 27.59375 11.570312 27.59375 11.914062 C 27.59375 12.257812 27.890625 12.539062 28.238281 12.539062 C 28.582031 12.539062 28.863281 12.257812 28.863281 11.914062 C 28.863281 11.570312 28.582031 11.289062 28.238281 11.289062 Z M 28.238281 11.289062 "/>
<path style=" stroke:none;fill-rule:nonzero;fill:rgb(79.215686%,61.960784%,40%);fill-opacity:1;" d="M 33.3125 11.289062 L 33.273438 11.289062 C 32.929688 11.289062 32.667969 11.570312 32.667969 11.914062 C 32.667969 12.257812 32.964844 12.539062 33.3125 12.539062 C 33.65625 12.539062 33.9375 12.257812 33.9375 11.914062 C 33.9375 11.570312 33.65625 11.289062 33.3125 11.289062 Z M 33.3125 11.289062 "/>
<path style=" stroke:none;fill-rule:nonzero;fill:rgb(79.215686%,61.960784%,40%);fill-opacity:1;" d="M 28.246094 28.703125 C 25.027344 26.890625 24.066406 27.039062 21.609375 28.425781 C 20.351562 29.261719 18.835938 28.75 16.199219 26.605469 C 15.683594 26.183594 15.164062 25.714844 14.65625 25.210938 C 14.152344 24.703125 13.683594 24.183594 13.261719 23.664062 C 11.273438 21.226562 10.734375 19.003906 11.378906 18.332031 C 13.28125 16.289062 12.847656 14.609375 11.171875 11.636719 C 10.160156 9.722656 9.050781 7.820312 7.574219 7.382812 C 6.503906 7.070312 4.910156 7.894531 4.4375 8.207031 C 3.21875 9.019531 2.0625 10.453125 1.417969 11.953125 C 0.234375 14.710938 0.546875 18.035156 1.238281 20.226562 C 2.371094 23.820312 5.085938 27.980469 8.507812 31.359375 C 11.886719 34.78125 16.046875 37.5 19.640625 38.628906 C 20.773438 38.984375 22.210938 39.242188 23.71875 39.242188 C 25.121094 39.242188 26.582031 39.019531 27.914062 38.449219 C 29.414062 37.804688 30.847656 36.648438 31.65625 35.429688 C 31.972656 34.957031 32.800781 33.367188 32.480469 32.292969 C 32.046875 30.816406 30.144531 29.707031 28.246094 28.703125 Z M 27.648438 29.800781 C 28.804688 30.414062 30.960938 31.550781 31.28125 32.644531 C 31.347656 32.867188 31.269531 33.273438 31.121094 33.695312 L 22.664062 29.265625 C 24.253906 28.386719 24.898438 28.25 27.648438 29.800781 Z M 7.21875 8.582031 C 8.316406 8.90625 9.453125 11.0625 10.074219 12.234375 C 11.710938 15.136719 11.707031 16.054688 10.652344 17.269531 L 6.09375 8.773438 C 6.441406 8.644531 6.78125 8.558594 7.03125 8.558594 C 7.101562 8.558594 7.167969 8.566406 7.21875 8.582031 Z M 27.421875 37.300781 C 24.972656 38.351562 21.902344 38.03125 20.015625 37.4375 C 16.605469 36.363281 12.636719 33.761719 9.394531 30.476562 C 9.394531 30.476562 9.390625 30.472656 9.390625 30.472656 C 6.105469 27.230469 3.503906 23.261719 2.429688 19.851562 C 1.835938 17.964844 1.515625 14.894531 2.566406 12.445312 C 3.09375 11.21875 4.011719 10.054688 4.984375 9.355469 L 9.9375 18.578125 C 9.664062 20.0625 10.511719 22.269531 12.292969 24.453125 C 12.738281 25.003906 13.238281 25.554688 13.773438 26.09375 C 14.3125 26.628906 14.863281 27.128906 15.410156 27.574219 C 17.339844 29.148438 19.367188 30.464844 21.265625 29.945312 L 30.558594 34.816406 C 29.867188 35.8125 28.675781 36.761719 27.421875 37.300781 Z M 27.421875 37.300781 "/>
<path style=" stroke:none;fill-rule:nonzero;fill:rgb(79.215686%,61.960784%,40%);fill-opacity:1;" d="M 38.097656 6.730469 C 35.238281 1.285156 28.484375 -0.820312 23.039062 2.035156 C 17.59375 4.894531 15.484375 11.648438 18.339844 17.09375 C 18.546875 17.488281 18.785156 17.878906 19.046875 18.257812 L 17.359375 21.152344 C 17.238281 21.355469 17.246094 21.605469 17.371094 21.800781 C 17.496094 22 17.71875 22.109375 17.953125 22.089844 L 22.796875 21.660156 C 24.488281 22.601562 26.351562 23.074219 28.21875 23.074219 C 29.992188 23.074219 31.765625 22.648438 33.402344 21.792969 C 38.847656 18.933594 40.953125 12.179688 38.097656 6.730469 Z M 32.820312 20.683594 C 29.789062 22.273438 26.210938 22.199219 23.25 20.480469 C 23.152344 20.425781 23.042969 20.398438 22.933594 20.398438 C 22.917969 20.398438 22.898438 20.398438 22.878906 20.398438 L 19.046875 20.738281 L 20.328125 18.539062 C 20.457031 18.324219 20.441406 18.050781 20.292969 17.851562 C 19.96875 17.417969 19.6875 16.96875 19.449219 16.515625 C 16.914062 11.679688 18.785156 5.679688 23.617188 3.140625 L 23.617188 3.144531 C 28.453125 0.605469 34.453125 2.476562 36.988281 7.3125 C 39.527344 12.148438 37.65625 18.148438 32.820312 20.683594 Z M 32.820312 20.683594 "/>
</g>
</svg>
