<?xml version="1.0" encoding="UTF-8"?>
<svg xmlns="http://www.w3.org/2000/svg" xmlns:xlink="http://www.w3.org/1999/xlink" width="40px" height="40px" viewBox="0 0 40 40" version="1.1">
<g id="surface1">
<path style=" stroke:none;fill-rule:evenodd;fill:rgb(79.215686%,61.960784%,40%);fill-opacity:1;" d="M 30 9 C 30 8.449219 29.550781 8 29 8 L 28 8 C 28 10.207031 26.210938 12 24 12 L 16 12 C 13.789062 12 12 10.207031 12 8 L 11 8 C 10.449219 8 10 8.449219 10 9 L 10 34 C 10 35.105469 10.894531 36 12 36 L 28 36 C 29.105469 36 30 35.105469 30 34 Z M 16 6 C 16 7.105469 16.894531 8 18 8 L 22 8 C 23.105469 8 24 7.105469 24 6 C 24 4.894531 23.105469 4 22 4 L 18 4 C 16.894531 4 16 4.894531 16 6 Z M 34 8 L 34 36 C 34 38.207031 32.210938 40 30 40 L 10 40 C 7.789062 40 6 38.207031 6 36 L 6 8 C 6 5.789062 7.789062 4 10 4 L 12 4 C 12 1.789062 13.789062 0 16 0 L 24 0 C 26.210938 0 28 1.789062 28 4 L 30 4 C 32.210938 4 34 5.789062 34 8 Z M 25.65625 17.757812 C 26.4375 18.539062 26.4375 19.804688 25.65625 20.585938 L 18.585938 27.65625 C 15.097656 24.167969 15.8125 24.882812 14.34375 23.414062 C 13.5625 22.632812 13.5625 21.367188 14.34375 20.585938 C 15.125 19.804688 16.390625 19.804688 17.171875 20.585938 L 18.585938 22 L 22.828125 17.757812 C 23.609375 16.976562 24.875 16.976562 25.65625 17.757812 Z M 25.65625 17.757812 "/>
</g>
</svg>
