<?xml version="1.0" encoding="UTF-8"?>
<svg xmlns="http://www.w3.org/2000/svg" xmlns:xlink="http://www.w3.org/1999/xlink" width="40px" height="40px" viewBox="0 0 40 40" version="1.1">
<g id="surface1">
<path style="fill-rule:nonzero;fill:rgb(79.215686%,61.960784%,40%);fill-opacity:1;stroke-width:1;stroke-linecap:butt;stroke-linejoin:miter;stroke:rgb(79.215686%,61.960784%,40%);stroke-opacity:1;stroke-miterlimit:4;" d="M 47.461219 157.580834 C 45.112128 157.580834 43.194503 159.498459 43.194503 161.84755 L 43.194503 249.578894 C 43.194503 251.927984 45.112128 253.797669 47.461219 253.797669 C 49.810309 253.797669 51.679994 251.927984 51.679994 249.578894 L 51.679994 161.84755 C 51.679994 159.498459 49.810309 157.580834 47.461219 157.580834 Z M 47.461219 157.580834 " transform="matrix(0.081481,0,0,0.081481,0,0)"/>
<path style="fill-rule:nonzero;fill:rgb(79.215686%,61.960784%,40%);fill-opacity:1;stroke-width:1;stroke-linecap:butt;stroke-linejoin:miter;stroke:rgb(79.215686%,61.960784%,40%);stroke-opacity:1;stroke-miterlimit:4;" d="M 490.912 256.290581 C 490.912 253.941491 488.994375 252.023866 486.645284 252.023866 L 482.714153 252.023866 C 480.892409 225.129175 460.23 202.357378 434.485884 198.905653 C 431.801209 178.674709 423.123956 165.922503 408.022659 160.121687 C 408.214422 154.896159 407.878837 149.862394 407.015906 145.260094 L 421.637797 130.590262 C 425.71275 133.4667 430.602694 135.0008 435.6844 135.0008 C 442.204325 135.0008 448.340725 132.459947 452.943025 127.809706 C 457.593266 123.207406 460.134119 117.071006 460.134119 110.551081 C 460.134119 103.983216 457.593266 97.846816 452.943025 93.244516 C 448.532487 88.786037 442.58785 86.293125 436.45145 86.101362 C 436.259687 79.917022 433.766775 74.020325 429.308297 69.561847 C 419.768112 60.021662 404.23535 60.021662 394.695166 69.561847 C 386.209675 78.095278 385.298803 91.374831 391.96255 100.915016 L 377.148897 115.728669 C 364.204928 113.427519 347.617472 115.441025 328.345341 121.865069 C 323.407456 123.542991 318.373691 125.412675 313.435806 127.522062 C 284.815253 127.713825 253.653847 139.315456 236.395222 156.142616 C 233.518784 155.663209 230.546466 155.423506 227.670028 155.423506 C 220.095409 155.423506 212.952256 157.005547 206.480272 159.881984 L 213.287841 23.826491 C 213.335781 22.675916 212.952256 21.525341 212.137266 20.71035 C 211.322275 19.847419 210.219641 19.368012 209.069066 19.368012 L 16.012169 19.368012 C 14.861594 19.368012 13.758959 19.847419 12.943969 20.71035 C 12.128978 21.525341 11.745453 22.675916 11.793394 23.826491 L 27.374097 336.207603 C 21.381519 334.865266 15.676584 335.632316 10.7387 338.508753 C -4.506419 347.425709 -3.451725 370.149566 13.615137 399.393347 C 16.299812 403.995647 19.9433 409.460878 23.634728 414.350822 C 22.580034 415.117872 21.621222 415.836981 20.662409 416.651972 C 12.896028 423.267778 9.2046 431.753269 10.259294 440.526403 C 11.457809 450.25835 18.840666 461.907922 47.365337 461.907922 C 52.686747 461.907922 58.679325 461.524397 65.151309 460.709406 C 81.786706 458.6959 97.175647 454.0936 108.489634 447.813378 C 120.906256 440.861987 127.186478 432.376497 126.179725 423.938947 L 189.269587 423.938947 C 191.522797 423.938947 193.392481 422.165144 193.536303 419.911934 L 194.303353 404.954459 C 204.131181 412.337316 214.774 418.761359 225.992106 424.082769 L 225.992106 455.675641 C 225.992106 464.400834 233.087319 471.543987 241.860453 471.543987 L 368.711347 471.543987 C 377.484481 471.543987 384.579694 464.400834 384.579694 455.675641 L 384.579694 424.082769 C 447.381912 394.2637 490.912 330.262966 490.912 256.290581 Z M 426.431859 203.172369 C 426.623622 205.281756 428.301544 206.911737 430.362991 207.007619 C 453.374491 208.493778 472.311037 228.293256 474.228662 252.023866 L 370.581031 252.023866 C 386.832903 232.512031 403.564181 198.378306 407.30355 169.038644 C 418.761359 174.407994 424.705997 185.194634 426.431859 203.172369 Z M 400.735684 104.174978 C 401.502734 103.359987 401.982141 102.305294 401.982141 101.154719 C 401.982141 100.052084 401.502734 98.94945 400.735684 98.134459 C 394.503403 91.950119 394.503403 81.786706 400.735684 75.602366 C 406.967966 69.370084 417.083437 69.370084 423.267778 75.602366 C 427.055087 79.341734 428.685069 84.663144 427.678316 89.888672 C 427.390672 91.27895 427.870078 92.717169 428.828891 93.675981 C 429.835644 94.682734 431.273862 95.1142 432.664141 94.874497 C 437.841728 93.867744 443.211078 95.497725 446.950447 99.237094 C 449.970706 102.257353 451.648628 106.284366 451.648628 110.551081 C 451.648628 114.817797 449.970706 118.796869 446.950447 121.817128 C 443.930187 124.837387 439.951116 126.515309 435.6844 126.515309 C 431.417684 126.515309 427.390672 124.837387 424.370412 121.817128 C 423.603362 121.002137 422.500728 120.570672 421.398094 120.570672 C 420.247519 120.570672 419.192825 121.002137 418.377834 121.817128 L 404.187409 136.007553 C 402.461547 132.028481 400.160397 128.432934 397.140137 125.412675 C 394.167819 122.488297 390.620212 120.139206 386.449378 118.413344 Z M 331.030016 129.919094 C 358.9794 120.618612 380.888266 121.1939 391.099619 131.405253 C 401.982141 142.287775 401.502734 163.046066 395.366334 184.85905 L 352.843 184.85905 C 350.493909 184.85905 348.576284 186.776675 348.576284 189.125766 C 348.576284 191.474856 350.493909 193.344541 352.843 193.344541 L 392.7296 193.344541 C 384.819397 216.691625 371.300141 239.799006 359.123222 251.975925 C 359.123222 252.023866 359.123222 252.023866 359.123222 252.023866 L 267.316925 252.023866 C 267.125162 251.736222 266.9334 251.448578 266.693697 251.208875 C 242.771325 227.286503 243.442494 190.468103 268.275737 165.586919 C 281.315587 152.547069 307.155584 137.877237 331.030016 129.919094 Z M 236.922569 164.91575 C 238.408728 165.251334 239.894887 164.771928 240.901641 163.669294 C 251.975925 152.067662 271.152175 142.767181 291.239297 138.500466 C 279.589725 145.164212 269.378372 152.499128 262.283159 159.594341 C 235.724053 186.153447 233.518784 224.74565 255.954997 252.023866 L 136.726662 252.023866 C 138.548406 228.293256 157.484953 208.493778 180.448512 207.007619 C 182.5579 206.911737 184.235822 205.281756 184.427584 203.172369 C 186.536972 180.784097 205.137934 163.908997 227.670028 163.908997 C 230.738228 163.908997 233.854369 164.244581 236.922569 164.91575 Z M 20.950053 395.126631 C 6.759628 370.868675 4.506419 351.980069 15.005416 345.843669 C 19.847419 343.015172 25.935878 343.542519 32.647566 347.329828 C 40.845412 352.028009 49.187081 361.328491 56.713759 374.224519 C 58.823147 377.820066 60.740772 381.559434 62.514575 385.346744 C 52.734687 391.914609 43.769791 399.728931 37.201925 407.495312 C 35.044597 408.262362 32.98315 409.125294 31.017584 410.036166 C 27.326156 405.194162 23.634728 399.728931 20.950053 395.126631 Z M 115.009559 409.6047 C 106.140544 404.570934 92.525406 401.646556 75.842069 401.646556 C 70.089194 401.646556 64.096616 402.030081 58.104037 402.749191 C 56.378175 402.940953 54.652312 403.180656 52.974391 403.4683 C 59.206672 397.907187 66.445706 392.585778 74.020325 388.175241 C 87.539581 380.265037 101.490303 374.991569 113.235756 373.361587 C 123.399169 371.971309 130.877906 373.505409 133.274937 377.580362 C 136.439019 383.045594 131.117609 395.653978 115.009559 409.6047 Z M 104.3188 440.382581 C 93.963625 446.183397 79.677319 450.402172 64.096616 452.271856 C 57.960216 453.038906 52.351162 453.422431 47.365337 453.422431 C 29.435544 453.422431 19.799478 448.72425 18.696844 439.51965 C 17.977734 433.670894 20.662409 427.822137 26.223522 423.123956 C 33.270794 417.035497 44.680662 412.912603 59.158731 411.186741 C 64.767784 410.467631 70.424778 410.132047 75.842069 410.132047 C 101.873828 410.132047 116.879244 417.754606 117.742175 424.9457 C 118.317462 429.595941 113.283697 435.348816 104.3188 440.382581 Z M 185.242575 415.453456 L 122.344475 415.453456 C 122.200653 415.261694 122.008891 415.117872 121.865069 414.926109 C 139.411337 399.249525 146.602431 383.572941 140.609853 373.265706 C 136.295197 365.930791 126.179725 362.958472 112.085181 364.971978 C 99.285034 366.745781 84.231678 372.354834 69.80155 380.792384 C 68.027747 377.100956 66.110122 373.457469 64.048675 369.957803 C 55.754947 355.767378 46.358584 345.412203 36.866341 339.946972 C 36.578697 339.80315 36.291053 339.659328 36.05135 339.515506 L 25.025006 119.084512 L 107.962287 119.084512 C 110.311378 119.084512 112.229003 117.166887 112.229003 114.817797 C 112.229003 112.468706 110.311378 110.551081 107.962287 110.551081 L 24.641481 110.551081 L 20.518587 27.853503 L 204.562647 27.853503 L 202.692962 65.438953 L 48.084447 65.438953 C 45.735356 65.438953 43.865672 67.308637 43.865672 69.657728 C 43.865672 72.006819 45.735356 73.924444 48.084447 73.924444 L 202.261497 73.924444 L 197.707137 164.819869 C 186.632853 172.58625 178.72265 184.667287 176.4215 198.905653 C 150.629444 202.309437 129.967034 225.129175 128.193231 252.023866 L 123.926516 252.023866 C 121.577425 252.023866 119.6598 253.941491 119.6598 256.290581 C 119.6598 313.291984 145.499797 364.396691 186.105506 398.434534 Z M 376.094203 455.675641 C 376.094203 459.750594 372.7863 463.058497 368.711347 463.058497 L 241.860453 463.058497 C 238.264906 463.058497 235.292587 460.469703 234.621419 457.113859 L 272.734216 457.113859 C 275.083306 457.113859 277.000931 455.196234 277.000931 452.847144 C 277.000931 450.498053 275.083306 448.628369 272.734216 448.628369 L 234.477597 448.628369 L 234.477597 427.870078 C 256.290581 436.882916 280.212953 441.916681 305.2859 441.916681 C 330.358847 441.916681 354.281219 436.882916 376.094203 427.822137 Z M 305.2859 433.38325 C 260.653178 433.38325 219.855706 416.795794 188.646359 389.469637 L 268.323678 389.469637 C 270.672769 389.469637 272.590394 387.552012 272.590394 385.202922 C 272.590394 382.853831 270.672769 380.984147 268.323678 380.984147 L 179.633522 380.984147 C 162.854303 364.061106 149.430928 343.782222 140.513972 321.250128 L 177.667956 321.250128 C 180.017047 321.250128 181.886731 319.332503 181.886731 316.983412 C 181.886731 314.682262 180.017047 312.764637 177.667956 312.764637 L 137.397831 312.764637 C 135.959612 308.402041 134.665216 304.039444 133.514641 299.533025 L 290.807831 299.533025 C 293.156922 299.533025 295.074547 297.663341 295.074547 295.31425 C 295.074547 292.965159 293.156922 291.047534 290.807831 291.047534 L 131.597016 291.047534 C 129.63145 281.123825 128.480875 270.960412 128.241172 260.509356 L 482.378569 260.509356 C 482.138866 270.960412 480.94035 281.171766 478.974784 291.047534 L 402.653309 291.047534 C 400.304219 291.047534 398.434534 292.965159 398.434534 295.31425 C 398.434534 297.663341 400.304219 299.533025 402.653309 299.533025 L 477.057159 299.533025 C 474.851891 308.3541 471.975453 316.887531 468.475787 325.085378 L 368.998991 325.085378 C 366.6499 325.085378 364.732275 327.003003 364.732275 329.352094 C 364.732275 331.701184 366.6499 333.570869 368.998991 333.570869 L 464.640537 333.570869 C 435.876162 392.633719 375.231272 433.38325 305.2859 433.38325 Z M 305.2859 433.38325 " transform="matrix(0.081481,0,0,0.081481,0,0)"/>
<path style="fill-rule:nonzero;fill:rgb(79.215686%,61.960784%,40%);fill-opacity:1;stroke-width:1;stroke-linecap:butt;stroke-linejoin:miter;stroke:rgb(79.215686%,61.960784%,40%);stroke-opacity:1;stroke-miterlimit:4;" d="M 177.284431 227.861791 C 177.284431 230.210881 179.202056 232.128506 181.503206 232.128506 L 204.80235 232.128506 C 207.151441 232.128506 209.021125 230.210881 209.021125 227.861791 C 209.021125 225.5127 207.151441 223.595075 204.80235 223.595075 L 181.503206 223.595075 C 179.202056 223.595075 177.284431 225.5127 177.284431 227.861791 Z M 177.284431 227.861791 " transform="matrix(0.081481,0,0,0.081481,0,0)"/>
<path style="fill-rule:nonzero;fill:rgb(79.215686%,61.960784%,40%);fill-opacity:1;stroke-width:1;stroke-linecap:butt;stroke-linejoin:miter;stroke:rgb(79.215686%,61.960784%,40%);stroke-opacity:1;stroke-miterlimit:4;" d="M 416.412269 234.429656 L 434.198241 234.429656 C 436.547331 234.429656 438.464956 232.559972 438.464956 230.210881 C 438.464956 227.861791 436.547331 225.944166 434.198241 225.944166 L 416.412269 225.944166 C 414.063178 225.944166 412.145553 227.861791 412.145553 230.210881 C 412.145553 232.559972 414.063178 234.429656 416.412269 234.429656 Z M 416.412269 234.429656 " transform="matrix(0.081481,0,0,0.081481,0,0)"/>
<path style="fill-rule:nonzero;fill:rgb(79.215686%,61.960784%,40%);fill-opacity:1;stroke-width:1;stroke-linecap:butt;stroke-linejoin:miter;stroke:rgb(79.215686%,61.960784%,40%);stroke-opacity:1;stroke-miterlimit:4;" d="M 214.102831 196.460681 L 220.287172 196.460681 C 222.636262 196.460681 224.553887 194.543056 224.553887 192.193966 C 224.553887 189.844875 222.636262 187.975191 220.287172 187.975191 L 214.102831 187.975191 C 211.753741 187.975191 209.836116 189.844875 209.836116 192.193966 C 209.836116 194.543056 211.753741 196.460681 214.102831 196.460681 Z M 214.102831 196.460681 " transform="matrix(0.081481,0,0,0.081481,0,0)"/>
</g>
</svg>
