<?xml version="1.0" encoding="UTF-8"?>
<svg id="Calque_1" data-name="Calque 1" xmlns="http://www.w3.org/2000/svg" xmlns:xlink="http://www.w3.org/1999/xlink" viewBox="0 0 547 562">
  <defs>
    <style>
      .cls-1 {
        fill: #c99e65;
      }

      .cls-2 {
        clip-path: url(#clippath-1);
      }

      .cls-3 {
        clip-path: url(#clippath-2);
      }

      .cls-4 {
        clip-path: url(#clippath);
      }
    </style>
    <clipPath id="clippath">
      <path class="cls-1" d="M195.81,233.69c-34.12,23.02-63.61,56-77.98,94.96-11.26,30.54-13.36,67.33,6.4,94.98,24.98,34.96,70.51,37.01,108.91,28.53,42.72-9.43,85.8-32.56,103.25-74.88,5.76-13.95,8.36-29.88,5.51-44.8-2.59-13.4-9.85-26.3-22.77-32.05-22.52-10.02-44.07,7.46-57.11,24.35-4.88,6.31-3.69,15.44,2.63,20.33,6.29,4.88,15.46,3.71,20.33-2.63,3.1-4,15.69-18.51,22.35-15.56,3.5,1.55,5.42,7.65,6.07,10.99,1.79,9.31-.25,19.67-3.81,28.29-13.64,33.02-49.81,50.37-82.71,57.64-25.92,5.72-61.64,7.31-79.06-17.08-13.86-19.4-10.56-47.01-2.79-68.08,12.23-33.19,38-61.38,67.01-80.97,6.62-4.46,8.38-13.52,3.9-20.14-2.81-4.14-7.37-6.37-12.03-6.37-2.81,0-5.61.78-8.1,2.48"/>
    </clipPath>
    <clipPath id="clippath-1">
      <path class="cls-1" d="M331.05,237.58c-4.45,6.62-2.7,15.68,3.9,20.14,29.02,19.59,54.77,47.78,67.01,80.97,7.79,21.07,11.1,48.68-2.78,68.08-17.42,24.39-53.15,22.8-79.06,17.08-32.9-7.27-69.1-24.62-82.71-57.64-3.56-8.63-5.6-18.99-3.81-28.29.64-3.34,2.59-9.44,6.06-10.99,6.68-2.96,19.27,11.55,22.37,15.56,4.88,6.34,14.02,7.51,20.35,2.63,6.29-4.89,7.48-14.02,2.62-20.33-13.03-16.89-34.59-34.37-57.12-24.35-12.9,5.75-20.18,18.65-22.74,32.05-2.88,14.92-.27,30.85,5.48,44.8,17.46,42.32,60.55,65.45,103.26,74.88,38.4,8.48,83.92,6.43,108.91-28.53,19.75-27.64,17.66-64.43,6.4-94.98-14.38-38.96-43.87-71.94-77.98-94.96-2.48-1.7-5.29-2.48-8.1-2.48-4.65,0-9.23,2.23-12.04,6.37"/>
    </clipPath>
    <clipPath id="clippath-2">
      <path class="cls-1" d="M217.04,191.1c0-31.19,25.28-56.46,56.46-56.46s56.46,25.27,56.46,56.46-25.27,56.46-56.46,56.46-56.46-25.28-56.46-56.46M188.05,191.1c0,47.19,38.25,85.45,85.45,85.45s85.45-38.25,85.45-85.45-38.27-85.45-85.45-85.45-85.45,38.25-85.45,85.45"/>
    </clipPath>
  </defs>
  <g>
    <path class="cls-1" d="M195.81,233.69c-34.12,23.02-63.61,56-77.98,94.96-11.26,30.54-13.36,67.33,6.4,94.98,24.98,34.96,70.51,37.01,108.91,28.53,42.72-9.43,85.8-32.56,103.25-74.88,5.76-13.95,8.36-29.88,5.51-44.8-2.59-13.4-9.85-26.3-22.77-32.05-22.52-10.02-44.07,7.46-57.11,24.35-4.88,6.31-3.69,15.44,2.63,20.33,6.29,4.88,15.46,3.71,20.33-2.63,3.1-4,15.69-18.51,22.35-15.56,3.5,1.55,5.42,7.65,6.07,10.99,1.79,9.31-.25,19.67-3.81,28.29-13.64,33.02-49.81,50.37-82.71,57.64-25.92,5.72-61.64,7.31-79.06-17.08-13.86-19.4-10.56-47.01-2.79-68.08,12.23-33.19,38-61.38,67.01-80.97,6.62-4.46,8.38-13.52,3.9-20.14-2.81-4.14-7.37-6.37-12.03-6.37-2.81,0-5.61.78-8.1,2.48"/>
    <g class="cls-4">
      <rect class="cls-1" x="104.47" y="231.21" width="240.28" height="229.43"/>
    </g>
  </g>
  <g>
    <path class="cls-1" d="M331.05,237.58c-4.45,6.62-2.7,15.68,3.9,20.14,29.02,19.59,54.77,47.78,67.01,80.97,7.79,21.07,11.1,48.68-2.78,68.08-17.42,24.39-53.15,22.8-79.06,17.08-32.9-7.27-69.1-24.62-82.71-57.64-3.56-8.63-5.6-18.99-3.81-28.29.64-3.34,2.59-9.44,6.06-10.99,6.68-2.96,19.27,11.55,22.37,15.56,4.88,6.34,14.02,7.51,20.35,2.63,6.29-4.89,7.48-14.02,2.62-20.33-13.03-16.89-34.59-34.37-57.12-24.35-12.9,5.75-20.18,18.65-22.74,32.05-2.88,14.92-.27,30.85,5.48,44.8,17.46,42.32,60.55,65.45,103.26,74.88,38.4,8.48,83.92,6.43,108.91-28.53,19.75-27.64,17.66-64.43,6.4-94.98-14.38-38.96-43.87-71.94-77.98-94.96-2.48-1.7-5.29-2.48-8.1-2.48-4.65,0-9.23,2.23-12.04,6.37"/>
    <g class="cls-2">
      <rect class="cls-1" x="202.24" y="231.21" width="240.29" height="229.43"/>
    </g>
  </g>
  <g>
    <path class="cls-1" d="M217.04,191.1c0-31.19,25.28-56.46,56.46-56.46s56.46,25.27,56.46,56.46-25.27,56.46-56.46,56.46-56.46-25.28-56.46-56.46M188.05,191.1c0,47.19,38.25,85.45,85.45,85.45s85.45-38.25,85.45-85.45-38.27-85.45-85.45-85.45-85.45,38.25-85.45,85.45"/>
    <g class="cls-3">
      <rect class="cls-1" x="188.05" y="105.65" width="170.89" height="170.89"/>
    </g>
  </g>
</svg>