<svg xmlns="http://www.w3.org/2000/svg" xmlns:xlink="http://www.w3.org/1999/xlink" width="40" zoomAndPan="magnify" viewBox="0 0 30 30.000001" height="40" preserveAspectRatio="xMidYMid meet" version="1.0"><defs><clipPath id="d000875336"><path d="M 9 3.597656 L 21 3.597656 L 21 14 L 9 14 Z M 9 3.597656 " clip-rule="nonzero"/></clipPath><clipPath id="1501c0d95d"><path d="M 4.140625 6 L 11 6 L 11 25.371094 L 4.140625 25.371094 Z M 4.140625 6 " clip-rule="nonzero"/></clipPath><clipPath id="a5c0843c26"><path d="M 6.097656 15.445312 L 23.957031 15.445312 L 23.957031 25.371094 L 6.097656 25.371094 Z M 6.097656 15.445312 " clip-rule="nonzero"/></clipPath><clipPath id="e6ad982dfa"><path d="M 19 6 L 25.914062 6 L 25.914062 25.371094 L 19 25.371094 Z M 19 6 " clip-rule="nonzero"/></clipPath></defs><g clip-path="url(#d000875336)"><path fill="#ffffff" d="M 15.027344 4.097656 C 16.453125 4.097656 17.609375 5.25 17.609375 6.667969 C 17.609375 8.085938 16.453125 9.238281 15.027344 9.238281 C 13.601562 9.238281 12.445312 8.085938 12.445312 6.667969 C 12.445312 5.25 13.601562 4.097656 15.027344 4.097656 Z M 10.117188 13.886719 C 10.257812 13.886719 10.371094 13.777344 10.371094 13.636719 L 10.371094 11.785156 C 10.371094 10.566406 11.015625 10.101562 11.578125 9.832031 C 11.847656 9.703125 12.480469 9.40625 13.136719 9.09375 C 13.660156 9.5 14.316406 9.738281 15.027344 9.738281 C 15.738281 9.738281 16.394531 9.5 16.917969 9.09375 C 17.574219 9.40625 18.207031 9.703125 18.476562 9.832031 C 19.039062 10.101562 19.683594 10.566406 19.683594 11.785156 L 19.683594 13.636719 C 19.683594 13.777344 19.796875 13.886719 19.9375 13.886719 C 20.074219 13.886719 20.1875 13.777344 20.1875 13.636719 L 20.1875 11.785156 C 20.1875 10.648438 19.699219 9.859375 18.691406 9.378906 C 18.449219 9.265625 17.90625 9.007812 17.316406 8.726562 C 17.8125 8.183594 18.113281 7.460938 18.113281 6.667969 C 18.113281 4.976562 16.730469 3.597656 15.027344 3.597656 C 13.324219 3.597656 11.941406 4.976562 11.941406 6.667969 C 11.941406 7.460938 12.242188 8.183594 12.738281 8.726562 C 12.148438 9.007812 11.605469 9.265625 11.363281 9.378906 C 10.355469 9.859375 9.867188 10.648438 9.867188 11.785156 L 9.867188 13.636719 C 9.867188 13.777344 9.980469 13.886719 10.117188 13.886719 " fill-opacity="1" fill-rule="nonzero"/></g><g clip-path="url(#1501c0d95d)"><path fill="#ffffff" d="M 10.386719 24.789062 C 10.351562 24.765625 6.945312 22.417969 5.910156 21.535156 C 5.027344 20.789062 4.648438 19.6875 4.648438 17.859375 L 4.648438 7.304688 C 5.816406 7.378906 6.1875 7.703125 6.558594 9.347656 C 6.859375 10.695312 7.539062 14.0625 7.542969 14.09375 C 7.570312 14.230469 7.703125 14.320312 7.839844 14.292969 C 7.976562 14.265625 8.066406 14.132812 8.039062 13.996094 C 8.03125 13.964844 7.351562 10.589844 7.050781 9.238281 C 6.597656 7.222656 5.964844 6.847656 4.40625 6.792969 C 4.339844 6.789062 4.273438 6.8125 4.222656 6.863281 C 4.175781 6.910156 4.144531 6.972656 4.144531 7.042969 L 4.144531 17.859375 C 4.144531 19.824219 4.589844 21.074219 5.582031 21.917969 C 6.640625 22.816406 9.957031 25.105469 10.101562 25.203125 C 10.144531 25.234375 10.195312 25.246094 10.242188 25.246094 C 10.324219 25.246094 10.402344 25.210938 10.449219 25.140625 C 10.53125 25.027344 10.5 24.871094 10.386719 24.789062 " fill-opacity="1" fill-rule="nonzero"/></g><g clip-path="url(#a5c0843c26)"><path fill="#ffffff" d="M 23.820312 16.382812 C 23.484375 15.796875 22.429688 15.140625 21.230469 15.605469 C 20.417969 15.921875 19.085938 16.738281 17.792969 17.527344 C 17.554688 17.671875 17.316406 17.820312 17.082031 17.960938 C 16.066406 18.578125 15.375 19.640625 15.027344 21.078125 C 14.683594 19.640625 13.988281 18.578125 12.972656 17.960938 C 12.738281 17.816406 12.5 17.671875 12.261719 17.527344 C 10.96875 16.738281 9.636719 15.921875 8.824219 15.605469 C 7.625 15.140625 6.570312 15.796875 6.234375 16.382812 C 6.035156 16.734375 6.066406 17.074219 6.316406 17.269531 C 7.148438 17.914062 10.585938 21.128906 10.621094 21.160156 C 10.722656 21.253906 10.882812 21.25 10.976562 21.152344 C 11.070312 21.050781 11.066406 20.890625 10.964844 20.796875 C 10.824219 20.664062 7.476562 17.53125 6.628906 16.875 C 6.585938 16.84375 6.617188 16.726562 6.671875 16.628906 C 6.921875 16.195312 7.71875 15.714844 8.640625 16.074219 C 9.414062 16.371094 10.726562 17.175781 11.996094 17.953125 C 12.234375 18.097656 12.472656 18.246094 12.710938 18.386719 C 14.375 19.398438 14.75 21.589844 14.777344 23.246094 L 14.777344 25.121094 C 14.777344 25.257812 14.886719 25.371094 15.027344 25.371094 C 15.167969 25.371094 15.277344 25.257812 15.277344 25.121094 L 15.277344 23.25 C 15.304688 21.589844 15.679688 19.398438 17.34375 18.386719 C 17.582031 18.246094 17.820312 18.097656 18.058594 17.953125 C 19.328125 17.175781 20.644531 16.371094 21.414062 16.074219 C 22.335938 15.714844 23.132812 16.195312 23.382812 16.628906 C 23.4375 16.726562 23.46875 16.84375 23.425781 16.875 C 22.582031 17.53125 19.230469 20.664062 19.089844 20.796875 C 18.988281 20.890625 18.984375 21.050781 19.078125 21.152344 C 19.175781 21.25 19.332031 21.257812 19.433594 21.160156 C 19.46875 21.128906 22.90625 17.914062 23.738281 17.269531 C 23.988281 17.074219 24.019531 16.734375 23.820312 16.382812 " fill-opacity="1" fill-rule="nonzero"/></g><g clip-path="url(#e6ad982dfa)"><path fill="#ffffff" d="M 25.832031 6.863281 C 25.78125 6.8125 25.714844 6.789062 25.648438 6.792969 C 24.089844 6.847656 23.457031 7.222656 23.003906 9.238281 C 22.703125 10.589844 22.023438 13.964844 22.015625 13.996094 C 21.988281 14.132812 22.078125 14.265625 22.214844 14.292969 C 22.351562 14.320312 22.484375 14.230469 22.511719 14.09375 C 22.515625 14.0625 23.195312 10.695312 23.496094 9.347656 C 23.867188 7.703125 24.238281 7.378906 25.40625 7.304688 L 25.40625 17.859375 C 25.40625 19.6875 25.027344 20.789062 24.144531 21.535156 C 23.109375 22.417969 19.703125 24.765625 19.667969 24.789062 C 19.554688 24.871094 19.527344 25.027344 19.605469 25.140625 C 19.652344 25.210938 19.730469 25.246094 19.8125 25.246094 C 19.863281 25.246094 19.910156 25.234375 19.957031 25.203125 C 20.097656 25.105469 23.417969 22.816406 24.472656 21.917969 C 25.464844 21.074219 25.910156 19.824219 25.910156 17.859375 L 25.910156 7.042969 C 25.910156 6.972656 25.882812 6.910156 25.832031 6.863281 " fill-opacity="1" fill-rule="nonzero"/></g></svg>