<svg xmlns="http://www.w3.org/2000/svg" width="18.382" height="16.643" viewBox="0 0 18.382 16.643"><defs><style>.a{fill:#545353;}</style></defs><g transform="translate(-180.376 -589.323)"><path class="a" d="M6.545,10.981a3.585,3.585,0,0,0-.554.043V8.3A10.028,10.028,0,0,1,6.164,6.34,2.827,2.827,0,0,1,6.969,4.85a2.9,2.9,0,0,1,1.5-.81,9.808,9.808,0,0,1,1.953-.178h6.165a9.71,9.71,0,0,1,1.935.178,2.955,2.955,0,0,1,2.3,2.3,9.693,9.693,0,0,1,.178,1.94v6.165a9.978,9.978,0,0,1-.173,1.948,2.827,2.827,0,0,1-.805,1.489,2.9,2.9,0,0,1-1.507.81,9.874,9.874,0,0,1-1.957.178l-5.225-.027a4.122,4.122,0,0,0,.455-1.087,6.166,6.166,0,0,0,.262-1.456,4.784,4.784,0,0,0-.349-2,5.413,5.413,0,0,0-1.1-1.714A7,7,0,0,0,8.637,11.3,5.269,5.269,0,0,0,6.545,10.981Z" transform="translate(177.753 585.46)"/><path class="a" d="M16.814,20.506a3.989,3.989,0,0,0,1.606-.329,4.293,4.293,0,0,0,1.338-.909,4.356,4.356,0,0,0,.914-1.338,3.965,3.965,0,0,0,.333-1.615,4.036,4.036,0,0,0-.567-2.1,4.3,4.3,0,0,0-1.524-1.52,4.171,4.171,0,0,0-4.2,0,4.353,4.353,0,0,0-1.52,1.52,4.155,4.155,0,0,0-.242,3.723,4.316,4.316,0,0,0,.9,1.342,4.168,4.168,0,0,0,1.338.9A4.087,4.087,0,0,0,16.814,20.506Zm-.485-1.723a.731.731,0,0,1-.238-.043.443.443,0,0,1-.2-.139L14.329,16.9a.377.377,0,0,1-.091-.16.667.667,0,0,1-.03-.195.541.541,0,0,1,.554-.563.508.508,0,0,1,.238.056.572.572,0,0,1,.169.126l1.126,1.23,2.121-2.944a.574.574,0,0,1,.857-.091.511.511,0,0,1,.165.394.478.478,0,0,1-.03.156.731.731,0,0,1-.082.165L16.78,18.575A.515.515,0,0,1,16.329,18.783Z" transform="translate(167.753 585.46)"/></g></svg>